SplineFontDB: 3.2
FontName: ProggyCleanTTBig
FullName: ProggyCleanTTBig
FamilyName: ProggyCleanTTBig
Weight: Book
Copyright: by Tristan Grimmer
Version: 2004/04/15
ItalicAngle: 0
UnderlinePosition: -338
UnderlineWidth: 144
Ascent: 1521
Descent: 527
InvalidEm: 0
sfntRevision: 0x00010000
LayerCount: 2
Layer: 0 1 "Back" 1
Layer: 1 1 "Fore" 0
XUID: [1021 908 -1249128067 26083]
StyleMap: 0x0040
FSType: 0
OS2Version: 0
OS2_WeightWidthSlopeOnly: 0
OS2_UseTypoMetrics: 0
CreationTime: 994166532
ModificationTime: 1748617790
PfmFamily: 81
TTFWeight: 400
TTFWidth: 5
LineGap: 350
VLineGap: 0
Panose: 0 0 4 9 0 0 0 0 0 0
OS2TypoAscent: 1521
OS2TypoAOffset: 0
OS2TypoDescent: -527
OS2TypoDOffset: 0
OS2TypoLinegap: 350
OS2WinAscent: 1884
OS2WinAOffset: 0
OS2WinDescent: 514
OS2WinDOffset: 0
HheadAscent: 1521
HheadAOffset: 0
HheadDescent: -527
HheadDOffset: 0
OS2SubXSize: 1434
OS2SubYSize: 1331
OS2SubXOff: 0
OS2SubYOff: 287
OS2SupXSize: 1434
OS2SupYSize: 1331
OS2SupXOff: 0
OS2SupYOff: 977
OS2StrikeYSize: 102
OS2StrikeYPos: 512
OS2CapHeight: 1307
OS2XHeight: 1004
OS2Vendor: 'Alts'
OS2UnicodeRanges: 00000000.00000000.00000000.00000000
MarkAttachClasses: 1
DEI: 91125
TtTable: prep
PUSHB_2
 0
 1
SCANTYPE
PUSHW_1
 511
SCANCTRL
EndTTInstrs
ShortTable: cvt  1
  0
EndShort
ShortTable: maxp 16
  1
  0
  257
  144
  36
  0
  0
  2
  8
  64
  10
  0
  118
  8
  0
  0
EndShort
LangName: 1033 "" "" "Regular" "" "" "2004/04/15"
Encoding: UnicodeBmp
UnicodeInterp: none
NameList: AGL For New Fonts
DisplaySize: -48
AntiAlias: 1
FitToEm: 0
WinInfo: 0 24 17
BeginPrivate: 0
EndPrivate
TeXData: 1 0 0 605184 302592 201728 522240 -1048576 201728 783286 444596 497025 792723 393216 433062 380633 303038 157286 324010 404750 52429 2506097 1059062 262144
BeginChars: 65537 257

StartChar: .notdef
Encoding: 65536 -1 0
Width: 1182
VWidth: 2708
GlyphClass: 1
Flags: W
LayerCount: 2
Fore
SplineSet
0 1526 m 1,0,-1
 0 1695 l 1,1,-1
 169 1695 l 1,2,-1
 169 1526 l 1,3,-1
 0 1526 l 1,0,-1
169 1526 m 1,4,-1
 169 1695 l 1,5,-1
 338 1695 l 1,6,-1
 338 1526 l 1,7,-1
 169 1526 l 1,4,-1
338 1526 m 1,8,-1
 338 1695 l 1,9,-1
 507 1695 l 1,10,-1
 507 1526 l 1,11,-1
 338 1526 l 1,8,-1
507 1526 m 1,12,-1
 507 1695 l 1,13,-1
 675 1695 l 1,14,-1
 675 1526 l 1,15,-1
 507 1526 l 1,12,-1
675 1526 m 1,16,-1
 675 1695 l 1,17,-1
 845 1695 l 1,18,-1
 845 1526 l 1,19,-1
 675 1526 l 1,16,-1
845 1526 m 1,20,-1
 845 1695 l 1,21,-1
 1014 1695 l 1,22,-1
 1014 1526 l 1,23,-1
 845 1526 l 1,20,-1
1014 1526 m 1,24,-1
 1014 1695 l 1,25,-1
 1182 1695 l 1,26,-1
 1182 1526 l 1,27,-1
 1014 1526 l 1,24,-1
0 1357 m 1,28,-1
 0 1526 l 1,29,-1
 169 1526 l 1,30,-1
 169 1357 l 1,31,-1
 0 1357 l 1,28,-1
1014 1357 m 1,32,-1
 1014 1526 l 1,33,-1
 1182 1526 l 1,34,-1
 1182 1357 l 1,35,-1
 1014 1357 l 1,32,-1
0 1188 m 1,36,-1
 0 1357 l 1,37,-1
 169 1357 l 1,38,-1
 169 1188 l 1,39,-1
 0 1188 l 1,36,-1
1014 1188 m 1,40,-1
 1014 1357 l 1,41,-1
 1182 1357 l 1,42,-1
 1182 1188 l 1,43,-1
 1014 1188 l 1,40,-1
0 1020 m 1,44,-1
 0 1188 l 1,45,-1
 169 1188 l 1,46,-1
 169 1020 l 1,47,-1
 0 1020 l 1,44,-1
1014 1020 m 1,48,-1
 1014 1188 l 1,49,-1
 1182 1188 l 1,50,-1
 1182 1020 l 1,51,-1
 1014 1020 l 1,48,-1
0 850 m 1,52,-1
 0 1020 l 1,53,-1
 169 1020 l 1,54,-1
 169 850 l 1,55,-1
 0 850 l 1,52,-1
1014 850 m 1,56,-1
 1014 1020 l 1,57,-1
 1182 1020 l 1,58,-1
 1182 850 l 1,59,-1
 1014 850 l 1,56,-1
0 681 m 1,60,-1
 0 850 l 1,61,-1
 169 850 l 1,62,-1
 169 681 l 1,63,-1
 0 681 l 1,60,-1
1014 681 m 1,64,-1
 1014 850 l 1,65,-1
 1182 850 l 1,66,-1
 1182 681 l 1,67,-1
 1014 681 l 1,64,-1
0 513 m 1,68,-1
 0 681 l 1,69,-1
 169 681 l 1,70,-1
 169 513 l 1,71,-1
 0 513 l 1,68,-1
1014 513 m 1,72,-1
 1014 681 l 1,73,-1
 1182 681 l 1,74,-1
 1182 513 l 1,75,-1
 1014 513 l 1,72,-1
0 343 m 1,76,-1
 0 513 l 1,77,-1
 169 513 l 1,78,-1
 169 343 l 1,79,-1
 0 343 l 1,76,-1
1014 343 m 1,80,-1
 1014 513 l 1,81,-1
 1182 513 l 1,82,-1
 1182 343 l 1,83,-1
 1014 343 l 1,80,-1
0 175 m 1,84,-1
 0 343 l 1,85,-1
 169 343 l 1,86,-1
 169 175 l 1,87,-1
 0 175 l 1,84,-1
1014 175 m 1,88,-1
 1014 343 l 1,89,-1
 1182 343 l 1,90,-1
 1182 175 l 1,91,-1
 1014 175 l 1,88,-1
0 6 m 1,92,-1
 0 175 l 1,93,-1
 169 175 l 1,94,95
 169 176 169 176 169 6 c 1,96,-1
 0 6 l 1,92,-1
1014 6 m 1,97,-1
 1014 175 l 1,98,-1
 1182 175 l 1,99,100
 1182 176 1182 176 1182 6 c 1,101,-1
 1014 6 l 1,97,-1
0 -164 m 1,102,-1
 0 6 l 1,103,-1
 169 6 l 1,104,-1
 169 -164 l 1,105,-1
 0 -164 l 1,102,-1
1014 -164 m 1,106,-1
 1014 6 l 1,107,-1
 1182 6 l 1,108,-1
 1182 -164 l 1,109,-1
 1014 -164 l 1,106,-1
0 -332 m 1,110,-1
 0 -164 l 1,111,-1
 169 -164 l 1,112,-1
 169 -332 l 1,113,-1
 0 -332 l 1,110,-1
1014 -332 m 1,114,-1
 1014 -164 l 1,115,-1
 1182 -164 l 1,116,-1
 1182 -332 l 1,117,-1
 1014 -332 l 1,114,-1
0 -502 m 1,118,-1
 0 -332 l 1,119,-1
 169 -332 l 1,120,-1
 169 -502 l 1,121,-1
 0 -502 l 1,118,-1
169 -502 m 1,122,-1
 169 -332 l 1,123,-1
 338 -332 l 1,124,-1
 338 -502 l 1,125,-1
 169 -502 l 1,122,-1
338 -502 m 1,126,-1
 338 -332 l 1,127,-1
 507 -332 l 1,128,-1
 507 -502 l 1,129,-1
 338 -502 l 1,126,-1
507 -502 m 1,130,-1
 507 -332 l 1,131,-1
 675 -332 l 1,132,-1
 675 -502 l 1,133,-1
 507 -502 l 1,130,-1
675 -502 m 1,134,-1
 675 -332 l 1,135,-1
 845 -332 l 1,136,-1
 845 -502 l 1,137,-1
 675 -502 l 1,134,-1
845 -502 m 1,138,-1
 845 -332 l 1,139,-1
 1014 -332 l 1,140,-1
 1014 -502 l 1,141,-1
 845 -502 l 1,138,-1
1014 -502 m 1,142,-1
 1014 -332 l 1,143,-1
 1182 -332 l 1,144,-1
 1182 -502 l 1,145,-1
 1014 -502 l 1,142,-1
EndSplineSet
Validated: 37
EndChar

StartChar: exclam
Encoding: 33 33 34
Width: 1182
VWidth: 2708
GlyphClass: 1
Flags: W
LayerCount: 2
Fore
SplineSet
507 1188 m 1,0,-1
 507 1357 l 1,1,-1
 675 1357 l 1,2,-1
 675 1188 l 1,3,-1
 507 1188 l 1,0,-1
507 1020 m 1,4,-1
 507 1188 l 1,5,-1
 675 1188 l 1,6,-1
 675 1020 l 1,7,-1
 507 1020 l 1,4,-1
507 850 m 1,8,-1
 507 1020 l 1,9,-1
 675 1020 l 1,10,-1
 675 850 l 1,11,-1
 507 850 l 1,8,-1
507 681 m 1,12,-1
 507 850 l 1,13,-1
 675 850 l 1,14,-1
 675 681 l 1,15,-1
 507 681 l 1,12,-1
507 513 m 1,16,-1
 507 681 l 1,17,-1
 675 681 l 1,18,-1
 675 513 l 1,19,-1
 507 513 l 1,16,-1
507 343 m 1,20,-1
 507 513 l 1,21,-1
 675 513 l 1,22,-1
 675 343 l 1,23,-1
 507 343 l 1,20,-1
507 6 m 1,24,-1
 507 175 l 1,25,-1
 675 175 l 1,26,27
 675 176 675 176 675 6 c 1,28,-1
 507 6 l 1,24,-1
EndSplineSet
Validated: 37
EndChar

StartChar: quotedbl
Encoding: 34 34 35
Width: 1182
VWidth: 2708
GlyphClass: 1
Flags: W
LayerCount: 2
Fore
SplineSet
338 1357 m 1,0,-1
 338 1526 l 1,1,-1
 507 1526 l 1,2,-1
 507 1357 l 1,3,-1
 338 1357 l 1,0,-1
675 1357 m 1,4,-1
 675 1526 l 1,5,-1
 845 1526 l 1,6,-1
 845 1357 l 1,7,-1
 675 1357 l 1,4,-1
338 1188 m 1,8,-1
 338 1357 l 1,9,-1
 507 1357 l 1,10,-1
 507 1188 l 1,11,-1
 338 1188 l 1,8,-1
675 1188 m 1,12,-1
 675 1357 l 1,13,-1
 845 1357 l 1,14,-1
 845 1188 l 1,15,-1
 675 1188 l 1,12,-1
338 1020 m 1,16,-1
 338 1188 l 1,17,-1
 507 1188 l 1,18,-1
 507 1020 l 1,19,-1
 338 1020 l 1,16,-1
675 1020 m 1,20,-1
 675 1188 l 1,21,-1
 845 1188 l 1,22,-1
 845 1020 l 1,23,-1
 675 1020 l 1,20,-1
EndSplineSet
Validated: 5
EndChar

StartChar: numbersign
Encoding: 35 35 36
Width: 1182
VWidth: 2708
GlyphClass: 1
Flags: W
LayerCount: 2
Fore
SplineSet
507 1188 m 1,0,-1
 507 1357 l 1,1,-1
 675 1357 l 1,2,-1
 675 1188 l 1,3,-1
 507 1188 l 1,0,-1
845 1188 m 1,4,-1
 845 1357 l 1,5,-1
 1014 1357 l 1,6,-1
 1014 1188 l 1,7,-1
 845 1188 l 1,4,-1
507 1020 m 1,8,-1
 507 1188 l 1,9,-1
 675 1188 l 1,10,-1
 675 1020 l 1,11,-1
 507 1020 l 1,8,-1
845 1020 m 1,12,-1
 845 1188 l 1,13,-1
 1014 1188 l 1,14,-1
 1014 1020 l 1,15,-1
 845 1020 l 1,12,-1
169 850 m 1,16,-1
 169 1020 l 1,17,-1
 338 1020 l 1,18,-1
 338 850 l 1,19,-1
 169 850 l 1,16,-1
338 850 m 1,20,-1
 338 1020 l 1,21,-1
 507 1020 l 1,22,-1
 507 850 l 1,23,-1
 338 850 l 1,20,-1
507 850 m 1,24,-1
 507 1020 l 1,25,-1
 675 1020 l 1,26,-1
 675 850 l 1,27,-1
 507 850 l 1,24,-1
675 850 m 1,28,-1
 675 1020 l 1,29,-1
 845 1020 l 1,30,-1
 845 850 l 1,31,-1
 675 850 l 1,28,-1
845 850 m 1,32,-1
 845 1020 l 1,33,-1
 1014 1020 l 1,34,-1
 1014 850 l 1,35,-1
 845 850 l 1,32,-1
1014 850 m 1,36,-1
 1014 1020 l 1,37,-1
 1182 1020 l 1,38,-1
 1182 850 l 1,39,-1
 1014 850 l 1,36,-1
338 681 m 1,40,-1
 338 850 l 1,41,-1
 507 850 l 1,42,-1
 507 681 l 1,43,-1
 338 681 l 1,40,-1
675 681 m 1,44,-1
 675 850 l 1,45,-1
 845 850 l 1,46,-1
 845 681 l 1,47,-1
 675 681 l 1,44,-1
338 513 m 1,48,-1
 338 681 l 1,49,-1
 507 681 l 1,50,-1
 507 513 l 1,51,-1
 338 513 l 1,48,-1
675 513 m 1,52,-1
 675 681 l 1,53,-1
 845 681 l 1,54,-1
 845 513 l 1,55,-1
 675 513 l 1,52,-1
0 343 m 1,56,-1
 0 513 l 1,57,-1
 169 513 l 1,58,-1
 169 343 l 1,59,-1
 0 343 l 1,56,-1
169 343 m 1,60,-1
 169 513 l 1,61,-1
 338 513 l 1,62,-1
 338 343 l 1,63,-1
 169 343 l 1,60,-1
338 343 m 1,64,-1
 338 513 l 1,65,-1
 507 513 l 1,66,-1
 507 343 l 1,67,-1
 338 343 l 1,64,-1
507 343 m 1,68,-1
 507 513 l 1,69,-1
 675 513 l 1,70,-1
 675 343 l 1,71,-1
 507 343 l 1,68,-1
675 343 m 1,72,-1
 675 513 l 1,73,-1
 845 513 l 1,74,-1
 845 343 l 1,75,-1
 675 343 l 1,72,-1
845 343 m 1,76,-1
 845 513 l 1,77,-1
 1014 513 l 1,78,-1
 1014 343 l 1,79,-1
 845 343 l 1,76,-1
169 175 m 1,80,-1
 169 343 l 1,81,-1
 338 343 l 1,82,-1
 338 175 l 1,83,-1
 169 175 l 1,80,-1
507 175 m 1,84,-1
 507 343 l 1,85,-1
 675 343 l 1,86,-1
 675 175 l 1,87,-1
 507 175 l 1,84,-1
169 6 m 1,88,-1
 169 175 l 1,89,-1
 338 175 l 1,90,91
 338 176 338 176 338 6 c 1,92,-1
 169 6 l 1,88,-1
507 6 m 1,93,-1
 507 175 l 1,94,-1
 675 175 l 1,95,96
 675 176 675 176 675 6 c 1,97,-1
 507 6 l 1,93,-1
EndSplineSet
Validated: 37
EndChar

StartChar: dollar
Encoding: 36 36 37
Width: 1182
VWidth: 2708
GlyphClass: 1
Flags: W
LayerCount: 2
Fore
SplineSet
507 1188 m 1,0,-1
 507 1357 l 1,1,-1
 675 1357 l 1,2,-1
 675 1188 l 1,3,-1
 507 1188 l 1,0,-1
338 1020 m 1,4,-1
 338 1188 l 1,5,-1
 507 1188 l 1,6,-1
 507 1020 l 1,7,-1
 338 1020 l 1,4,-1
507 1020 m 1,8,-1
 507 1188 l 1,9,-1
 675 1188 l 1,10,-1
 675 1020 l 1,11,-1
 507 1020 l 1,8,-1
675 1020 m 1,12,-1
 675 1188 l 1,13,-1
 845 1188 l 1,14,-1
 845 1020 l 1,15,-1
 675 1020 l 1,12,-1
845 1020 m 1,16,-1
 845 1188 l 1,17,-1
 1014 1188 l 1,18,-1
 1014 1020 l 1,19,-1
 845 1020 l 1,16,-1
169 850 m 1,20,-1
 169 1020 l 1,21,-1
 338 1020 l 1,22,-1
 338 850 l 1,23,-1
 169 850 l 1,20,-1
507 850 m 1,24,-1
 507 1020 l 1,25,-1
 675 1020 l 1,26,-1
 675 850 l 1,27,-1
 507 850 l 1,24,-1
169 681 m 1,28,-1
 169 850 l 1,29,-1
 338 850 l 1,30,-1
 338 681 l 1,31,-1
 169 681 l 1,28,-1
507 681 m 1,32,-1
 507 850 l 1,33,-1
 675 850 l 1,34,-1
 675 681 l 1,35,-1
 507 681 l 1,32,-1
338 513 m 1,36,-1
 338 681 l 1,37,-1
 507 681 l 1,38,-1
 507 513 l 1,39,-1
 338 513 l 1,36,-1
507 513 m 1,40,-1
 507 681 l 1,41,-1
 675 681 l 1,42,-1
 675 513 l 1,43,-1
 507 513 l 1,40,-1
675 513 m 1,44,-1
 675 681 l 1,45,-1
 845 681 l 1,46,-1
 845 513 l 1,47,-1
 675 513 l 1,44,-1
507 343 m 1,48,-1
 507 513 l 1,49,-1
 675 513 l 1,50,-1
 675 343 l 1,51,-1
 507 343 l 1,48,-1
845 343 m 1,52,-1
 845 513 l 1,53,-1
 1014 513 l 1,54,-1
 1014 343 l 1,55,-1
 845 343 l 1,52,-1
507 175 m 1,56,-1
 507 343 l 1,57,-1
 675 343 l 1,58,-1
 675 175 l 1,59,-1
 507 175 l 1,56,-1
845 175 m 1,60,-1
 845 343 l 1,61,-1
 1014 343 l 1,62,-1
 1014 175 l 1,63,-1
 845 175 l 1,60,-1
169 6 m 1,64,-1
 169 175 l 1,65,-1
 338 175 l 1,66,67
 338 176 338 176 338 6 c 1,68,-1
 169 6 l 1,64,-1
338 6 m 1,69,-1
 338 175 l 1,70,-1
 507 175 l 1,71,72
 507 176 507 176 507 6 c 1,73,-1
 338 6 l 1,69,-1
507 6 m 1,74,-1
 507 175 l 1,75,-1
 675 175 l 1,76,77
 675 176 675 176 675 6 c 1,78,-1
 507 6 l 1,74,-1
675 6 m 1,79,-1
 675 175 l 1,80,-1
 845 175 l 1,81,82
 845 176 845 176 845 6 c 1,83,-1
 675 6 l 1,79,-1
507 -164 m 1,84,-1
 507 6 l 1,85,-1
 675 6 l 1,86,-1
 675 -164 l 1,87,-1
 507 -164 l 1,84,-1
EndSplineSet
Validated: 37
EndChar

StartChar: percent
Encoding: 37 37 38
Width: 1182
VWidth: 2708
GlyphClass: 1
Flags: W
LayerCount: 2
Fore
SplineSet
169 1188 m 1,0,-1
 169 1357 l 1,1,-1
 338 1357 l 1,2,-1
 338 1188 l 1,3,-1
 169 1188 l 1,0,-1
845 1188 m 1,4,-1
 845 1357 l 1,5,-1
 1014 1357 l 1,6,-1
 1014 1188 l 1,7,-1
 845 1188 l 1,4,-1
0 1020 m 1,8,-1
 0 1188 l 1,9,-1
 169 1188 l 1,10,-1
 169 1020 l 1,11,-1
 0 1020 l 1,8,-1
338 1020 m 1,12,-1
 338 1188 l 1,13,-1
 507 1188 l 1,14,-1
 507 1020 l 1,15,-1
 338 1020 l 1,12,-1
675 1020 m 1,16,-1
 675 1188 l 1,17,-1
 845 1188 l 1,18,-1
 845 1020 l 1,19,-1
 675 1020 l 1,16,-1
0 850 m 1,20,-1
 0 1020 l 1,21,-1
 169 1020 l 1,22,-1
 169 850 l 1,23,-1
 0 850 l 1,20,-1
338 850 m 1,24,-1
 338 1020 l 1,25,-1
 507 1020 l 1,26,-1
 507 850 l 1,27,-1
 338 850 l 1,24,-1
675 850 m 1,28,-1
 675 1020 l 1,29,-1
 845 1020 l 1,30,-1
 845 850 l 1,31,-1
 675 850 l 1,28,-1
169 681 m 1,32,-1
 169 850 l 1,33,-1
 338 850 l 1,34,-1
 338 681 l 1,35,-1
 169 681 l 1,32,-1
507 681 m 1,36,-1
 507 850 l 1,37,-1
 675 850 l 1,38,-1
 675 681 l 1,39,-1
 507 681 l 1,36,-1
507 513 m 1,40,-1
 507 681 l 1,41,-1
 675 681 l 1,42,-1
 675 513 l 1,43,-1
 507 513 l 1,40,-1
845 513 m 1,44,-1
 845 681 l 1,45,-1
 1014 681 l 1,46,-1
 1014 513 l 1,47,-1
 845 513 l 1,44,-1
338 343 m 1,48,-1
 338 513 l 1,49,-1
 507 513 l 1,50,-1
 507 343 l 1,51,-1
 338 343 l 1,48,-1
675 343 m 1,52,-1
 675 513 l 1,53,-1
 845 513 l 1,54,-1
 845 343 l 1,55,-1
 675 343 l 1,52,-1
1014 343 m 1,56,-1
 1014 513 l 1,57,-1
 1182 513 l 1,58,-1
 1182 343 l 1,59,-1
 1014 343 l 1,56,-1
338 175 m 1,60,-1
 338 343 l 1,61,-1
 507 343 l 1,62,-1
 507 175 l 1,63,-1
 338 175 l 1,60,-1
675 175 m 1,64,-1
 675 343 l 1,65,-1
 845 343 l 1,66,-1
 845 175 l 1,67,-1
 675 175 l 1,64,-1
1014 175 m 1,68,-1
 1014 343 l 1,69,-1
 1182 343 l 1,70,-1
 1182 175 l 1,71,-1
 1014 175 l 1,68,-1
169 6 m 1,72,-1
 169 175 l 1,73,-1
 338 175 l 1,74,75
 338 176 338 176 338 6 c 1,76,-1
 169 6 l 1,72,-1
845 6 m 1,77,-1
 845 175 l 1,78,-1
 1014 175 l 1,79,80
 1014 176 1014 176 1014 6 c 1,81,-1
 845 6 l 1,77,-1
EndSplineSet
Validated: 37
EndChar

StartChar: ampersand
Encoding: 38 38 39
Width: 1182
VWidth: 2708
GlyphClass: 1
Flags: W
LayerCount: 2
Fore
SplineSet
338 1188 m 1,0,-1
 338 1357 l 1,1,-1
 507 1357 l 1,2,-1
 507 1188 l 1,3,-1
 338 1188 l 1,0,-1
507 1188 m 1,4,-1
 507 1357 l 1,5,-1
 675 1357 l 1,6,-1
 675 1188 l 1,7,-1
 507 1188 l 1,4,-1
169 1020 m 1,8,-1
 169 1188 l 1,9,-1
 338 1188 l 1,10,-1
 338 1020 l 1,11,-1
 169 1020 l 1,8,-1
675 1020 m 1,12,-1
 675 1188 l 1,13,-1
 845 1188 l 1,14,-1
 845 1020 l 1,15,-1
 675 1020 l 1,12,-1
169 850 m 1,16,-1
 169 1020 l 1,17,-1
 338 1020 l 1,18,-1
 338 850 l 1,19,-1
 169 850 l 1,16,-1
675 850 m 1,20,-1
 675 1020 l 1,21,-1
 845 1020 l 1,22,-1
 845 850 l 1,23,-1
 675 850 l 1,20,-1
338 681 m 1,24,-1
 338 850 l 1,25,-1
 507 850 l 1,26,-1
 507 681 l 1,27,-1
 338 681 l 1,24,-1
507 681 m 1,28,-1
 507 850 l 1,29,-1
 675 850 l 1,30,-1
 675 681 l 1,31,-1
 507 681 l 1,28,-1
1014 681 m 1,32,-1
 1014 850 l 1,33,-1
 1182 850 l 1,34,-1
 1182 681 l 1,35,-1
 1014 681 l 1,32,-1
169 513 m 1,36,-1
 169 681 l 1,37,-1
 338 681 l 1,38,-1
 338 513 l 1,39,-1
 169 513 l 1,36,-1
675 513 m 1,40,-1
 675 681 l 1,41,-1
 845 681 l 1,42,-1
 845 513 l 1,43,-1
 675 513 l 1,40,-1
1014 513 m 1,44,-1
 1014 681 l 1,45,-1
 1182 681 l 1,46,-1
 1182 513 l 1,47,-1
 1014 513 l 1,44,-1
169 343 m 1,48,-1
 169 513 l 1,49,-1
 338 513 l 1,50,-1
 338 343 l 1,51,-1
 169 343 l 1,48,-1
845 343 m 1,52,-1
 845 513 l 1,53,-1
 1014 513 l 1,54,-1
 1014 343 l 1,55,-1
 845 343 l 1,52,-1
169 175 m 1,56,-1
 169 343 l 1,57,-1
 338 343 l 1,58,-1
 338 175 l 1,59,-1
 169 175 l 1,56,-1
845 175 m 1,60,-1
 845 343 l 1,61,-1
 1014 343 l 1,62,-1
 1014 175 l 1,63,-1
 845 175 l 1,60,-1
338 6 m 1,64,-1
 338 175 l 1,65,-1
 507 175 l 1,66,67
 507 176 507 176 507 6 c 1,68,-1
 338 6 l 1,64,-1
507 6 m 1,69,-1
 507 175 l 1,70,-1
 675 175 l 1,71,72
 675 176 675 176 675 6 c 1,73,-1
 507 6 l 1,69,-1
675 6 m 1,74,-1
 675 175 l 1,75,-1
 845 175 l 1,76,77
 845 176 845 176 845 6 c 1,78,-1
 675 6 l 1,74,-1
1014 6 m 1,79,-1
 1014 175 l 1,80,-1
 1182 175 l 1,81,82
 1182 176 1182 176 1182 6 c 1,83,-1
 1014 6 l 1,79,-1
EndSplineSet
Validated: 37
EndChar

StartChar: quotesingle
Encoding: 39 39 40
Width: 1182
VWidth: 2708
GlyphClass: 1
Flags: W
LayerCount: 2
Fore
SplineSet
507 1357 m 1,0,-1
 507 1526 l 1,1,-1
 675 1526 l 1,2,-1
 675 1357 l 1,3,-1
 507 1357 l 1,0,-1
507 1188 m 1,4,-1
 507 1357 l 1,5,-1
 675 1357 l 1,6,-1
 675 1188 l 1,7,-1
 507 1188 l 1,4,-1
507 1020 m 1,8,-1
 507 1188 l 1,9,-1
 675 1188 l 1,10,-1
 675 1020 l 1,11,-1
 507 1020 l 1,8,-1
EndSplineSet
Validated: 5
EndChar

StartChar: parenleft
Encoding: 40 40 41
Width: 1182
VWidth: 2708
GlyphClass: 1
Flags: W
LayerCount: 2
Fore
SplineSet
675 1357 m 1,0,-1
 675 1526 l 1,1,-1
 845 1526 l 1,2,-1
 845 1357 l 1,3,-1
 675 1357 l 1,0,-1
507 1188 m 1,4,-1
 507 1357 l 1,5,-1
 675 1357 l 1,6,-1
 675 1188 l 1,7,-1
 507 1188 l 1,4,-1
507 1020 m 1,8,-1
 507 1188 l 1,9,-1
 675 1188 l 1,10,-1
 675 1020 l 1,11,-1
 507 1020 l 1,8,-1
338 850 m 1,12,-1
 338 1020 l 1,13,-1
 507 1020 l 1,14,-1
 507 850 l 1,15,-1
 338 850 l 1,12,-1
338 681 m 1,16,-1
 338 850 l 1,17,-1
 507 850 l 1,18,-1
 507 681 l 1,19,-1
 338 681 l 1,16,-1
338 513 m 1,20,-1
 338 681 l 1,21,-1
 507 681 l 1,22,-1
 507 513 l 1,23,-1
 338 513 l 1,20,-1
338 343 m 1,24,-1
 338 513 l 1,25,-1
 507 513 l 1,26,-1
 507 343 l 1,27,-1
 338 343 l 1,24,-1
338 175 m 1,28,-1
 338 343 l 1,29,-1
 507 343 l 1,30,-1
 507 175 l 1,31,-1
 338 175 l 1,28,-1
507 6 m 1,32,-1
 507 175 l 1,33,-1
 675 175 l 1,34,35
 675 176 675 176 675 6 c 1,36,-1
 507 6 l 1,32,-1
507 -164 m 1,37,-1
 507 6 l 1,38,-1
 675 6 l 1,39,-1
 675 -164 l 1,40,-1
 507 -164 l 1,37,-1
675 -332 m 1,41,-1
 675 -164 l 1,42,-1
 845 -164 l 1,43,-1
 845 -332 l 1,44,-1
 675 -332 l 1,41,-1
EndSplineSet
Validated: 37
EndChar

StartChar: parenright
Encoding: 41 41 42
Width: 1182
VWidth: 2708
GlyphClass: 1
Flags: W
LayerCount: 2
Fore
SplineSet
338 1357 m 1,0,-1
 338 1526 l 1,1,-1
 507 1526 l 1,2,-1
 507 1357 l 1,3,-1
 338 1357 l 1,0,-1
507 1188 m 1,4,-1
 507 1357 l 1,5,-1
 675 1357 l 1,6,-1
 675 1188 l 1,7,-1
 507 1188 l 1,4,-1
507 1020 m 1,8,-1
 507 1188 l 1,9,-1
 675 1188 l 1,10,-1
 675 1020 l 1,11,-1
 507 1020 l 1,8,-1
675 850 m 1,12,-1
 675 1020 l 1,13,-1
 845 1020 l 1,14,-1
 845 850 l 1,15,-1
 675 850 l 1,12,-1
675 681 m 1,16,-1
 675 850 l 1,17,-1
 845 850 l 1,18,-1
 845 681 l 1,19,-1
 675 681 l 1,16,-1
675 513 m 1,20,-1
 675 681 l 1,21,-1
 845 681 l 1,22,-1
 845 513 l 1,23,-1
 675 513 l 1,20,-1
675 343 m 1,24,-1
 675 513 l 1,25,-1
 845 513 l 1,26,-1
 845 343 l 1,27,-1
 675 343 l 1,24,-1
675 175 m 1,28,-1
 675 343 l 1,29,-1
 845 343 l 1,30,-1
 845 175 l 1,31,-1
 675 175 l 1,28,-1
507 6 m 1,32,-1
 507 175 l 1,33,-1
 675 175 l 1,34,35
 675 176 675 176 675 6 c 1,36,-1
 507 6 l 1,32,-1
507 -164 m 1,37,-1
 507 6 l 1,38,-1
 675 6 l 1,39,-1
 675 -164 l 1,40,-1
 507 -164 l 1,37,-1
338 -332 m 1,41,-1
 338 -164 l 1,42,-1
 507 -164 l 1,43,-1
 507 -332 l 1,44,-1
 338 -332 l 1,41,-1
EndSplineSet
Validated: 37
EndChar

StartChar: asterisk
Encoding: 42 42 43
Width: 1182
VWidth: 2708
GlyphClass: 1
Flags: W
LayerCount: 2
Fore
SplineSet
507 850 m 1,0,-1
 507 1020 l 1,1,-1
 675 1020 l 1,2,-1
 675 850 l 1,3,-1
 507 850 l 1,0,-1
169 681 m 1,4,-1
 169 850 l 1,5,-1
 338 850 l 1,6,-1
 338 681 l 1,7,-1
 169 681 l 1,4,-1
507 681 m 1,8,-1
 507 850 l 1,9,-1
 675 850 l 1,10,-1
 675 681 l 1,11,-1
 507 681 l 1,8,-1
845 681 m 1,12,-1
 845 850 l 1,13,-1
 1014 850 l 1,14,-1
 1014 681 l 1,15,-1
 845 681 l 1,12,-1
338 513 m 1,16,-1
 338 681 l 1,17,-1
 507 681 l 1,18,-1
 507 513 l 1,19,-1
 338 513 l 1,16,-1
507 513 m 1,20,-1
 507 681 l 1,21,-1
 675 681 l 1,22,-1
 675 513 l 1,23,-1
 507 513 l 1,20,-1
675 513 m 1,24,-1
 675 681 l 1,25,-1
 845 681 l 1,26,-1
 845 513 l 1,27,-1
 675 513 l 1,24,-1
169 343 m 1,28,-1
 169 513 l 1,29,-1
 338 513 l 1,30,-1
 338 343 l 1,31,-1
 169 343 l 1,28,-1
507 343 m 1,32,-1
 507 513 l 1,33,-1
 675 513 l 1,34,-1
 675 343 l 1,35,-1
 507 343 l 1,32,-1
845 343 m 1,36,-1
 845 513 l 1,37,-1
 1014 513 l 1,38,-1
 1014 343 l 1,39,-1
 845 343 l 1,36,-1
507 175 m 1,40,-1
 507 343 l 1,41,-1
 675 343 l 1,42,-1
 675 175 l 1,43,-1
 507 175 l 1,40,-1
EndSplineSet
Validated: 5
EndChar

StartChar: plus
Encoding: 43 43 44
Width: 1182
VWidth: 2708
GlyphClass: 1
Flags: W
LayerCount: 2
Fore
SplineSet
507 850 m 1,0,-1
 507 1020 l 1,1,-1
 675 1020 l 1,2,-1
 675 850 l 1,3,-1
 507 850 l 1,0,-1
507 681 m 1,4,-1
 507 850 l 1,5,-1
 675 850 l 1,6,-1
 675 681 l 1,7,-1
 507 681 l 1,4,-1
169 513 m 1,8,-1
 169 681 l 1,9,-1
 338 681 l 1,10,-1
 338 513 l 1,11,-1
 169 513 l 1,8,-1
338 513 m 1,12,-1
 338 681 l 1,13,-1
 507 681 l 1,14,-1
 507 513 l 1,15,-1
 338 513 l 1,12,-1
507 513 m 1,16,-1
 507 681 l 1,17,-1
 675 681 l 1,18,-1
 675 513 l 1,19,-1
 507 513 l 1,16,-1
675 513 m 1,20,-1
 675 681 l 1,21,-1
 845 681 l 1,22,-1
 845 513 l 1,23,-1
 675 513 l 1,20,-1
845 513 m 1,24,-1
 845 681 l 1,25,-1
 1014 681 l 1,26,-1
 1014 513 l 1,27,-1
 845 513 l 1,24,-1
507 343 m 1,28,-1
 507 513 l 1,29,-1
 675 513 l 1,30,-1
 675 343 l 1,31,-1
 507 343 l 1,28,-1
507 175 m 1,32,-1
 507 343 l 1,33,-1
 675 343 l 1,34,-1
 675 175 l 1,35,-1
 507 175 l 1,32,-1
EndSplineSet
Validated: 5
EndChar

StartChar: comma
Encoding: 44 44 45
Width: 1182
VWidth: 2708
GlyphClass: 1
Flags: W
LayerCount: 2
Fore
SplineSet
338 175 m 1,0,-1
 338 343 l 1,1,-1
 507 343 l 1,2,-1
 507 175 l 1,3,-1
 338 175 l 1,0,-1
338 6 m 1,4,-1
 338 175 l 1,5,-1
 507 175 l 1,6,7
 507 176 507 176 507 6 c 1,8,-1
 338 6 l 1,4,-1
338 -164 m 1,9,-1
 338 6 l 1,10,-1
 507 6 l 1,11,-1
 507 -164 l 1,12,-1
 338 -164 l 1,9,-1
169 -332 m 1,13,-1
 169 -164 l 1,14,-1
 338 -164 l 1,15,-1
 338 -332 l 1,16,-1
 169 -332 l 1,13,-1
EndSplineSet
Validated: 37
EndChar

StartChar: hyphen
Encoding: 45 45 46
Width: 1182
VWidth: 2708
GlyphClass: 1
Flags: W
LayerCount: 2
Fore
SplineSet
169 513 m 1,0,-1
 169 681 l 1,1,-1
 338 681 l 1,2,-1
 338 513 l 1,3,-1
 169 513 l 1,0,-1
338 513 m 1,4,-1
 338 681 l 1,5,-1
 507 681 l 1,6,-1
 507 513 l 1,7,-1
 338 513 l 1,4,-1
507 513 m 1,8,-1
 507 681 l 1,9,-1
 675 681 l 1,10,-1
 675 513 l 1,11,-1
 507 513 l 1,8,-1
675 513 m 1,12,-1
 675 681 l 1,13,-1
 845 681 l 1,14,-1
 845 513 l 1,15,-1
 675 513 l 1,12,-1
845 513 m 1,16,-1
 845 681 l 1,17,-1
 1014 681 l 1,18,-1
 1014 513 l 1,19,-1
 845 513 l 1,16,-1
EndSplineSet
Validated: 5
EndChar

StartChar: period
Encoding: 46 46 47
Width: 1182
VWidth: 2708
GlyphClass: 1
Flags: W
LayerCount: 2
Fore
SplineSet
338 175 m 1,0,-1
 338 343 l 1,1,-1
 507 343 l 1,2,-1
 507 175 l 1,3,-1
 338 175 l 1,0,-1
338 6 m 1,4,-1
 338 175 l 1,5,-1
 507 175 l 1,6,7
 507 176 507 176 507 6 c 1,8,-1
 338 6 l 1,4,-1
EndSplineSet
Validated: 37
EndChar

StartChar: slash
Encoding: 47 47 48
Width: 1182
VWidth: 2708
GlyphClass: 1
Flags: W
LayerCount: 2
Fore
SplineSet
845 1357 m 1,0,-1
 845 1526 l 1,1,-1
 1014 1526 l 1,2,-1
 1014 1357 l 1,3,-1
 845 1357 l 1,0,-1
845 1188 m 1,4,-1
 845 1357 l 1,5,-1
 1014 1357 l 1,6,-1
 1014 1188 l 1,7,-1
 845 1188 l 1,4,-1
675 1020 m 1,8,-1
 675 1188 l 1,9,-1
 845 1188 l 1,10,-1
 845 1020 l 1,11,-1
 675 1020 l 1,8,-1
675 850 m 1,12,-1
 675 1020 l 1,13,-1
 845 1020 l 1,14,-1
 845 850 l 1,15,-1
 675 850 l 1,12,-1
507 681 m 1,16,-1
 507 850 l 1,17,-1
 675 850 l 1,18,-1
 675 681 l 1,19,-1
 507 681 l 1,16,-1
507 513 m 1,20,-1
 507 681 l 1,21,-1
 675 681 l 1,22,-1
 675 513 l 1,23,-1
 507 513 l 1,20,-1
338 343 m 1,24,-1
 338 513 l 1,25,-1
 507 513 l 1,26,-1
 507 343 l 1,27,-1
 338 343 l 1,24,-1
338 175 m 1,28,-1
 338 343 l 1,29,-1
 507 343 l 1,30,-1
 507 175 l 1,31,-1
 338 175 l 1,28,-1
169 6 m 1,32,-1
 169 175 l 1,33,-1
 338 175 l 1,34,35
 338 176 338 176 338 6 c 1,36,-1
 169 6 l 1,32,-1
169 -164 m 1,37,-1
 169 6 l 1,38,-1
 338 6 l 1,39,-1
 338 -164 l 1,40,-1
 169 -164 l 1,37,-1
EndSplineSet
Validated: 37
EndChar

StartChar: zero
Encoding: 48 48 49
Width: 1182
VWidth: 2708
GlyphClass: 1
Flags: W
LayerCount: 2
Fore
SplineSet
338 1188 m 1,0,-1
 338 1357 l 1,1,-1
 507 1357 l 1,2,-1
 507 1188 l 1,3,-1
 338 1188 l 1,0,-1
507 1188 m 1,4,-1
 507 1357 l 1,5,-1
 675 1357 l 1,6,-1
 675 1188 l 1,7,-1
 507 1188 l 1,4,-1
675 1188 m 1,8,-1
 675 1357 l 1,9,-1
 845 1357 l 1,10,-1
 845 1188 l 1,11,-1
 675 1188 l 1,8,-1
169 1020 m 1,12,-1
 169 1188 l 1,13,-1
 338 1188 l 1,14,-1
 338 1020 l 1,15,-1
 169 1020 l 1,12,-1
845 1020 m 1,16,-1
 845 1188 l 1,17,-1
 1014 1188 l 1,18,-1
 1014 1020 l 1,19,-1
 845 1020 l 1,16,-1
169 850 m 1,20,-1
 169 1020 l 1,21,-1
 338 1020 l 1,22,-1
 338 850 l 1,23,-1
 169 850 l 1,20,-1
845 850 m 1,24,-1
 845 1020 l 1,25,-1
 1014 1020 l 1,26,-1
 1014 850 l 1,27,-1
 845 850 l 1,24,-1
169 681 m 1,28,-1
 169 850 l 1,29,-1
 338 850 l 1,30,-1
 338 681 l 1,31,-1
 169 681 l 1,28,-1
507 681 m 1,32,-1
 507 850 l 1,33,-1
 675 850 l 1,34,-1
 675 681 l 1,35,-1
 507 681 l 1,32,-1
845 681 m 1,36,-1
 845 850 l 1,37,-1
 1014 850 l 1,38,-1
 1014 681 l 1,39,-1
 845 681 l 1,36,-1
169 513 m 1,40,-1
 169 681 l 1,41,-1
 338 681 l 1,42,-1
 338 513 l 1,43,-1
 169 513 l 1,40,-1
507 513 m 1,44,-1
 507 681 l 1,45,-1
 675 681 l 1,46,-1
 675 513 l 1,47,-1
 507 513 l 1,44,-1
845 513 m 1,48,-1
 845 681 l 1,49,-1
 1014 681 l 1,50,-1
 1014 513 l 1,51,-1
 845 513 l 1,48,-1
169 343 m 1,52,-1
 169 513 l 1,53,-1
 338 513 l 1,54,-1
 338 343 l 1,55,-1
 169 343 l 1,52,-1
845 343 m 1,56,-1
 845 513 l 1,57,-1
 1014 513 l 1,58,-1
 1014 343 l 1,59,-1
 845 343 l 1,56,-1
169 175 m 1,60,-1
 169 343 l 1,61,-1
 338 343 l 1,62,-1
 338 175 l 1,63,-1
 169 175 l 1,60,-1
845 175 m 1,64,-1
 845 343 l 1,65,-1
 1014 343 l 1,66,-1
 1014 175 l 1,67,-1
 845 175 l 1,64,-1
338 6 m 1,68,-1
 338 175 l 1,69,-1
 507 175 l 1,70,71
 507 176 507 176 507 6 c 1,72,-1
 338 6 l 1,68,-1
507 6 m 1,73,-1
 507 175 l 1,74,-1
 675 175 l 1,75,76
 675 176 675 176 675 6 c 1,77,-1
 507 6 l 1,73,-1
675 6 m 1,78,-1
 675 175 l 1,79,-1
 845 175 l 1,80,81
 845 176 845 176 845 6 c 1,82,-1
 675 6 l 1,78,-1
EndSplineSet
Validated: 37
EndChar

StartChar: one
Encoding: 49 49 50
Width: 1182
VWidth: 2708
GlyphClass: 1
Flags: W
LayerCount: 2
Fore
SplineSet
507 1188 m 1,0,-1
 507 1357 l 1,1,-1
 675 1357 l 1,2,-1
 675 1188 l 1,3,-1
 507 1188 l 1,0,-1
338 1020 m 1,4,-1
 338 1188 l 1,5,-1
 507 1188 l 1,6,-1
 507 1020 l 1,7,-1
 338 1020 l 1,4,-1
507 1020 m 1,8,-1
 507 1188 l 1,9,-1
 675 1188 l 1,10,-1
 675 1020 l 1,11,-1
 507 1020 l 1,8,-1
169 850 m 1,12,-1
 169 1020 l 1,13,-1
 338 1020 l 1,14,-1
 338 850 l 1,15,-1
 169 850 l 1,12,-1
507 850 m 1,16,-1
 507 1020 l 1,17,-1
 675 1020 l 1,18,-1
 675 850 l 1,19,-1
 507 850 l 1,16,-1
507 681 m 1,20,-1
 507 850 l 1,21,-1
 675 850 l 1,22,-1
 675 681 l 1,23,-1
 507 681 l 1,20,-1
507 513 m 1,24,-1
 507 681 l 1,25,-1
 675 681 l 1,26,-1
 675 513 l 1,27,-1
 507 513 l 1,24,-1
507 343 m 1,28,-1
 507 513 l 1,29,-1
 675 513 l 1,30,-1
 675 343 l 1,31,-1
 507 343 l 1,28,-1
507 175 m 1,32,-1
 507 343 l 1,33,-1
 675 343 l 1,34,-1
 675 175 l 1,35,-1
 507 175 l 1,32,-1
169 6 m 1,36,-1
 169 175 l 1,37,-1
 338 175 l 1,38,39
 338 176 338 176 338 6 c 1,40,-1
 169 6 l 1,36,-1
338 6 m 1,41,-1
 338 175 l 1,42,-1
 507 175 l 1,43,44
 507 176 507 176 507 6 c 1,45,-1
 338 6 l 1,41,-1
507 6 m 1,46,-1
 507 175 l 1,47,-1
 675 175 l 1,48,49
 675 176 675 176 675 6 c 1,50,-1
 507 6 l 1,46,-1
675 6 m 1,51,-1
 675 175 l 1,52,-1
 845 175 l 1,53,54
 845 176 845 176 845 6 c 1,55,-1
 675 6 l 1,51,-1
845 6 m 1,56,-1
 845 175 l 1,57,-1
 1014 175 l 1,58,59
 1014 176 1014 176 1014 6 c 1,60,-1
 845 6 l 1,56,-1
EndSplineSet
Validated: 37
EndChar

StartChar: two
Encoding: 50 50 51
Width: 1182
VWidth: 2708
GlyphClass: 1
Flags: W
LayerCount: 2
Fore
SplineSet
338 1188 m 1,0,-1
 338 1357 l 1,1,-1
 507 1357 l 1,2,-1
 507 1188 l 1,3,-1
 338 1188 l 1,0,-1
507 1188 m 1,4,-1
 507 1357 l 1,5,-1
 675 1357 l 1,6,-1
 675 1188 l 1,7,-1
 507 1188 l 1,4,-1
675 1188 m 1,8,-1
 675 1357 l 1,9,-1
 845 1357 l 1,10,-1
 845 1188 l 1,11,-1
 675 1188 l 1,8,-1
169 1020 m 1,12,-1
 169 1188 l 1,13,-1
 338 1188 l 1,14,-1
 338 1020 l 1,15,-1
 169 1020 l 1,12,-1
845 1020 m 1,16,-1
 845 1188 l 1,17,-1
 1014 1188 l 1,18,-1
 1014 1020 l 1,19,-1
 845 1020 l 1,16,-1
845 850 m 1,20,-1
 845 1020 l 1,21,-1
 1014 1020 l 1,22,-1
 1014 850 l 1,23,-1
 845 850 l 1,20,-1
675 681 m 1,24,-1
 675 850 l 1,25,-1
 845 850 l 1,26,-1
 845 681 l 1,27,-1
 675 681 l 1,24,-1
507 513 m 1,28,-1
 507 681 l 1,29,-1
 675 681 l 1,30,-1
 675 513 l 1,31,-1
 507 513 l 1,28,-1
338 343 m 1,32,-1
 338 513 l 1,33,-1
 507 513 l 1,34,-1
 507 343 l 1,35,-1
 338 343 l 1,32,-1
169 175 m 1,36,-1
 169 343 l 1,37,-1
 338 343 l 1,38,-1
 338 175 l 1,39,-1
 169 175 l 1,36,-1
169 6 m 1,40,-1
 169 175 l 1,41,-1
 338 175 l 1,42,43
 338 176 338 176 338 6 c 1,44,-1
 169 6 l 1,40,-1
338 6 m 1,45,-1
 338 175 l 1,46,-1
 507 175 l 1,47,48
 507 176 507 176 507 6 c 1,49,-1
 338 6 l 1,45,-1
507 6 m 1,50,-1
 507 175 l 1,51,-1
 675 175 l 1,52,53
 675 176 675 176 675 6 c 1,54,-1
 507 6 l 1,50,-1
675 6 m 1,55,-1
 675 175 l 1,56,-1
 845 175 l 1,57,58
 845 176 845 176 845 6 c 1,59,-1
 675 6 l 1,55,-1
845 6 m 1,60,-1
 845 175 l 1,61,-1
 1014 175 l 1,62,63
 1014 176 1014 176 1014 6 c 1,64,-1
 845 6 l 1,60,-1
EndSplineSet
Validated: 37
EndChar

StartChar: three
Encoding: 51 51 52
Width: 1182
VWidth: 2708
GlyphClass: 1
Flags: W
LayerCount: 2
Fore
SplineSet
338 1188 m 1,0,-1
 338 1357 l 1,1,-1
 507 1357 l 1,2,-1
 507 1188 l 1,3,-1
 338 1188 l 1,0,-1
507 1188 m 1,4,-1
 507 1357 l 1,5,-1
 675 1357 l 1,6,-1
 675 1188 l 1,7,-1
 507 1188 l 1,4,-1
675 1188 m 1,8,-1
 675 1357 l 1,9,-1
 845 1357 l 1,10,-1
 845 1188 l 1,11,-1
 675 1188 l 1,8,-1
169 1020 m 1,12,-1
 169 1188 l 1,13,-1
 338 1188 l 1,14,-1
 338 1020 l 1,15,-1
 169 1020 l 1,12,-1
845 1020 m 1,16,-1
 845 1188 l 1,17,-1
 1014 1188 l 1,18,-1
 1014 1020 l 1,19,-1
 845 1020 l 1,16,-1
845 850 m 1,20,-1
 845 1020 l 1,21,-1
 1014 1020 l 1,22,-1
 1014 850 l 1,23,-1
 845 850 l 1,20,-1
507 681 m 1,24,-1
 507 850 l 1,25,-1
 675 850 l 1,26,-1
 675 681 l 1,27,-1
 507 681 l 1,24,-1
675 681 m 1,28,-1
 675 850 l 1,29,-1
 845 850 l 1,30,-1
 845 681 l 1,31,-1
 675 681 l 1,28,-1
845 513 m 1,32,-1
 845 681 l 1,33,-1
 1014 681 l 1,34,-1
 1014 513 l 1,35,-1
 845 513 l 1,32,-1
845 343 m 1,36,-1
 845 513 l 1,37,-1
 1014 513 l 1,38,-1
 1014 343 l 1,39,-1
 845 343 l 1,36,-1
169 175 m 1,40,-1
 169 343 l 1,41,-1
 338 343 l 1,42,-1
 338 175 l 1,43,-1
 169 175 l 1,40,-1
845 175 m 1,44,-1
 845 343 l 1,45,-1
 1014 343 l 1,46,-1
 1014 175 l 1,47,-1
 845 175 l 1,44,-1
338 6 m 1,48,-1
 338 175 l 1,49,-1
 507 175 l 1,50,51
 507 176 507 176 507 6 c 1,52,-1
 338 6 l 1,48,-1
507 6 m 1,53,-1
 507 175 l 1,54,-1
 675 175 l 1,55,56
 675 176 675 176 675 6 c 1,57,-1
 507 6 l 1,53,-1
675 6 m 1,58,-1
 675 175 l 1,59,-1
 845 175 l 1,60,61
 845 176 845 176 845 6 c 1,62,-1
 675 6 l 1,58,-1
EndSplineSet
Validated: 37
EndChar

StartChar: four
Encoding: 52 52 53
Width: 1182
VWidth: 2708
GlyphClass: 1
Flags: W
LayerCount: 2
Fore
SplineSet
845 1188 m 1,0,-1
 845 1357 l 1,1,-1
 1014 1357 l 1,2,-1
 1014 1188 l 1,3,-1
 845 1188 l 1,0,-1
675 1020 m 1,4,-1
 675 1188 l 1,5,-1
 845 1188 l 1,6,-1
 845 1020 l 1,7,-1
 675 1020 l 1,4,-1
845 1020 m 1,8,-1
 845 1188 l 1,9,-1
 1014 1188 l 1,10,-1
 1014 1020 l 1,11,-1
 845 1020 l 1,8,-1
507 850 m 1,12,-1
 507 1020 l 1,13,-1
 675 1020 l 1,14,-1
 675 850 l 1,15,-1
 507 850 l 1,12,-1
845 850 m 1,16,-1
 845 1020 l 1,17,-1
 1014 1020 l 1,18,-1
 1014 850 l 1,19,-1
 845 850 l 1,16,-1
338 681 m 1,20,-1
 338 850 l 1,21,-1
 507 850 l 1,22,-1
 507 681 l 1,23,-1
 338 681 l 1,20,-1
845 681 m 1,24,-1
 845 850 l 1,25,-1
 1014 850 l 1,26,-1
 1014 681 l 1,27,-1
 845 681 l 1,24,-1
169 513 m 1,28,-1
 169 681 l 1,29,-1
 338 681 l 1,30,-1
 338 513 l 1,31,-1
 169 513 l 1,28,-1
845 513 m 1,32,-1
 845 681 l 1,33,-1
 1014 681 l 1,34,-1
 1014 513 l 1,35,-1
 845 513 l 1,32,-1
169 343 m 1,36,-1
 169 513 l 1,37,-1
 338 513 l 1,38,-1
 338 343 l 1,39,-1
 169 343 l 1,36,-1
338 343 m 1,40,-1
 338 513 l 1,41,-1
 507 513 l 1,42,-1
 507 343 l 1,43,-1
 338 343 l 1,40,-1
507 343 m 1,44,-1
 507 513 l 1,45,-1
 675 513 l 1,46,-1
 675 343 l 1,47,-1
 507 343 l 1,44,-1
675 343 m 1,48,-1
 675 513 l 1,49,-1
 845 513 l 1,50,-1
 845 343 l 1,51,-1
 675 343 l 1,48,-1
845 343 m 1,52,-1
 845 513 l 1,53,-1
 1014 513 l 1,54,-1
 1014 343 l 1,55,-1
 845 343 l 1,52,-1
1014 343 m 1,56,-1
 1014 513 l 1,57,-1
 1182 513 l 1,58,-1
 1182 343 l 1,59,-1
 1014 343 l 1,56,-1
845 175 m 1,60,-1
 845 343 l 1,61,-1
 1014 343 l 1,62,-1
 1014 175 l 1,63,-1
 845 175 l 1,60,-1
845 6 m 1,64,-1
 845 175 l 1,65,-1
 1014 175 l 1,66,67
 1014 176 1014 176 1014 6 c 1,68,-1
 845 6 l 1,64,-1
EndSplineSet
Validated: 37
EndChar

StartChar: five
Encoding: 53 53 54
Width: 1182
VWidth: 2701
GlyphClass: 1
Flags: W
LayerCount: 2
Fore
SplineSet
169 1181 m 1,0,-1
 169 1351 l 1,1,-1
 338 1351 l 1,2,-1
 338 1181 l 1,3,-1
 169 1181 l 1,0,-1
338 1181 m 1,4,-1
 338 1351 l 1,5,-1
 507 1351 l 1,6,-1
 507 1181 l 1,7,-1
 338 1181 l 1,4,-1
507 1181 m 1,8,-1
 507 1351 l 1,9,-1
 675 1351 l 1,10,-1
 675 1181 l 1,11,-1
 507 1181 l 1,8,-1
675 1181 m 1,12,-1
 675 1351 l 1,13,-1
 845 1351 l 1,14,-1
 845 1181 l 1,15,-1
 675 1181 l 1,12,-1
845 1181 m 1,16,-1
 845 1351 l 1,17,-1
 1014 1351 l 1,18,-1
 1014 1181 l 1,19,-1
 845 1181 l 1,16,-1
169 1013 m 1,20,-1
 169 1181 l 1,21,-1
 338 1181 l 1,22,-1
 338 1013 l 1,23,-1
 169 1013 l 1,20,-1
169 844 m 1,24,-1
 169 1013 l 1,25,-1
 338 1013 l 1,26,-1
 338 844 l 1,27,-1
 169 844 l 1,24,-1
169 674 m 1,28,-1
 169 844 l 1,29,-1
 338 844 l 1,30,-1
 338 674 l 1,31,-1
 169 674 l 1,28,-1
338 674 m 1,32,-1
 338 844 l 1,33,-1
 507 844 l 1,34,-1
 507 674 l 1,35,-1
 338 674 l 1,32,-1
507 674 m 1,36,-1
 507 844 l 1,37,-1
 675 844 l 1,38,-1
 675 674 l 1,39,-1
 507 674 l 1,36,-1
675 674 m 1,40,-1
 675 844 l 1,41,-1
 845 844 l 1,42,-1
 845 674 l 1,43,-1
 675 674 l 1,40,-1
845 506 m 1,44,-1
 845 674 l 1,45,-1
 1014 674 l 1,46,-1
 1014 506 l 1,47,-1
 845 506 l 1,44,-1
845 337 m 1,48,-1
 845 506 l 1,49,-1
 1014 506 l 1,50,-1
 1014 337 l 1,51,-1
 845 337 l 1,48,-1
169 168 m 1,52,-1
 169 337 l 1,53,-1
 338 337 l 1,54,-1
 338 168 l 1,55,-1
 169 168 l 1,52,-1
845 168 m 1,56,-1
 845 337 l 1,57,-1
 1014 337 l 1,58,-1
 1014 168 l 1,59,-1
 845 168 l 1,56,-1
338 -1 m 1,60,-1
 338 168 l 1,61,-1
 507 168 l 1,62,-1
 507 -1 l 1,63,-1
 338 -1 l 1,60,-1
507 -1 m 1,64,-1
 507 168 l 1,65,-1
 675 168 l 1,66,-1
 675 -1 l 1,67,-1
 507 -1 l 1,64,-1
675 -1 m 1,68,-1
 675 168 l 1,69,-1
 845 168 l 1,70,-1
 845 -1 l 1,71,-1
 675 -1 l 1,68,-1
EndSplineSet
Validated: 5
EndChar

StartChar: six
Encoding: 54 54 55
Width: 1182
VWidth: 2708
GlyphClass: 1
Flags: W
LayerCount: 2
Fore
SplineSet
507 1188 m 1,0,-1
 507 1357 l 1,1,-1
 675 1357 l 1,2,-1
 675 1188 l 1,3,-1
 507 1188 l 1,0,-1
675 1188 m 1,4,-1
 675 1357 l 1,5,-1
 845 1357 l 1,6,-1
 845 1188 l 1,7,-1
 675 1188 l 1,4,-1
338 1020 m 1,8,-1
 338 1188 l 1,9,-1
 507 1188 l 1,10,-1
 507 1020 l 1,11,-1
 338 1020 l 1,8,-1
169 850 m 1,12,-1
 169 1020 l 1,13,-1
 338 1020 l 1,14,-1
 338 850 l 1,15,-1
 169 850 l 1,12,-1
169 681 m 1,16,-1
 169 850 l 1,17,-1
 338 850 l 1,18,-1
 338 681 l 1,19,-1
 169 681 l 1,16,-1
338 681 m 1,20,-1
 338 850 l 1,21,-1
 507 850 l 1,22,-1
 507 681 l 1,23,-1
 338 681 l 1,20,-1
507 681 m 1,24,-1
 507 850 l 1,25,-1
 675 850 l 1,26,-1
 675 681 l 1,27,-1
 507 681 l 1,24,-1
675 681 m 1,28,-1
 675 850 l 1,29,-1
 845 850 l 1,30,-1
 845 681 l 1,31,-1
 675 681 l 1,28,-1
169 513 m 1,32,-1
 169 681 l 1,33,-1
 338 681 l 1,34,-1
 338 513 l 1,35,-1
 169 513 l 1,32,-1
845 513 m 1,36,-1
 845 681 l 1,37,-1
 1014 681 l 1,38,-1
 1014 513 l 1,39,-1
 845 513 l 1,36,-1
169 343 m 1,40,-1
 169 513 l 1,41,-1
 338 513 l 1,42,-1
 338 343 l 1,43,-1
 169 343 l 1,40,-1
845 343 m 1,44,-1
 845 513 l 1,45,-1
 1014 513 l 1,46,-1
 1014 343 l 1,47,-1
 845 343 l 1,44,-1
169 175 m 1,48,-1
 169 343 l 1,49,-1
 338 343 l 1,50,-1
 338 175 l 1,51,-1
 169 175 l 1,48,-1
845 175 m 1,52,-1
 845 343 l 1,53,-1
 1014 343 l 1,54,-1
 1014 175 l 1,55,-1
 845 175 l 1,52,-1
338 6 m 1,56,-1
 338 175 l 1,57,-1
 507 175 l 1,58,59
 507 176 507 176 507 6 c 1,60,-1
 338 6 l 1,56,-1
507 6 m 1,61,-1
 507 175 l 1,62,-1
 675 175 l 1,63,64
 675 176 675 176 675 6 c 1,65,-1
 507 6 l 1,61,-1
675 6 m 1,66,-1
 675 175 l 1,67,-1
 845 175 l 1,68,69
 845 176 845 176 845 6 c 1,70,-1
 675 6 l 1,66,-1
EndSplineSet
Validated: 37
EndChar

StartChar: seven
Encoding: 55 55 56
Width: 1182
VWidth: 2708
GlyphClass: 1
Flags: W
LayerCount: 2
Fore
SplineSet
169 1188 m 1,0,-1
 169 1357 l 1,1,-1
 338 1357 l 1,2,-1
 338 1188 l 1,3,-1
 169 1188 l 1,0,-1
338 1188 m 1,4,-1
 338 1357 l 1,5,-1
 507 1357 l 1,6,-1
 507 1188 l 1,7,-1
 338 1188 l 1,4,-1
507 1188 m 1,8,-1
 507 1357 l 1,9,-1
 675 1357 l 1,10,-1
 675 1188 l 1,11,-1
 507 1188 l 1,8,-1
675 1188 m 1,12,-1
 675 1357 l 1,13,-1
 845 1357 l 1,14,-1
 845 1188 l 1,15,-1
 675 1188 l 1,12,-1
845 1188 m 1,16,-1
 845 1357 l 1,17,-1
 1014 1357 l 1,18,-1
 1014 1188 l 1,19,-1
 845 1188 l 1,16,-1
845 1020 m 1,20,-1
 845 1188 l 1,21,-1
 1014 1188 l 1,22,-1
 1014 1020 l 1,23,-1
 845 1020 l 1,20,-1
675 850 m 1,24,-1
 675 1020 l 1,25,-1
 845 1020 l 1,26,-1
 845 850 l 1,27,-1
 675 850 l 1,24,-1
675 681 m 1,28,-1
 675 850 l 1,29,-1
 845 850 l 1,30,-1
 845 681 l 1,31,-1
 675 681 l 1,28,-1
507 513 m 1,32,-1
 507 681 l 1,33,-1
 675 681 l 1,34,-1
 675 513 l 1,35,-1
 507 513 l 1,32,-1
507 343 m 1,36,-1
 507 513 l 1,37,-1
 675 513 l 1,38,-1
 675 343 l 1,39,-1
 507 343 l 1,36,-1
338 175 m 1,40,-1
 338 343 l 1,41,-1
 507 343 l 1,42,-1
 507 175 l 1,43,-1
 338 175 l 1,40,-1
338 6 m 1,44,-1
 338 175 l 1,45,-1
 507 175 l 1,46,47
 507 176 507 176 507 6 c 1,48,-1
 338 6 l 1,44,-1
EndSplineSet
Validated: 37
EndChar

StartChar: eight
Encoding: 56 56 57
Width: 1182
VWidth: 2708
GlyphClass: 1
Flags: W
LayerCount: 2
Fore
SplineSet
338 1188 m 1,0,-1
 338 1357 l 1,1,-1
 507 1357 l 1,2,-1
 507 1188 l 1,3,-1
 338 1188 l 1,0,-1
507 1188 m 1,4,-1
 507 1357 l 1,5,-1
 675 1357 l 1,6,-1
 675 1188 l 1,7,-1
 507 1188 l 1,4,-1
675 1188 m 1,8,-1
 675 1357 l 1,9,-1
 845 1357 l 1,10,-1
 845 1188 l 1,11,-1
 675 1188 l 1,8,-1
169 1020 m 1,12,-1
 169 1188 l 1,13,-1
 338 1188 l 1,14,-1
 338 1020 l 1,15,-1
 169 1020 l 1,12,-1
845 1020 m 1,16,-1
 845 1188 l 1,17,-1
 1014 1188 l 1,18,-1
 1014 1020 l 1,19,-1
 845 1020 l 1,16,-1
169 850 m 1,20,-1
 169 1020 l 1,21,-1
 338 1020 l 1,22,-1
 338 850 l 1,23,-1
 169 850 l 1,20,-1
845 850 m 1,24,-1
 845 1020 l 1,25,-1
 1014 1020 l 1,26,-1
 1014 850 l 1,27,-1
 845 850 l 1,24,-1
338 681 m 1,28,-1
 338 850 l 1,29,-1
 507 850 l 1,30,-1
 507 681 l 1,31,-1
 338 681 l 1,28,-1
507 681 m 1,32,-1
 507 850 l 1,33,-1
 675 850 l 1,34,-1
 675 681 l 1,35,-1
 507 681 l 1,32,-1
675 681 m 1,36,-1
 675 850 l 1,37,-1
 845 850 l 1,38,-1
 845 681 l 1,39,-1
 675 681 l 1,36,-1
169 513 m 1,40,-1
 169 681 l 1,41,-1
 338 681 l 1,42,-1
 338 513 l 1,43,-1
 169 513 l 1,40,-1
845 513 m 1,44,-1
 845 681 l 1,45,-1
 1014 681 l 1,46,-1
 1014 513 l 1,47,-1
 845 513 l 1,44,-1
169 343 m 1,48,-1
 169 513 l 1,49,-1
 338 513 l 1,50,-1
 338 343 l 1,51,-1
 169 343 l 1,48,-1
845 343 m 1,52,-1
 845 513 l 1,53,-1
 1014 513 l 1,54,-1
 1014 343 l 1,55,-1
 845 343 l 1,52,-1
169 175 m 1,56,-1
 169 343 l 1,57,-1
 338 343 l 1,58,-1
 338 175 l 1,59,-1
 169 175 l 1,56,-1
845 175 m 1,60,-1
 845 343 l 1,61,-1
 1014 343 l 1,62,-1
 1014 175 l 1,63,-1
 845 175 l 1,60,-1
338 6 m 1,64,-1
 338 175 l 1,65,-1
 507 175 l 1,66,67
 507 176 507 176 507 6 c 1,68,-1
 338 6 l 1,64,-1
507 6 m 1,69,-1
 507 175 l 1,70,-1
 675 175 l 1,71,72
 675 176 675 176 675 6 c 1,73,-1
 507 6 l 1,69,-1
675 6 m 1,74,-1
 675 175 l 1,75,-1
 845 175 l 1,76,77
 845 176 845 176 845 6 c 1,78,-1
 675 6 l 1,74,-1
EndSplineSet
Validated: 37
EndChar

StartChar: nine
Encoding: 57 57 58
Width: 1182
VWidth: 2708
GlyphClass: 1
Flags: W
LayerCount: 2
Fore
SplineSet
338 1188 m 1,0,-1
 338 1357 l 1,1,-1
 507 1357 l 1,2,-1
 507 1188 l 1,3,-1
 338 1188 l 1,0,-1
507 1188 m 1,4,-1
 507 1357 l 1,5,-1
 675 1357 l 1,6,-1
 675 1188 l 1,7,-1
 507 1188 l 1,4,-1
675 1188 m 1,8,-1
 675 1357 l 1,9,-1
 845 1357 l 1,10,-1
 845 1188 l 1,11,-1
 675 1188 l 1,8,-1
169 1020 m 1,12,-1
 169 1188 l 1,13,-1
 338 1188 l 1,14,-1
 338 1020 l 1,15,-1
 169 1020 l 1,12,-1
845 1020 m 1,16,-1
 845 1188 l 1,17,-1
 1014 1188 l 1,18,-1
 1014 1020 l 1,19,-1
 845 1020 l 1,16,-1
169 850 m 1,20,-1
 169 1020 l 1,21,-1
 338 1020 l 1,22,-1
 338 850 l 1,23,-1
 169 850 l 1,20,-1
845 850 m 1,24,-1
 845 1020 l 1,25,-1
 1014 1020 l 1,26,-1
 1014 850 l 1,27,-1
 845 850 l 1,24,-1
169 681 m 1,28,-1
 169 850 l 1,29,-1
 338 850 l 1,30,-1
 338 681 l 1,31,-1
 169 681 l 1,28,-1
845 681 m 1,32,-1
 845 850 l 1,33,-1
 1014 850 l 1,34,-1
 1014 681 l 1,35,-1
 845 681 l 1,32,-1
338 513 m 1,36,-1
 338 681 l 1,37,-1
 507 681 l 1,38,-1
 507 513 l 1,39,-1
 338 513 l 1,36,-1
507 513 m 1,40,-1
 507 681 l 1,41,-1
 675 681 l 1,42,-1
 675 513 l 1,43,-1
 507 513 l 1,40,-1
675 513 m 1,44,-1
 675 681 l 1,45,-1
 845 681 l 1,46,-1
 845 513 l 1,47,-1
 675 513 l 1,44,-1
845 513 m 1,48,-1
 845 681 l 1,49,-1
 1014 681 l 1,50,-1
 1014 513 l 1,51,-1
 845 513 l 1,48,-1
845 343 m 1,52,-1
 845 513 l 1,53,-1
 1014 513 l 1,54,-1
 1014 343 l 1,55,-1
 845 343 l 1,52,-1
675 175 m 1,56,-1
 675 343 l 1,57,-1
 845 343 l 1,58,-1
 845 175 l 1,59,-1
 675 175 l 1,56,-1
338 6 m 1,60,-1
 338 175 l 1,61,-1
 507 175 l 1,62,63
 507 176 507 176 507 6 c 1,64,-1
 338 6 l 1,60,-1
507 6 m 1,65,-1
 507 175 l 1,66,-1
 675 175 l 1,67,68
 675 176 675 176 675 6 c 1,69,-1
 507 6 l 1,65,-1
EndSplineSet
Validated: 37
EndChar

StartChar: colon
Encoding: 58 58 59
Width: 1182
VWidth: 2708
GlyphClass: 1
Flags: W
LayerCount: 2
Fore
SplineSet
507 850 m 1,0,-1
 507 1020 l 1,1,-1
 675 1020 l 1,2,-1
 675 850 l 1,3,-1
 507 850 l 1,0,-1
507 681 m 1,4,-1
 507 850 l 1,5,-1
 675 850 l 1,6,-1
 675 681 l 1,7,-1
 507 681 l 1,4,-1
507 175 m 1,8,-1
 507 343 l 1,9,-1
 675 343 l 1,10,-1
 675 175 l 1,11,-1
 507 175 l 1,8,-1
507 6 m 1,12,-1
 507 175 l 1,13,-1
 675 175 l 1,14,15
 675 176 675 176 675 6 c 1,16,-1
 507 6 l 1,12,-1
EndSplineSet
Validated: 37
EndChar

StartChar: semicolon
Encoding: 59 59 60
Width: 1182
VWidth: 2708
GlyphClass: 1
Flags: W
LayerCount: 2
Fore
SplineSet
338 850 m 1,0,-1
 338 1020 l 1,1,-1
 507 1020 l 1,2,-1
 507 850 l 1,3,-1
 338 850 l 1,0,-1
338 681 m 1,4,-1
 338 850 l 1,5,-1
 507 850 l 1,6,-1
 507 681 l 1,7,-1
 338 681 l 1,4,-1
338 175 m 1,8,-1
 338 343 l 1,9,-1
 507 343 l 1,10,-1
 507 175 l 1,11,-1
 338 175 l 1,8,-1
338 6 m 1,12,-1
 338 175 l 1,13,-1
 507 175 l 1,14,15
 507 176 507 176 507 6 c 1,16,-1
 338 6 l 1,12,-1
338 -164 m 1,17,-1
 338 6 l 1,18,-1
 507 6 l 1,19,-1
 507 -164 l 1,20,-1
 338 -164 l 1,17,-1
169 -332 m 1,21,-1
 169 -164 l 1,22,-1
 338 -164 l 1,23,-1
 338 -332 l 1,24,-1
 169 -332 l 1,21,-1
EndSplineSet
Validated: 37
EndChar

StartChar: less
Encoding: 60 60 61
Width: 1182
VWidth: 2708
GlyphClass: 1
Flags: W
LayerCount: 2
Fore
SplineSet
675 850 m 1,0,-1
 675 1020 l 1,1,-1
 845 1020 l 1,2,-1
 845 850 l 1,3,-1
 675 850 l 1,0,-1
845 850 m 1,4,-1
 845 1020 l 1,5,-1
 1014 1020 l 1,6,-1
 1014 850 l 1,7,-1
 845 850 l 1,4,-1
338 681 m 1,8,-1
 338 850 l 1,9,-1
 507 850 l 1,10,-1
 507 681 l 1,11,-1
 338 681 l 1,8,-1
507 681 m 1,12,-1
 507 850 l 1,13,-1
 675 850 l 1,14,-1
 675 681 l 1,15,-1
 507 681 l 1,12,-1
0 513 m 1,16,-1
 0 681 l 1,17,-1
 169 681 l 1,18,-1
 169 513 l 1,19,-1
 0 513 l 1,16,-1
169 513 m 1,20,-1
 169 681 l 1,21,-1
 338 681 l 1,22,-1
 338 513 l 1,23,-1
 169 513 l 1,20,-1
338 343 m 1,24,-1
 338 513 l 1,25,-1
 507 513 l 1,26,-1
 507 343 l 1,27,-1
 338 343 l 1,24,-1
507 343 m 1,28,-1
 507 513 l 1,29,-1
 675 513 l 1,30,-1
 675 343 l 1,31,-1
 507 343 l 1,28,-1
675 175 m 1,32,-1
 675 343 l 1,33,-1
 845 343 l 1,34,-1
 845 175 l 1,35,-1
 675 175 l 1,32,-1
845 175 m 1,36,-1
 845 343 l 1,37,-1
 1014 343 l 1,38,-1
 1014 175 l 1,39,-1
 845 175 l 1,36,-1
EndSplineSet
Validated: 5
EndChar

StartChar: equal
Encoding: 61 61 62
Width: 1182
VWidth: 2708
GlyphClass: 1
Flags: W
LayerCount: 2
Fore
SplineSet
169 681 m 1,0,-1
 169 850 l 1,1,-1
 338 850 l 1,2,-1
 338 681 l 1,3,-1
 169 681 l 1,0,-1
338 681 m 1,4,-1
 338 850 l 1,5,-1
 507 850 l 1,6,-1
 507 681 l 1,7,-1
 338 681 l 1,4,-1
507 681 m 1,8,-1
 507 850 l 1,9,-1
 675 850 l 1,10,-1
 675 681 l 1,11,-1
 507 681 l 1,8,-1
675 681 m 1,12,-1
 675 850 l 1,13,-1
 845 850 l 1,14,-1
 845 681 l 1,15,-1
 675 681 l 1,12,-1
845 681 m 1,16,-1
 845 850 l 1,17,-1
 1014 850 l 1,18,-1
 1014 681 l 1,19,-1
 845 681 l 1,16,-1
1014 681 m 1,20,-1
 1014 850 l 1,21,-1
 1182 850 l 1,22,-1
 1182 681 l 1,23,-1
 1014 681 l 1,20,-1
169 343 m 1,24,-1
 169 513 l 1,25,-1
 338 513 l 1,26,-1
 338 343 l 1,27,-1
 169 343 l 1,24,-1
338 343 m 1,28,-1
 338 513 l 1,29,-1
 507 513 l 1,30,-1
 507 343 l 1,31,-1
 338 343 l 1,28,-1
507 343 m 1,32,-1
 507 513 l 1,33,-1
 675 513 l 1,34,-1
 675 343 l 1,35,-1
 507 343 l 1,32,-1
675 343 m 1,36,-1
 675 513 l 1,37,-1
 845 513 l 1,38,-1
 845 343 l 1,39,-1
 675 343 l 1,36,-1
845 343 m 1,40,-1
 845 513 l 1,41,-1
 1014 513 l 1,42,-1
 1014 343 l 1,43,-1
 845 343 l 1,40,-1
1014 343 m 1,44,-1
 1014 513 l 1,45,-1
 1182 513 l 1,46,-1
 1182 343 l 1,47,-1
 1014 343 l 1,44,-1
EndSplineSet
Validated: 5
EndChar

StartChar: greater
Encoding: 62 62 63
Width: 1182
VWidth: 2708
GlyphClass: 1
Flags: W
LayerCount: 2
Fore
SplineSet
169 850 m 1,0,-1
 169 1020 l 1,1,-1
 338 1020 l 1,2,-1
 338 850 l 1,3,-1
 169 850 l 1,0,-1
338 850 m 1,4,-1
 338 1020 l 1,5,-1
 507 1020 l 1,6,-1
 507 850 l 1,7,-1
 338 850 l 1,4,-1
507 681 m 1,8,-1
 507 850 l 1,9,-1
 675 850 l 1,10,-1
 675 681 l 1,11,-1
 507 681 l 1,8,-1
675 681 m 1,12,-1
 675 850 l 1,13,-1
 845 850 l 1,14,-1
 845 681 l 1,15,-1
 675 681 l 1,12,-1
845 513 m 1,16,-1
 845 681 l 1,17,-1
 1014 681 l 1,18,-1
 1014 513 l 1,19,-1
 845 513 l 1,16,-1
1014 513 m 1,20,-1
 1014 681 l 1,21,-1
 1182 681 l 1,22,-1
 1182 513 l 1,23,-1
 1014 513 l 1,20,-1
507 343 m 1,24,-1
 507 513 l 1,25,-1
 675 513 l 1,26,-1
 675 343 l 1,27,-1
 507 343 l 1,24,-1
675 343 m 1,28,-1
 675 513 l 1,29,-1
 845 513 l 1,30,-1
 845 343 l 1,31,-1
 675 343 l 1,28,-1
169 175 m 1,32,-1
 169 343 l 1,33,-1
 338 343 l 1,34,-1
 338 175 l 1,35,-1
 169 175 l 1,32,-1
338 175 m 1,36,-1
 338 343 l 1,37,-1
 507 343 l 1,38,-1
 507 175 l 1,39,-1
 338 175 l 1,36,-1
EndSplineSet
Validated: 5
EndChar

StartChar: question
Encoding: 63 63 64
Width: 1182
VWidth: 2708
GlyphClass: 1
Flags: W
LayerCount: 2
Fore
SplineSet
338 1188 m 1,0,-1
 338 1357 l 1,1,-1
 507 1357 l 1,2,-1
 507 1188 l 1,3,-1
 338 1188 l 1,0,-1
507 1188 m 1,4,-1
 507 1357 l 1,5,-1
 675 1357 l 1,6,-1
 675 1188 l 1,7,-1
 507 1188 l 1,4,-1
675 1188 m 1,8,-1
 675 1357 l 1,9,-1
 845 1357 l 1,10,-1
 845 1188 l 1,11,-1
 675 1188 l 1,8,-1
169 1020 m 1,12,-1
 169 1188 l 1,13,-1
 338 1188 l 1,14,-1
 338 1020 l 1,15,-1
 169 1020 l 1,12,-1
845 1020 m 1,16,-1
 845 1188 l 1,17,-1
 1014 1188 l 1,18,-1
 1014 1020 l 1,19,-1
 845 1020 l 1,16,-1
845 850 m 1,20,-1
 845 1020 l 1,21,-1
 1014 1020 l 1,22,-1
 1014 850 l 1,23,-1
 845 850 l 1,20,-1
675 681 m 1,24,-1
 675 850 l 1,25,-1
 845 850 l 1,26,-1
 845 681 l 1,27,-1
 675 681 l 1,24,-1
507 513 m 1,28,-1
 507 681 l 1,29,-1
 675 681 l 1,30,-1
 675 513 l 1,31,-1
 507 513 l 1,28,-1
507 343 m 1,32,-1
 507 513 l 1,33,-1
 675 513 l 1,34,-1
 675 343 l 1,35,-1
 507 343 l 1,32,-1
507 6 m 1,36,-1
 507 175 l 1,37,-1
 675 175 l 1,38,39
 675 176 675 176 675 6 c 1,40,-1
 507 6 l 1,36,-1
EndSplineSet
Validated: 37
EndChar

StartChar: at
Encoding: 64 64 65
Width: 1182
VWidth: 2708
GlyphClass: 1
Flags: W
LayerCount: 2
Fore
SplineSet
338 1188 m 1,0,-1
 338 1357 l 1,1,-1
 507 1357 l 1,2,-1
 507 1188 l 1,3,-1
 338 1188 l 1,0,-1
507 1188 m 1,4,-1
 507 1357 l 1,5,-1
 675 1357 l 1,6,-1
 675 1188 l 1,7,-1
 507 1188 l 1,4,-1
675 1188 m 1,8,-1
 675 1357 l 1,9,-1
 845 1357 l 1,10,-1
 845 1188 l 1,11,-1
 675 1188 l 1,8,-1
169 1020 m 1,12,-1
 169 1188 l 1,13,-1
 338 1188 l 1,14,-1
 338 1020 l 1,15,-1
 169 1020 l 1,12,-1
845 1020 m 1,16,-1
 845 1188 l 1,17,-1
 1014 1188 l 1,18,-1
 1014 1020 l 1,19,-1
 845 1020 l 1,16,-1
0 850 m 1,20,-1
 0 1020 l 1,21,-1
 169 1020 l 1,22,-1
 169 850 l 1,23,-1
 0 850 l 1,20,-1
507 850 m 1,24,-1
 507 1020 l 1,25,-1
 675 1020 l 1,26,-1
 675 850 l 1,27,-1
 507 850 l 1,24,-1
675 850 m 1,28,-1
 675 1020 l 1,29,-1
 845 1020 l 1,30,-1
 845 850 l 1,31,-1
 675 850 l 1,28,-1
1014 850 m 1,32,-1
 1014 1020 l 1,33,-1
 1182 1020 l 1,34,-1
 1182 850 l 1,35,-1
 1014 850 l 1,32,-1
0 681 m 1,36,-1
 0 850 l 1,37,-1
 169 850 l 1,38,-1
 169 681 l 1,39,-1
 0 681 l 1,36,-1
338 681 m 1,40,-1
 338 850 l 1,41,-1
 507 850 l 1,42,-1
 507 681 l 1,43,-1
 338 681 l 1,40,-1
675 681 m 1,44,-1
 675 850 l 1,45,-1
 845 850 l 1,46,-1
 845 681 l 1,47,-1
 675 681 l 1,44,-1
1014 681 m 1,48,-1
 1014 850 l 1,49,-1
 1182 850 l 1,50,-1
 1182 681 l 1,51,-1
 1014 681 l 1,48,-1
0 513 m 1,52,-1
 0 681 l 1,53,-1
 169 681 l 1,54,-1
 169 513 l 1,55,-1
 0 513 l 1,52,-1
338 513 m 1,56,-1
 338 681 l 1,57,-1
 507 681 l 1,58,-1
 507 513 l 1,59,-1
 338 513 l 1,56,-1
675 513 m 1,60,-1
 675 681 l 1,61,-1
 845 681 l 1,62,-1
 845 513 l 1,63,-1
 675 513 l 1,60,-1
1014 513 m 1,64,-1
 1014 681 l 1,65,-1
 1182 681 l 1,66,-1
 1182 513 l 1,67,-1
 1014 513 l 1,64,-1
0 343 m 1,68,-1
 0 513 l 1,69,-1
 169 513 l 1,70,-1
 169 343 l 1,71,-1
 0 343 l 1,68,-1
507 343 m 1,72,-1
 507 513 l 1,73,-1
 675 513 l 1,74,-1
 675 343 l 1,75,-1
 507 343 l 1,72,-1
675 343 m 1,76,-1
 675 513 l 1,77,-1
 845 513 l 1,78,-1
 845 343 l 1,79,-1
 675 343 l 1,76,-1
845 343 m 1,80,-1
 845 513 l 1,81,-1
 1014 513 l 1,82,-1
 1014 343 l 1,83,-1
 845 343 l 1,80,-1
169 175 m 1,84,-1
 169 343 l 1,85,-1
 338 343 l 1,86,-1
 338 175 l 1,87,-1
 169 175 l 1,84,-1
338 6 m 1,88,-1
 338 175 l 1,89,-1
 507 175 l 1,90,91
 507 176 507 176 507 6 c 1,92,-1
 338 6 l 1,88,-1
507 6 m 1,93,-1
 507 175 l 1,94,-1
 675 175 l 1,95,96
 675 176 675 176 675 6 c 1,97,-1
 507 6 l 1,93,-1
675 6 m 1,98,-1
 675 175 l 1,99,-1
 845 175 l 1,100,101
 845 176 845 176 845 6 c 1,102,-1
 675 6 l 1,98,-1
845 6 m 1,103,-1
 845 175 l 1,104,-1
 1014 175 l 1,105,106
 1014 176 1014 176 1014 6 c 1,107,-1
 845 6 l 1,103,-1
EndSplineSet
Validated: 37
EndChar

StartChar: A
Encoding: 65 65 66
Width: 1182
VWidth: 2708
GlyphClass: 1
Flags: W
LayerCount: 2
Fore
SplineSet
507 1188 m 1,0,-1
 507 1357 l 1,1,-1
 675 1357 l 1,2,-1
 675 1188 l 1,3,-1
 507 1188 l 1,0,-1
675 1188 m 1,4,-1
 675 1357 l 1,5,-1
 845 1357 l 1,6,-1
 845 1188 l 1,7,-1
 675 1188 l 1,4,-1
507 1020 m 1,8,-1
 507 1188 l 1,9,-1
 675 1188 l 1,10,-1
 675 1020 l 1,11,-1
 507 1020 l 1,8,-1
675 1020 m 1,12,-1
 675 1188 l 1,13,-1
 845 1188 l 1,14,-1
 845 1020 l 1,15,-1
 675 1020 l 1,12,-1
338 850 m 1,16,-1
 338 1020 l 1,17,-1
 507 1020 l 1,18,-1
 507 850 l 1,19,-1
 338 850 l 1,16,-1
845 850 m 1,20,-1
 845 1020 l 1,21,-1
 1014 1020 l 1,22,-1
 1014 850 l 1,23,-1
 845 850 l 1,20,-1
338 681 m 1,24,-1
 338 850 l 1,25,-1
 507 850 l 1,26,-1
 507 681 l 1,27,-1
 338 681 l 1,24,-1
845 681 m 1,28,-1
 845 850 l 1,29,-1
 1014 850 l 1,30,-1
 1014 681 l 1,31,-1
 845 681 l 1,28,-1
338 513 m 1,32,-1
 338 681 l 1,33,-1
 507 681 l 1,34,-1
 507 513 l 1,35,-1
 338 513 l 1,32,-1
507 513 m 1,36,-1
 507 681 l 1,37,-1
 675 681 l 1,38,-1
 675 513 l 1,39,-1
 507 513 l 1,36,-1
675 513 m 1,40,-1
 675 681 l 1,41,-1
 845 681 l 1,42,-1
 845 513 l 1,43,-1
 675 513 l 1,40,-1
845 513 m 1,44,-1
 845 681 l 1,45,-1
 1014 681 l 1,46,-1
 1014 513 l 1,47,-1
 845 513 l 1,44,-1
169 343 m 1,48,-1
 169 513 l 1,49,-1
 338 513 l 1,50,-1
 338 343 l 1,51,-1
 169 343 l 1,48,-1
1014 343 m 1,52,-1
 1014 513 l 1,53,-1
 1182 513 l 1,54,-1
 1182 343 l 1,55,-1
 1014 343 l 1,52,-1
169 175 m 1,56,-1
 169 343 l 1,57,-1
 338 343 l 1,58,-1
 338 175 l 1,59,-1
 169 175 l 1,56,-1
1014 175 m 1,60,-1
 1014 343 l 1,61,-1
 1182 343 l 1,62,-1
 1182 175 l 1,63,-1
 1014 175 l 1,60,-1
169 6 m 1,64,-1
 169 175 l 1,65,-1
 338 175 l 1,66,67
 338 176 338 176 338 6 c 1,68,-1
 169 6 l 1,64,-1
1014 6 m 1,69,-1
 1014 175 l 1,70,-1
 1182 175 l 1,71,72
 1182 176 1182 176 1182 6 c 1,73,-1
 1014 6 l 1,69,-1
EndSplineSet
Validated: 37
EndChar

StartChar: B
Encoding: 66 66 67
Width: 1182
VWidth: 2708
GlyphClass: 1
Flags: W
LayerCount: 2
Fore
SplineSet
169 1188 m 1,0,-1
 169 1357 l 1,1,-1
 338 1357 l 1,2,-1
 338 1188 l 1,3,-1
 169 1188 l 1,0,-1
338 1188 m 1,4,-1
 338 1357 l 1,5,-1
 507 1357 l 1,6,-1
 507 1188 l 1,7,-1
 338 1188 l 1,4,-1
507 1188 m 1,8,-1
 507 1357 l 1,9,-1
 675 1357 l 1,10,-1
 675 1188 l 1,11,-1
 507 1188 l 1,8,-1
675 1188 m 1,12,-1
 675 1357 l 1,13,-1
 845 1357 l 1,14,-1
 845 1188 l 1,15,-1
 675 1188 l 1,12,-1
169 1020 m 1,16,-1
 169 1188 l 1,17,-1
 338 1188 l 1,18,-1
 338 1020 l 1,19,-1
 169 1020 l 1,16,-1
845 1020 m 1,20,-1
 845 1188 l 1,21,-1
 1014 1188 l 1,22,-1
 1014 1020 l 1,23,-1
 845 1020 l 1,20,-1
169 850 m 1,24,-1
 169 1020 l 1,25,-1
 338 1020 l 1,26,-1
 338 850 l 1,27,-1
 169 850 l 1,24,-1
845 850 m 1,28,-1
 845 1020 l 1,29,-1
 1014 1020 l 1,30,-1
 1014 850 l 1,31,-1
 845 850 l 1,28,-1
169 681 m 1,32,-1
 169 850 l 1,33,-1
 338 850 l 1,34,-1
 338 681 l 1,35,-1
 169 681 l 1,32,-1
338 681 m 1,36,-1
 338 850 l 1,37,-1
 507 850 l 1,38,-1
 507 681 l 1,39,-1
 338 681 l 1,36,-1
507 681 m 1,40,-1
 507 850 l 1,41,-1
 675 850 l 1,42,-1
 675 681 l 1,43,-1
 507 681 l 1,40,-1
675 681 m 1,44,-1
 675 850 l 1,45,-1
 845 850 l 1,46,-1
 845 681 l 1,47,-1
 675 681 l 1,44,-1
845 681 m 1,48,-1
 845 850 l 1,49,-1
 1014 850 l 1,50,-1
 1014 681 l 1,51,-1
 845 681 l 1,48,-1
169 513 m 1,52,-1
 169 681 l 1,53,-1
 338 681 l 1,54,-1
 338 513 l 1,55,-1
 169 513 l 1,52,-1
1014 513 m 1,56,-1
 1014 681 l 1,57,-1
 1182 681 l 1,58,-1
 1182 513 l 1,59,-1
 1014 513 l 1,56,-1
169 343 m 1,60,-1
 169 513 l 1,61,-1
 338 513 l 1,62,-1
 338 343 l 1,63,-1
 169 343 l 1,60,-1
1014 343 m 1,64,-1
 1014 513 l 1,65,-1
 1182 513 l 1,66,-1
 1182 343 l 1,67,-1
 1014 343 l 1,64,-1
169 175 m 1,68,-1
 169 343 l 1,69,-1
 338 343 l 1,70,-1
 338 175 l 1,71,-1
 169 175 l 1,68,-1
1014 175 m 1,72,-1
 1014 343 l 1,73,-1
 1182 343 l 1,74,-1
 1182 175 l 1,75,-1
 1014 175 l 1,72,-1
169 6 m 1,76,-1
 169 175 l 1,77,-1
 338 175 l 1,78,79
 338 176 338 176 338 6 c 1,80,-1
 169 6 l 1,76,-1
338 6 m 1,81,-1
 338 175 l 1,82,-1
 507 175 l 1,83,84
 507 176 507 176 507 6 c 1,85,-1
 338 6 l 1,81,-1
507 6 m 1,86,-1
 507 175 l 1,87,-1
 675 175 l 1,88,89
 675 176 675 176 675 6 c 1,90,-1
 507 6 l 1,86,-1
675 6 m 1,91,-1
 675 175 l 1,92,-1
 845 175 l 1,93,94
 845 176 845 176 845 6 c 1,95,-1
 675 6 l 1,91,-1
845 6 m 1,96,-1
 845 175 l 1,97,-1
 1014 175 l 1,98,99
 1014 176 1014 176 1014 6 c 1,100,-1
 845 6 l 1,96,-1
EndSplineSet
Validated: 37
EndChar

StartChar: C
Encoding: 67 67 68
Width: 1182
VWidth: 2708
GlyphClass: 1
Flags: W
LayerCount: 2
Fore
SplineSet
507 1188 m 1,0,-1
 507 1357 l 1,1,-1
 675 1357 l 1,2,-1
 675 1188 l 1,3,-1
 507 1188 l 1,0,-1
675 1188 m 1,4,-1
 675 1357 l 1,5,-1
 845 1357 l 1,6,-1
 845 1188 l 1,7,-1
 675 1188 l 1,4,-1
845 1188 m 1,8,-1
 845 1357 l 1,9,-1
 1014 1357 l 1,10,-1
 1014 1188 l 1,11,-1
 845 1188 l 1,8,-1
338 1020 m 1,12,-1
 338 1188 l 1,13,-1
 507 1188 l 1,14,-1
 507 1020 l 1,15,-1
 338 1020 l 1,12,-1
1014 1020 m 1,16,-1
 1014 1188 l 1,17,-1
 1182 1188 l 1,18,-1
 1182 1020 l 1,19,-1
 1014 1020 l 1,16,-1
169 850 m 1,20,-1
 169 1020 l 1,21,-1
 338 1020 l 1,22,-1
 338 850 l 1,23,-1
 169 850 l 1,20,-1
169 681 m 1,24,-1
 169 850 l 1,25,-1
 338 850 l 1,26,-1
 338 681 l 1,27,-1
 169 681 l 1,24,-1
169 513 m 1,28,-1
 169 681 l 1,29,-1
 338 681 l 1,30,-1
 338 513 l 1,31,-1
 169 513 l 1,28,-1
169 343 m 1,32,-1
 169 513 l 1,33,-1
 338 513 l 1,34,-1
 338 343 l 1,35,-1
 169 343 l 1,32,-1
338 175 m 1,36,-1
 338 343 l 1,37,-1
 507 343 l 1,38,-1
 507 175 l 1,39,-1
 338 175 l 1,36,-1
1014 175 m 1,40,-1
 1014 343 l 1,41,-1
 1182 343 l 1,42,-1
 1182 175 l 1,43,-1
 1014 175 l 1,40,-1
507 6 m 1,44,-1
 507 175 l 1,45,-1
 675 175 l 1,46,47
 675 176 675 176 675 6 c 1,48,-1
 507 6 l 1,44,-1
675 6 m 1,49,-1
 675 175 l 1,50,-1
 845 175 l 1,51,52
 845 176 845 176 845 6 c 1,53,-1
 675 6 l 1,49,-1
845 6 m 1,54,-1
 845 175 l 1,55,-1
 1014 175 l 1,56,57
 1014 176 1014 176 1014 6 c 1,58,-1
 845 6 l 1,54,-1
EndSplineSet
Validated: 37
EndChar

StartChar: D
Encoding: 68 68 69
Width: 1182
VWidth: 2708
GlyphClass: 1
Flags: W
LayerCount: 2
Fore
SplineSet
169 1188 m 1,0,-1
 169 1357 l 1,1,-1
 338 1357 l 1,2,-1
 338 1188 l 1,3,-1
 169 1188 l 1,0,-1
338 1188 m 1,4,-1
 338 1357 l 1,5,-1
 507 1357 l 1,6,-1
 507 1188 l 1,7,-1
 338 1188 l 1,4,-1
507 1188 m 1,8,-1
 507 1357 l 1,9,-1
 675 1357 l 1,10,-1
 675 1188 l 1,11,-1
 507 1188 l 1,8,-1
675 1188 m 1,12,-1
 675 1357 l 1,13,-1
 845 1357 l 1,14,-1
 845 1188 l 1,15,-1
 675 1188 l 1,12,-1
169 1020 m 1,16,-1
 169 1188 l 1,17,-1
 338 1188 l 1,18,-1
 338 1020 l 1,19,-1
 169 1020 l 1,16,-1
845 1020 m 1,20,-1
 845 1188 l 1,21,-1
 1014 1188 l 1,22,-1
 1014 1020 l 1,23,-1
 845 1020 l 1,20,-1
169 850 m 1,24,-1
 169 1020 l 1,25,-1
 338 1020 l 1,26,-1
 338 850 l 1,27,-1
 169 850 l 1,24,-1
1014 850 m 1,28,-1
 1014 1020 l 1,29,-1
 1182 1020 l 1,30,-1
 1182 850 l 1,31,-1
 1014 850 l 1,28,-1
169 681 m 1,32,-1
 169 850 l 1,33,-1
 338 850 l 1,34,-1
 338 681 l 1,35,-1
 169 681 l 1,32,-1
1014 681 m 1,36,-1
 1014 850 l 1,37,-1
 1182 850 l 1,38,-1
 1182 681 l 1,39,-1
 1014 681 l 1,36,-1
169 513 m 1,40,-1
 169 681 l 1,41,-1
 338 681 l 1,42,-1
 338 513 l 1,43,-1
 169 513 l 1,40,-1
1014 513 m 1,44,-1
 1014 681 l 1,45,-1
 1182 681 l 1,46,-1
 1182 513 l 1,47,-1
 1014 513 l 1,44,-1
169 343 m 1,48,-1
 169 513 l 1,49,-1
 338 513 l 1,50,-1
 338 343 l 1,51,-1
 169 343 l 1,48,-1
1014 343 m 1,52,-1
 1014 513 l 1,53,-1
 1182 513 l 1,54,-1
 1182 343 l 1,55,-1
 1014 343 l 1,52,-1
169 175 m 1,56,-1
 169 343 l 1,57,-1
 338 343 l 1,58,-1
 338 175 l 1,59,-1
 169 175 l 1,56,-1
845 175 m 1,60,-1
 845 343 l 1,61,-1
 1014 343 l 1,62,-1
 1014 175 l 1,63,-1
 845 175 l 1,60,-1
169 6 m 1,64,-1
 169 175 l 1,65,-1
 338 175 l 1,66,67
 338 176 338 176 338 6 c 1,68,-1
 169 6 l 1,64,-1
338 6 m 1,69,-1
 338 175 l 1,70,-1
 507 175 l 1,71,72
 507 176 507 176 507 6 c 1,73,-1
 338 6 l 1,69,-1
507 6 m 1,74,-1
 507 175 l 1,75,-1
 675 175 l 1,76,77
 675 176 675 176 675 6 c 1,78,-1
 507 6 l 1,74,-1
675 6 m 1,79,-1
 675 175 l 1,80,-1
 845 175 l 1,81,82
 845 176 845 176 845 6 c 1,83,-1
 675 6 l 1,79,-1
EndSplineSet
Validated: 37
EndChar

StartChar: E
Encoding: 69 69 70
Width: 1182
VWidth: 2708
GlyphClass: 1
Flags: W
LayerCount: 2
Fore
SplineSet
169 1188 m 1,0,-1
 169 1357 l 1,1,-1
 338 1357 l 1,2,-1
 338 1188 l 1,3,-1
 169 1188 l 1,0,-1
338 1188 m 1,4,-1
 338 1357 l 1,5,-1
 507 1357 l 1,6,-1
 507 1188 l 1,7,-1
 338 1188 l 1,4,-1
507 1188 m 1,8,-1
 507 1357 l 1,9,-1
 675 1357 l 1,10,-1
 675 1188 l 1,11,-1
 507 1188 l 1,8,-1
675 1188 m 1,12,-1
 675 1357 l 1,13,-1
 845 1357 l 1,14,-1
 845 1188 l 1,15,-1
 675 1188 l 1,12,-1
845 1188 m 1,16,-1
 845 1357 l 1,17,-1
 1014 1357 l 1,18,-1
 1014 1188 l 1,19,-1
 845 1188 l 1,16,-1
169 1020 m 1,20,-1
 169 1188 l 1,21,-1
 338 1188 l 1,22,-1
 338 1020 l 1,23,-1
 169 1020 l 1,20,-1
169 850 m 1,24,-1
 169 1020 l 1,25,-1
 338 1020 l 1,26,-1
 338 850 l 1,27,-1
 169 850 l 1,24,-1
169 681 m 1,28,-1
 169 850 l 1,29,-1
 338 850 l 1,30,-1
 338 681 l 1,31,-1
 169 681 l 1,28,-1
338 681 m 1,32,-1
 338 850 l 1,33,-1
 507 850 l 1,34,-1
 507 681 l 1,35,-1
 338 681 l 1,32,-1
507 681 m 1,36,-1
 507 850 l 1,37,-1
 675 850 l 1,38,-1
 675 681 l 1,39,-1
 507 681 l 1,36,-1
675 681 m 1,40,-1
 675 850 l 1,41,-1
 845 850 l 1,42,-1
 845 681 l 1,43,-1
 675 681 l 1,40,-1
169 513 m 1,44,-1
 169 681 l 1,45,-1
 338 681 l 1,46,-1
 338 513 l 1,47,-1
 169 513 l 1,44,-1
169 343 m 1,48,-1
 169 513 l 1,49,-1
 338 513 l 1,50,-1
 338 343 l 1,51,-1
 169 343 l 1,48,-1
169 175 m 1,52,-1
 169 343 l 1,53,-1
 338 343 l 1,54,-1
 338 175 l 1,55,-1
 169 175 l 1,52,-1
169 6 m 1,56,-1
 169 175 l 1,57,-1
 338 175 l 1,58,59
 338 176 338 176 338 6 c 1,60,-1
 169 6 l 1,56,-1
338 6 m 1,61,-1
 338 175 l 1,62,-1
 507 175 l 1,63,64
 507 176 507 176 507 6 c 1,65,-1
 338 6 l 1,61,-1
507 6 m 1,66,-1
 507 175 l 1,67,-1
 675 175 l 1,68,69
 675 176 675 176 675 6 c 1,70,-1
 507 6 l 1,66,-1
675 6 m 1,71,-1
 675 175 l 1,72,-1
 845 175 l 1,73,74
 845 176 845 176 845 6 c 1,75,-1
 675 6 l 1,71,-1
845 6 m 1,76,-1
 845 175 l 1,77,-1
 1014 175 l 1,78,79
 1014 176 1014 176 1014 6 c 1,80,-1
 845 6 l 1,76,-1
EndSplineSet
Validated: 37
EndChar

StartChar: F
Encoding: 70 70 71
Width: 1182
VWidth: 2708
GlyphClass: 1
Flags: W
LayerCount: 2
Fore
SplineSet
169 1188 m 1,0,-1
 169 1357 l 1,1,-1
 338 1357 l 1,2,-1
 338 1188 l 1,3,-1
 169 1188 l 1,0,-1
338 1188 m 1,4,-1
 338 1357 l 1,5,-1
 507 1357 l 1,6,-1
 507 1188 l 1,7,-1
 338 1188 l 1,4,-1
507 1188 m 1,8,-1
 507 1357 l 1,9,-1
 675 1357 l 1,10,-1
 675 1188 l 1,11,-1
 507 1188 l 1,8,-1
675 1188 m 1,12,-1
 675 1357 l 1,13,-1
 845 1357 l 1,14,-1
 845 1188 l 1,15,-1
 675 1188 l 1,12,-1
845 1188 m 1,16,-1
 845 1357 l 1,17,-1
 1014 1357 l 1,18,-1
 1014 1188 l 1,19,-1
 845 1188 l 1,16,-1
169 1020 m 1,20,-1
 169 1188 l 1,21,-1
 338 1188 l 1,22,-1
 338 1020 l 1,23,-1
 169 1020 l 1,20,-1
169 850 m 1,24,-1
 169 1020 l 1,25,-1
 338 1020 l 1,26,-1
 338 850 l 1,27,-1
 169 850 l 1,24,-1
169 681 m 1,28,-1
 169 850 l 1,29,-1
 338 850 l 1,30,-1
 338 681 l 1,31,-1
 169 681 l 1,28,-1
338 681 m 1,32,-1
 338 850 l 1,33,-1
 507 850 l 1,34,-1
 507 681 l 1,35,-1
 338 681 l 1,32,-1
507 681 m 1,36,-1
 507 850 l 1,37,-1
 675 850 l 1,38,-1
 675 681 l 1,39,-1
 507 681 l 1,36,-1
675 681 m 1,40,-1
 675 850 l 1,41,-1
 845 850 l 1,42,-1
 845 681 l 1,43,-1
 675 681 l 1,40,-1
169 513 m 1,44,-1
 169 681 l 1,45,-1
 338 681 l 1,46,-1
 338 513 l 1,47,-1
 169 513 l 1,44,-1
169 343 m 1,48,-1
 169 513 l 1,49,-1
 338 513 l 1,50,-1
 338 343 l 1,51,-1
 169 343 l 1,48,-1
169 175 m 1,52,-1
 169 343 l 1,53,-1
 338 343 l 1,54,-1
 338 175 l 1,55,-1
 169 175 l 1,52,-1
169 6 m 1,56,-1
 169 175 l 1,57,-1
 338 175 l 1,58,59
 338 176 338 176 338 6 c 1,60,-1
 169 6 l 1,56,-1
EndSplineSet
Validated: 37
EndChar

StartChar: G
Encoding: 71 71 72
Width: 1182
VWidth: 2708
GlyphClass: 1
Flags: W
LayerCount: 2
Fore
SplineSet
507 1188 m 1,0,-1
 507 1357 l 1,1,-1
 675 1357 l 1,2,-1
 675 1188 l 1,3,-1
 507 1188 l 1,0,-1
675 1188 m 1,4,-1
 675 1357 l 1,5,-1
 845 1357 l 1,6,-1
 845 1188 l 1,7,-1
 675 1188 l 1,4,-1
845 1188 m 1,8,-1
 845 1357 l 1,9,-1
 1014 1357 l 1,10,-1
 1014 1188 l 1,11,-1
 845 1188 l 1,8,-1
338 1020 m 1,12,-1
 338 1188 l 1,13,-1
 507 1188 l 1,14,-1
 507 1020 l 1,15,-1
 338 1020 l 1,12,-1
1014 1020 m 1,16,-1
 1014 1188 l 1,17,-1
 1182 1188 l 1,18,-1
 1182 1020 l 1,19,-1
 1014 1020 l 1,16,-1
169 850 m 1,20,-1
 169 1020 l 1,21,-1
 338 1020 l 1,22,-1
 338 850 l 1,23,-1
 169 850 l 1,20,-1
169 681 m 1,24,-1
 169 850 l 1,25,-1
 338 850 l 1,26,-1
 338 681 l 1,27,-1
 169 681 l 1,24,-1
169 513 m 1,28,-1
 169 681 l 1,29,-1
 338 681 l 1,30,-1
 338 513 l 1,31,-1
 169 513 l 1,28,-1
675 513 m 1,32,-1
 675 681 l 1,33,-1
 845 681 l 1,34,-1
 845 513 l 1,35,-1
 675 513 l 1,32,-1
845 513 m 1,36,-1
 845 681 l 1,37,-1
 1014 681 l 1,38,-1
 1014 513 l 1,39,-1
 845 513 l 1,36,-1
1014 513 m 1,40,-1
 1014 681 l 1,41,-1
 1182 681 l 1,42,-1
 1182 513 l 1,43,-1
 1014 513 l 1,40,-1
169 343 m 1,44,-1
 169 513 l 1,45,-1
 338 513 l 1,46,-1
 338 343 l 1,47,-1
 169 343 l 1,44,-1
1014 343 m 1,48,-1
 1014 513 l 1,49,-1
 1182 513 l 1,50,-1
 1182 343 l 1,51,-1
 1014 343 l 1,48,-1
338 175 m 1,52,-1
 338 343 l 1,53,-1
 507 343 l 1,54,-1
 507 175 l 1,55,-1
 338 175 l 1,52,-1
1014 175 m 1,56,-1
 1014 343 l 1,57,-1
 1182 343 l 1,58,-1
 1182 175 l 1,59,-1
 1014 175 l 1,56,-1
507 6 m 1,60,-1
 507 175 l 1,61,-1
 675 175 l 1,62,63
 675 176 675 176 675 6 c 1,64,-1
 507 6 l 1,60,-1
675 6 m 1,65,-1
 675 175 l 1,66,-1
 845 175 l 1,67,68
 845 176 845 176 845 6 c 1,69,-1
 675 6 l 1,65,-1
845 6 m 1,70,-1
 845 175 l 1,71,-1
 1014 175 l 1,72,73
 1014 176 1014 176 1014 6 c 1,74,-1
 845 6 l 1,70,-1
EndSplineSet
Validated: 37
EndChar

StartChar: H
Encoding: 72 72 73
Width: 1182
VWidth: 2708
GlyphClass: 1
Flags: W
LayerCount: 2
Fore
SplineSet
169 1188 m 1,0,-1
 169 1357 l 1,1,-1
 338 1357 l 1,2,-1
 338 1188 l 1,3,-1
 169 1188 l 1,0,-1
1014 1188 m 1,4,-1
 1014 1357 l 1,5,-1
 1182 1357 l 1,6,-1
 1182 1188 l 1,7,-1
 1014 1188 l 1,4,-1
169 1020 m 1,8,-1
 169 1188 l 1,9,-1
 338 1188 l 1,10,-1
 338 1020 l 1,11,-1
 169 1020 l 1,8,-1
1014 1020 m 1,12,-1
 1014 1188 l 1,13,-1
 1182 1188 l 1,14,-1
 1182 1020 l 1,15,-1
 1014 1020 l 1,12,-1
169 850 m 1,16,-1
 169 1020 l 1,17,-1
 338 1020 l 1,18,-1
 338 850 l 1,19,-1
 169 850 l 1,16,-1
1014 850 m 1,20,-1
 1014 1020 l 1,21,-1
 1182 1020 l 1,22,-1
 1182 850 l 1,23,-1
 1014 850 l 1,20,-1
169 681 m 1,24,-1
 169 850 l 1,25,-1
 338 850 l 1,26,-1
 338 681 l 1,27,-1
 169 681 l 1,24,-1
338 681 m 1,28,-1
 338 850 l 1,29,-1
 507 850 l 1,30,-1
 507 681 l 1,31,-1
 338 681 l 1,28,-1
507 681 m 1,32,-1
 507 850 l 1,33,-1
 675 850 l 1,34,-1
 675 681 l 1,35,-1
 507 681 l 1,32,-1
675 681 m 1,36,-1
 675 850 l 1,37,-1
 845 850 l 1,38,-1
 845 681 l 1,39,-1
 675 681 l 1,36,-1
845 681 m 1,40,-1
 845 850 l 1,41,-1
 1014 850 l 1,42,-1
 1014 681 l 1,43,-1
 845 681 l 1,40,-1
1014 681 m 1,44,-1
 1014 850 l 1,45,-1
 1182 850 l 1,46,-1
 1182 681 l 1,47,-1
 1014 681 l 1,44,-1
169 513 m 1,48,-1
 169 681 l 1,49,-1
 338 681 l 1,50,-1
 338 513 l 1,51,-1
 169 513 l 1,48,-1
1014 513 m 1,52,-1
 1014 681 l 1,53,-1
 1182 681 l 1,54,-1
 1182 513 l 1,55,-1
 1014 513 l 1,52,-1
169 343 m 1,56,-1
 169 513 l 1,57,-1
 338 513 l 1,58,-1
 338 343 l 1,59,-1
 169 343 l 1,56,-1
1014 343 m 1,60,-1
 1014 513 l 1,61,-1
 1182 513 l 1,62,-1
 1182 343 l 1,63,-1
 1014 343 l 1,60,-1
169 175 m 1,64,-1
 169 343 l 1,65,-1
 338 343 l 1,66,-1
 338 175 l 1,67,-1
 169 175 l 1,64,-1
1014 175 m 1,68,-1
 1014 343 l 1,69,-1
 1182 343 l 1,70,-1
 1182 175 l 1,71,-1
 1014 175 l 1,68,-1
169 6 m 1,72,-1
 169 175 l 1,73,-1
 338 175 l 1,74,75
 338 176 338 176 338 6 c 1,76,-1
 169 6 l 1,72,-1
1014 6 m 1,77,-1
 1014 175 l 1,78,-1
 1182 175 l 1,79,80
 1182 176 1182 176 1182 6 c 1,81,-1
 1014 6 l 1,77,-1
EndSplineSet
Validated: 37
EndChar

StartChar: I
Encoding: 73 73 74
Width: 1182
VWidth: 2708
GlyphClass: 1
Flags: W
LayerCount: 2
Fore
SplineSet
338 1188 m 1,0,-1
 338 1357 l 1,1,-1
 507 1357 l 1,2,-1
 507 1188 l 1,3,-1
 338 1188 l 1,0,-1
507 1188 m 1,4,-1
 507 1357 l 1,5,-1
 675 1357 l 1,6,-1
 675 1188 l 1,7,-1
 507 1188 l 1,4,-1
675 1188 m 1,8,-1
 675 1357 l 1,9,-1
 845 1357 l 1,10,-1
 845 1188 l 1,11,-1
 675 1188 l 1,8,-1
507 1020 m 1,12,-1
 507 1188 l 1,13,-1
 675 1188 l 1,14,-1
 675 1020 l 1,15,-1
 507 1020 l 1,12,-1
507 850 m 1,16,-1
 507 1020 l 1,17,-1
 675 1020 l 1,18,-1
 675 850 l 1,19,-1
 507 850 l 1,16,-1
507 681 m 1,20,-1
 507 850 l 1,21,-1
 675 850 l 1,22,-1
 675 681 l 1,23,-1
 507 681 l 1,20,-1
507 513 m 1,24,-1
 507 681 l 1,25,-1
 675 681 l 1,26,-1
 675 513 l 1,27,-1
 507 513 l 1,24,-1
507 343 m 1,28,-1
 507 513 l 1,29,-1
 675 513 l 1,30,-1
 675 343 l 1,31,-1
 507 343 l 1,28,-1
507 175 m 1,32,-1
 507 343 l 1,33,-1
 675 343 l 1,34,-1
 675 175 l 1,35,-1
 507 175 l 1,32,-1
338 6 m 1,36,-1
 338 175 l 1,37,-1
 507 175 l 1,38,39
 507 176 507 176 507 6 c 1,40,-1
 338 6 l 1,36,-1
507 6 m 1,41,-1
 507 175 l 1,42,-1
 675 175 l 1,43,44
 675 176 675 176 675 6 c 1,45,-1
 507 6 l 1,41,-1
675 6 m 1,46,-1
 675 175 l 1,47,-1
 845 175 l 1,48,49
 845 176 845 176 845 6 c 1,50,-1
 675 6 l 1,46,-1
EndSplineSet
Validated: 37
EndChar

StartChar: J
Encoding: 74 74 75
Width: 1182
VWidth: 2708
GlyphClass: 1
Flags: W
LayerCount: 2
Fore
SplineSet
338 1188 m 1,0,-1
 338 1357 l 1,1,-1
 507 1357 l 1,2,-1
 507 1188 l 1,3,-1
 338 1188 l 1,0,-1
507 1188 m 1,4,-1
 507 1357 l 1,5,-1
 675 1357 l 1,6,-1
 675 1188 l 1,7,-1
 507 1188 l 1,4,-1
675 1188 m 1,8,-1
 675 1357 l 1,9,-1
 845 1357 l 1,10,-1
 845 1188 l 1,11,-1
 675 1188 l 1,8,-1
675 1020 m 1,12,-1
 675 1188 l 1,13,-1
 845 1188 l 1,14,-1
 845 1020 l 1,15,-1
 675 1020 l 1,12,-1
675 850 m 1,16,-1
 675 1020 l 1,17,-1
 845 1020 l 1,18,-1
 845 850 l 1,19,-1
 675 850 l 1,16,-1
675 681 m 1,20,-1
 675 850 l 1,21,-1
 845 850 l 1,22,-1
 845 681 l 1,23,-1
 675 681 l 1,20,-1
675 513 m 1,24,-1
 675 681 l 1,25,-1
 845 681 l 1,26,-1
 845 513 l 1,27,-1
 675 513 l 1,24,-1
675 343 m 1,28,-1
 675 513 l 1,29,-1
 845 513 l 1,30,-1
 845 343 l 1,31,-1
 675 343 l 1,28,-1
675 175 m 1,32,-1
 675 343 l 1,33,-1
 845 343 l 1,34,-1
 845 175 l 1,35,-1
 675 175 l 1,32,-1
169 6 m 1,36,-1
 169 175 l 1,37,-1
 338 175 l 1,38,39
 338 176 338 176 338 6 c 1,40,-1
 169 6 l 1,36,-1
338 6 m 1,41,-1
 338 175 l 1,42,-1
 507 175 l 1,43,44
 507 176 507 176 507 6 c 1,45,-1
 338 6 l 1,41,-1
507 6 m 1,46,-1
 507 175 l 1,47,-1
 675 175 l 1,48,49
 675 176 675 176 675 6 c 1,50,-1
 507 6 l 1,46,-1
EndSplineSet
Validated: 37
EndChar

StartChar: K
Encoding: 75 75 76
Width: 1182
VWidth: 2708
GlyphClass: 1
Flags: W
LayerCount: 2
Fore
SplineSet
169 1188 m 1,0,-1
 169 1357 l 1,1,-1
 338 1357 l 1,2,-1
 338 1188 l 1,3,-1
 169 1188 l 1,0,-1
1014 1188 m 1,4,-1
 1014 1357 l 1,5,-1
 1182 1357 l 1,6,-1
 1182 1188 l 1,7,-1
 1014 1188 l 1,4,-1
169 1020 m 1,8,-1
 169 1188 l 1,9,-1
 338 1188 l 1,10,-1
 338 1020 l 1,11,-1
 169 1020 l 1,8,-1
845 1020 m 1,12,-1
 845 1188 l 1,13,-1
 1014 1188 l 1,14,-1
 1014 1020 l 1,15,-1
 845 1020 l 1,12,-1
169 850 m 1,16,-1
 169 1020 l 1,17,-1
 338 1020 l 1,18,-1
 338 850 l 1,19,-1
 169 850 l 1,16,-1
675 850 m 1,20,-1
 675 1020 l 1,21,-1
 845 1020 l 1,22,-1
 845 850 l 1,23,-1
 675 850 l 1,20,-1
169 681 m 1,24,-1
 169 850 l 1,25,-1
 338 850 l 1,26,-1
 338 681 l 1,27,-1
 169 681 l 1,24,-1
507 681 m 1,28,-1
 507 850 l 1,29,-1
 675 850 l 1,30,-1
 675 681 l 1,31,-1
 507 681 l 1,28,-1
169 513 m 1,32,-1
 169 681 l 1,33,-1
 338 681 l 1,34,-1
 338 513 l 1,35,-1
 169 513 l 1,32,-1
338 513 m 1,36,-1
 338 681 l 1,37,-1
 507 681 l 1,38,-1
 507 513 l 1,39,-1
 338 513 l 1,36,-1
507 513 m 1,40,-1
 507 681 l 1,41,-1
 675 681 l 1,42,-1
 675 513 l 1,43,-1
 507 513 l 1,40,-1
169 343 m 1,44,-1
 169 513 l 1,45,-1
 338 513 l 1,46,-1
 338 343 l 1,47,-1
 169 343 l 1,44,-1
675 343 m 1,48,-1
 675 513 l 1,49,-1
 845 513 l 1,50,-1
 845 343 l 1,51,-1
 675 343 l 1,48,-1
169 175 m 1,52,-1
 169 343 l 1,53,-1
 338 343 l 1,54,-1
 338 175 l 1,55,-1
 169 175 l 1,52,-1
845 175 m 1,56,-1
 845 343 l 1,57,-1
 1014 343 l 1,58,-1
 1014 175 l 1,59,-1
 845 175 l 1,56,-1
169 6 m 1,60,-1
 169 175 l 1,61,-1
 338 175 l 1,62,63
 338 176 338 176 338 6 c 1,64,-1
 169 6 l 1,60,-1
1014 6 m 1,65,-1
 1014 175 l 1,66,-1
 1182 175 l 1,67,68
 1182 176 1182 176 1182 6 c 1,69,-1
 1014 6 l 1,65,-1
EndSplineSet
Validated: 37
EndChar

StartChar: L
Encoding: 76 76 77
Width: 1182
VWidth: 2708
GlyphClass: 1
Flags: W
LayerCount: 2
Fore
SplineSet
169 1188 m 1,0,-1
 169 1357 l 1,1,-1
 338 1357 l 1,2,-1
 338 1188 l 1,3,-1
 169 1188 l 1,0,-1
169 1020 m 1,4,-1
 169 1188 l 1,5,-1
 338 1188 l 1,6,-1
 338 1020 l 1,7,-1
 169 1020 l 1,4,-1
169 850 m 1,8,-1
 169 1020 l 1,9,-1
 338 1020 l 1,10,-1
 338 850 l 1,11,-1
 169 850 l 1,8,-1
169 681 m 1,12,-1
 169 850 l 1,13,-1
 338 850 l 1,14,-1
 338 681 l 1,15,-1
 169 681 l 1,12,-1
169 513 m 1,16,-1
 169 681 l 1,17,-1
 338 681 l 1,18,-1
 338 513 l 1,19,-1
 169 513 l 1,16,-1
169 343 m 1,20,-1
 169 513 l 1,21,-1
 338 513 l 1,22,-1
 338 343 l 1,23,-1
 169 343 l 1,20,-1
169 175 m 1,24,-1
 169 343 l 1,25,-1
 338 343 l 1,26,-1
 338 175 l 1,27,-1
 169 175 l 1,24,-1
169 6 m 1,28,-1
 169 175 l 1,29,-1
 338 175 l 1,30,31
 338 176 338 176 338 6 c 1,32,-1
 169 6 l 1,28,-1
338 6 m 1,33,-1
 338 175 l 1,34,-1
 507 175 l 1,35,36
 507 176 507 176 507 6 c 1,37,-1
 338 6 l 1,33,-1
507 6 m 1,38,-1
 507 175 l 1,39,-1
 675 175 l 1,40,41
 675 176 675 176 675 6 c 1,42,-1
 507 6 l 1,38,-1
675 6 m 1,43,-1
 675 175 l 1,44,-1
 845 175 l 1,45,46
 845 176 845 176 845 6 c 1,47,-1
 675 6 l 1,43,-1
845 6 m 1,48,-1
 845 175 l 1,49,-1
 1014 175 l 1,50,51
 1014 176 1014 176 1014 6 c 1,52,-1
 845 6 l 1,48,-1
EndSplineSet
Validated: 37
EndChar

StartChar: M
Encoding: 77 77 78
Width: 1182
VWidth: 2708
GlyphClass: 1
Flags: W
LayerCount: 2
Fore
SplineSet
0 1188 m 1,0,-1
 0 1357 l 1,1,-1
 169 1357 l 1,2,-1
 169 1188 l 1,3,-1
 0 1188 l 1,0,-1
169 1188 m 1,4,-1
 169 1357 l 1,5,-1
 338 1357 l 1,6,-1
 338 1188 l 1,7,-1
 169 1188 l 1,4,-1
845 1188 m 1,8,-1
 845 1357 l 1,9,-1
 1014 1357 l 1,10,-1
 1014 1188 l 1,11,-1
 845 1188 l 1,8,-1
1014 1188 m 1,12,-1
 1014 1357 l 1,13,-1
 1182 1357 l 1,14,-1
 1182 1188 l 1,15,-1
 1014 1188 l 1,12,-1
0 1020 m 1,16,-1
 0 1188 l 1,17,-1
 169 1188 l 1,18,-1
 169 1020 l 1,19,-1
 0 1020 l 1,16,-1
169 1020 m 1,20,-1
 169 1188 l 1,21,-1
 338 1188 l 1,22,-1
 338 1020 l 1,23,-1
 169 1020 l 1,20,-1
845 1020 m 1,24,-1
 845 1188 l 1,25,-1
 1014 1188 l 1,26,-1
 1014 1020 l 1,27,-1
 845 1020 l 1,24,-1
1014 1020 m 1,28,-1
 1014 1188 l 1,29,-1
 1182 1188 l 1,30,-1
 1182 1020 l 1,31,-1
 1014 1020 l 1,28,-1
0 850 m 1,32,-1
 0 1020 l 1,33,-1
 169 1020 l 1,34,-1
 169 850 l 1,35,-1
 0 850 l 1,32,-1
338 850 m 1,36,-1
 338 1020 l 1,37,-1
 507 1020 l 1,38,-1
 507 850 l 1,39,-1
 338 850 l 1,36,-1
675 850 m 1,40,-1
 675 1020 l 1,41,-1
 845 1020 l 1,42,-1
 845 850 l 1,43,-1
 675 850 l 1,40,-1
1014 850 m 1,44,-1
 1014 1020 l 1,45,-1
 1182 1020 l 1,46,-1
 1182 850 l 1,47,-1
 1014 850 l 1,44,-1
0 681 m 1,48,-1
 0 850 l 1,49,-1
 169 850 l 1,50,-1
 169 681 l 1,51,-1
 0 681 l 1,48,-1
338 681 m 1,52,-1
 338 850 l 1,53,-1
 507 850 l 1,54,-1
 507 681 l 1,55,-1
 338 681 l 1,52,-1
675 681 m 1,56,-1
 675 850 l 1,57,-1
 845 850 l 1,58,-1
 845 681 l 1,59,-1
 675 681 l 1,56,-1
1014 681 m 1,60,-1
 1014 850 l 1,61,-1
 1182 850 l 1,62,-1
 1182 681 l 1,63,-1
 1014 681 l 1,60,-1
0 513 m 1,64,-1
 0 681 l 1,65,-1
 169 681 l 1,66,-1
 169 513 l 1,67,-1
 0 513 l 1,64,-1
507 513 m 1,68,-1
 507 681 l 1,69,-1
 675 681 l 1,70,-1
 675 513 l 1,71,-1
 507 513 l 1,68,-1
1014 513 m 1,72,-1
 1014 681 l 1,73,-1
 1182 681 l 1,74,-1
 1182 513 l 1,75,-1
 1014 513 l 1,72,-1
0 343 m 1,76,-1
 0 513 l 1,77,-1
 169 513 l 1,78,-1
 169 343 l 1,79,-1
 0 343 l 1,76,-1
507 343 m 1,80,-1
 507 513 l 1,81,-1
 675 513 l 1,82,-1
 675 343 l 1,83,-1
 507 343 l 1,80,-1
1014 343 m 1,84,-1
 1014 513 l 1,85,-1
 1182 513 l 1,86,-1
 1182 343 l 1,87,-1
 1014 343 l 1,84,-1
0 175 m 1,88,-1
 0 343 l 1,89,-1
 169 343 l 1,90,-1
 169 175 l 1,91,-1
 0 175 l 1,88,-1
1014 175 m 1,92,-1
 1014 343 l 1,93,-1
 1182 343 l 1,94,-1
 1182 175 l 1,95,-1
 1014 175 l 1,92,-1
0 6 m 1,96,-1
 0 175 l 1,97,-1
 169 175 l 1,98,99
 169 176 169 176 169 6 c 1,100,-1
 0 6 l 1,96,-1
1014 6 m 1,101,-1
 1014 175 l 1,102,-1
 1182 175 l 1,103,104
 1182 176 1182 176 1182 6 c 1,105,-1
 1014 6 l 1,101,-1
EndSplineSet
Validated: 37
EndChar

StartChar: N
Encoding: 78 78 79
Width: 1182
VWidth: 2708
GlyphClass: 1
Flags: W
LayerCount: 2
Fore
SplineSet
169 1188 m 1,0,-1
 169 1357 l 1,1,-1
 338 1357 l 1,2,-1
 338 1188 l 1,3,-1
 169 1188 l 1,0,-1
338 1188 m 1,4,-1
 338 1357 l 1,5,-1
 507 1357 l 1,6,-1
 507 1188 l 1,7,-1
 338 1188 l 1,4,-1
1014 1188 m 1,8,-1
 1014 1357 l 1,9,-1
 1182 1357 l 1,10,-1
 1182 1188 l 1,11,-1
 1014 1188 l 1,8,-1
169 1020 m 1,12,-1
 169 1188 l 1,13,-1
 338 1188 l 1,14,-1
 338 1020 l 1,15,-1
 169 1020 l 1,12,-1
338 1020 m 1,16,-1
 338 1188 l 1,17,-1
 507 1188 l 1,18,-1
 507 1020 l 1,19,-1
 338 1020 l 1,16,-1
1014 1020 m 1,20,-1
 1014 1188 l 1,21,-1
 1182 1188 l 1,22,-1
 1182 1020 l 1,23,-1
 1014 1020 l 1,20,-1
169 850 m 1,24,-1
 169 1020 l 1,25,-1
 338 1020 l 1,26,-1
 338 850 l 1,27,-1
 169 850 l 1,24,-1
507 850 m 1,28,-1
 507 1020 l 1,29,-1
 675 1020 l 1,30,-1
 675 850 l 1,31,-1
 507 850 l 1,28,-1
1014 850 m 1,32,-1
 1014 1020 l 1,33,-1
 1182 1020 l 1,34,-1
 1182 850 l 1,35,-1
 1014 850 l 1,32,-1
169 681 m 1,36,-1
 169 850 l 1,37,-1
 338 850 l 1,38,-1
 338 681 l 1,39,-1
 169 681 l 1,36,-1
507 681 m 1,40,-1
 507 850 l 1,41,-1
 675 850 l 1,42,-1
 675 681 l 1,43,-1
 507 681 l 1,40,-1
1014 681 m 1,44,-1
 1014 850 l 1,45,-1
 1182 850 l 1,46,-1
 1182 681 l 1,47,-1
 1014 681 l 1,44,-1
169 513 m 1,48,-1
 169 681 l 1,49,-1
 338 681 l 1,50,-1
 338 513 l 1,51,-1
 169 513 l 1,48,-1
675 513 m 1,52,-1
 675 681 l 1,53,-1
 845 681 l 1,54,-1
 845 513 l 1,55,-1
 675 513 l 1,52,-1
1014 513 m 1,56,-1
 1014 681 l 1,57,-1
 1182 681 l 1,58,-1
 1182 513 l 1,59,-1
 1014 513 l 1,56,-1
169 343 m 1,60,-1
 169 513 l 1,61,-1
 338 513 l 1,62,-1
 338 343 l 1,63,-1
 169 343 l 1,60,-1
675 343 m 1,64,-1
 675 513 l 1,65,-1
 845 513 l 1,66,-1
 845 343 l 1,67,-1
 675 343 l 1,64,-1
1014 343 m 1,68,-1
 1014 513 l 1,69,-1
 1182 513 l 1,70,-1
 1182 343 l 1,71,-1
 1014 343 l 1,68,-1
169 175 m 1,72,-1
 169 343 l 1,73,-1
 338 343 l 1,74,-1
 338 175 l 1,75,-1
 169 175 l 1,72,-1
845 175 m 1,76,-1
 845 343 l 1,77,-1
 1014 343 l 1,78,-1
 1014 175 l 1,79,-1
 845 175 l 1,76,-1
1014 175 m 1,80,-1
 1014 343 l 1,81,-1
 1182 343 l 1,82,-1
 1182 175 l 1,83,-1
 1014 175 l 1,80,-1
169 6 m 1,84,-1
 169 175 l 1,85,-1
 338 175 l 1,86,87
 338 176 338 176 338 6 c 1,88,-1
 169 6 l 1,84,-1
845 6 m 1,89,-1
 845 175 l 1,90,-1
 1014 175 l 1,91,92
 1014 176 1014 176 1014 6 c 1,93,-1
 845 6 l 1,89,-1
1014 6 m 1,94,-1
 1014 175 l 1,95,-1
 1182 175 l 1,96,97
 1182 176 1182 176 1182 6 c 1,98,-1
 1014 6 l 1,94,-1
EndSplineSet
Validated: 37
EndChar

StartChar: O
Encoding: 79 79 80
Width: 1182
VWidth: 2708
GlyphClass: 1
Flags: W
LayerCount: 2
Fore
SplineSet
507 1188 m 1,0,-1
 507 1357 l 1,1,-1
 675 1357 l 1,2,-1
 675 1188 l 1,3,-1
 507 1188 l 1,0,-1
675 1188 m 1,4,-1
 675 1357 l 1,5,-1
 845 1357 l 1,6,-1
 845 1188 l 1,7,-1
 675 1188 l 1,4,-1
338 1020 m 1,8,-1
 338 1188 l 1,9,-1
 507 1188 l 1,10,-1
 507 1020 l 1,11,-1
 338 1020 l 1,8,-1
845 1020 m 1,12,-1
 845 1188 l 1,13,-1
 1014 1188 l 1,14,-1
 1014 1020 l 1,15,-1
 845 1020 l 1,12,-1
169 850 m 1,16,-1
 169 1020 l 1,17,-1
 338 1020 l 1,18,-1
 338 850 l 1,19,-1
 169 850 l 1,16,-1
1014 850 m 1,20,-1
 1014 1020 l 1,21,-1
 1182 1020 l 1,22,-1
 1182 850 l 1,23,-1
 1014 850 l 1,20,-1
169 681 m 1,24,-1
 169 850 l 1,25,-1
 338 850 l 1,26,-1
 338 681 l 1,27,-1
 169 681 l 1,24,-1
1014 681 m 1,28,-1
 1014 850 l 1,29,-1
 1182 850 l 1,30,-1
 1182 681 l 1,31,-1
 1014 681 l 1,28,-1
169 513 m 1,32,-1
 169 681 l 1,33,-1
 338 681 l 1,34,-1
 338 513 l 1,35,-1
 169 513 l 1,32,-1
1014 513 m 1,36,-1
 1014 681 l 1,37,-1
 1182 681 l 1,38,-1
 1182 513 l 1,39,-1
 1014 513 l 1,36,-1
169 343 m 1,40,-1
 169 513 l 1,41,-1
 338 513 l 1,42,-1
 338 343 l 1,43,-1
 169 343 l 1,40,-1
1014 343 m 1,44,-1
 1014 513 l 1,45,-1
 1182 513 l 1,46,-1
 1182 343 l 1,47,-1
 1014 343 l 1,44,-1
338 175 m 1,48,-1
 338 343 l 1,49,-1
 507 343 l 1,50,-1
 507 175 l 1,51,-1
 338 175 l 1,48,-1
845 175 m 1,52,-1
 845 343 l 1,53,-1
 1014 343 l 1,54,-1
 1014 175 l 1,55,-1
 845 175 l 1,52,-1
507 6 m 1,56,-1
 507 175 l 1,57,-1
 675 175 l 1,58,59
 675 176 675 176 675 6 c 1,60,-1
 507 6 l 1,56,-1
675 6 m 1,61,-1
 675 175 l 1,62,-1
 845 175 l 1,63,64
 845 176 845 176 845 6 c 1,65,-1
 675 6 l 1,61,-1
EndSplineSet
Validated: 37
EndChar

StartChar: P
Encoding: 80 80 81
Width: 1182
VWidth: 2708
GlyphClass: 1
Flags: W
LayerCount: 2
Fore
SplineSet
169 1188 m 1,0,-1
 169 1357 l 1,1,-1
 338 1357 l 1,2,-1
 338 1188 l 1,3,-1
 169 1188 l 1,0,-1
338 1188 m 1,4,-1
 338 1357 l 1,5,-1
 507 1357 l 1,6,-1
 507 1188 l 1,7,-1
 338 1188 l 1,4,-1
507 1188 m 1,8,-1
 507 1357 l 1,9,-1
 675 1357 l 1,10,-1
 675 1188 l 1,11,-1
 507 1188 l 1,8,-1
675 1188 m 1,12,-1
 675 1357 l 1,13,-1
 845 1357 l 1,14,-1
 845 1188 l 1,15,-1
 675 1188 l 1,12,-1
169 1020 m 1,16,-1
 169 1188 l 1,17,-1
 338 1188 l 1,18,-1
 338 1020 l 1,19,-1
 169 1020 l 1,16,-1
845 1020 m 1,20,-1
 845 1188 l 1,21,-1
 1014 1188 l 1,22,-1
 1014 1020 l 1,23,-1
 845 1020 l 1,20,-1
169 850 m 1,24,-1
 169 1020 l 1,25,-1
 338 1020 l 1,26,-1
 338 850 l 1,27,-1
 169 850 l 1,24,-1
845 850 m 1,28,-1
 845 1020 l 1,29,-1
 1014 1020 l 1,30,-1
 1014 850 l 1,31,-1
 845 850 l 1,28,-1
169 681 m 1,32,-1
 169 850 l 1,33,-1
 338 850 l 1,34,-1
 338 681 l 1,35,-1
 169 681 l 1,32,-1
845 681 m 1,36,-1
 845 850 l 1,37,-1
 1014 850 l 1,38,-1
 1014 681 l 1,39,-1
 845 681 l 1,36,-1
169 513 m 1,40,-1
 169 681 l 1,41,-1
 338 681 l 1,42,-1
 338 513 l 1,43,-1
 169 513 l 1,40,-1
338 513 m 1,44,-1
 338 681 l 1,45,-1
 507 681 l 1,46,-1
 507 513 l 1,47,-1
 338 513 l 1,44,-1
507 513 m 1,48,-1
 507 681 l 1,49,-1
 675 681 l 1,50,-1
 675 513 l 1,51,-1
 507 513 l 1,48,-1
675 513 m 1,52,-1
 675 681 l 1,53,-1
 845 681 l 1,54,-1
 845 513 l 1,55,-1
 675 513 l 1,52,-1
169 343 m 1,56,-1
 169 513 l 1,57,-1
 338 513 l 1,58,-1
 338 343 l 1,59,-1
 169 343 l 1,56,-1
169 175 m 1,60,-1
 169 343 l 1,61,-1
 338 343 l 1,62,-1
 338 175 l 1,63,-1
 169 175 l 1,60,-1
169 6 m 1,64,-1
 169 175 l 1,65,-1
 338 175 l 1,66,67
 338 176 338 176 338 6 c 1,68,-1
 169 6 l 1,64,-1
EndSplineSet
Validated: 37
EndChar

StartChar: Q
Encoding: 81 81 82
Width: 1182
VWidth: 2708
GlyphClass: 1
Flags: W
LayerCount: 2
Fore
SplineSet
507 1188 m 1,0,-1
 507 1357 l 1,1,-1
 675 1357 l 1,2,-1
 675 1188 l 1,3,-1
 507 1188 l 1,0,-1
675 1188 m 1,4,-1
 675 1357 l 1,5,-1
 845 1357 l 1,6,-1
 845 1188 l 1,7,-1
 675 1188 l 1,4,-1
338 1020 m 1,8,-1
 338 1188 l 1,9,-1
 507 1188 l 1,10,-1
 507 1020 l 1,11,-1
 338 1020 l 1,8,-1
845 1020 m 1,12,-1
 845 1188 l 1,13,-1
 1014 1188 l 1,14,-1
 1014 1020 l 1,15,-1
 845 1020 l 1,12,-1
169 850 m 1,16,-1
 169 1020 l 1,17,-1
 338 1020 l 1,18,-1
 338 850 l 1,19,-1
 169 850 l 1,16,-1
1014 850 m 1,20,-1
 1014 1020 l 1,21,-1
 1182 1020 l 1,22,-1
 1182 850 l 1,23,-1
 1014 850 l 1,20,-1
169 681 m 1,24,-1
 169 850 l 1,25,-1
 338 850 l 1,26,-1
 338 681 l 1,27,-1
 169 681 l 1,24,-1
1014 681 m 1,28,-1
 1014 850 l 1,29,-1
 1182 850 l 1,30,-1
 1182 681 l 1,31,-1
 1014 681 l 1,28,-1
169 513 m 1,32,-1
 169 681 l 1,33,-1
 338 681 l 1,34,-1
 338 513 l 1,35,-1
 169 513 l 1,32,-1
1014 513 m 1,36,-1
 1014 681 l 1,37,-1
 1182 681 l 1,38,-1
 1182 513 l 1,39,-1
 1014 513 l 1,36,-1
169 343 m 1,40,-1
 169 513 l 1,41,-1
 338 513 l 1,42,-1
 338 343 l 1,43,-1
 169 343 l 1,40,-1
1014 343 m 1,44,-1
 1014 513 l 1,45,-1
 1182 513 l 1,46,-1
 1182 343 l 1,47,-1
 1014 343 l 1,44,-1
338 175 m 1,48,-1
 338 343 l 1,49,-1
 507 343 l 1,50,-1
 507 175 l 1,51,-1
 338 175 l 1,48,-1
845 175 m 1,52,-1
 845 343 l 1,53,-1
 1014 343 l 1,54,-1
 1014 175 l 1,55,-1
 845 175 l 1,52,-1
507 6 m 1,56,-1
 507 175 l 1,57,-1
 675 175 l 1,58,59
 675 176 675 176 675 6 c 1,60,-1
 507 6 l 1,56,-1
675 6 m 1,61,-1
 675 175 l 1,62,-1
 845 175 l 1,63,64
 845 176 845 176 845 6 c 1,65,-1
 675 6 l 1,61,-1
1014 6 m 1,66,-1
 1014 175 l 1,67,-1
 1182 175 l 1,68,69
 1182 176 1182 176 1182 6 c 1,70,-1
 1014 6 l 1,66,-1
1014 -164 m 1,71,-1
 1014 6 l 1,72,-1
 1182 6 l 1,73,-1
 1182 -164 l 1,74,-1
 1014 -164 l 1,71,-1
EndSplineSet
Validated: 37
EndChar

StartChar: R
Encoding: 82 82 83
Width: 1182
VWidth: 2708
GlyphClass: 1
Flags: W
LayerCount: 2
Fore
SplineSet
169 1188 m 1,0,-1
 169 1357 l 1,1,-1
 338 1357 l 1,2,-1
 338 1188 l 1,3,-1
 169 1188 l 1,0,-1
338 1188 m 1,4,-1
 338 1357 l 1,5,-1
 507 1357 l 1,6,-1
 507 1188 l 1,7,-1
 338 1188 l 1,4,-1
507 1188 m 1,8,-1
 507 1357 l 1,9,-1
 675 1357 l 1,10,-1
 675 1188 l 1,11,-1
 507 1188 l 1,8,-1
675 1188 m 1,12,-1
 675 1357 l 1,13,-1
 845 1357 l 1,14,-1
 845 1188 l 1,15,-1
 675 1188 l 1,12,-1
169 1020 m 1,16,-1
 169 1188 l 1,17,-1
 338 1188 l 1,18,-1
 338 1020 l 1,19,-1
 169 1020 l 1,16,-1
845 1020 m 1,20,-1
 845 1188 l 1,21,-1
 1014 1188 l 1,22,-1
 1014 1020 l 1,23,-1
 845 1020 l 1,20,-1
169 850 m 1,24,-1
 169 1020 l 1,25,-1
 338 1020 l 1,26,-1
 338 850 l 1,27,-1
 169 850 l 1,24,-1
845 850 m 1,28,-1
 845 1020 l 1,29,-1
 1014 1020 l 1,30,-1
 1014 850 l 1,31,-1
 845 850 l 1,28,-1
169 681 m 1,32,-1
 169 850 l 1,33,-1
 338 850 l 1,34,-1
 338 681 l 1,35,-1
 169 681 l 1,32,-1
845 681 m 1,36,-1
 845 850 l 1,37,-1
 1014 850 l 1,38,-1
 1014 681 l 1,39,-1
 845 681 l 1,36,-1
169 513 m 1,40,-1
 169 681 l 1,41,-1
 338 681 l 1,42,-1
 338 513 l 1,43,-1
 169 513 l 1,40,-1
338 513 m 1,44,-1
 338 681 l 1,45,-1
 507 681 l 1,46,-1
 507 513 l 1,47,-1
 338 513 l 1,44,-1
507 513 m 1,48,-1
 507 681 l 1,49,-1
 675 681 l 1,50,-1
 675 513 l 1,51,-1
 507 513 l 1,48,-1
675 513 m 1,52,-1
 675 681 l 1,53,-1
 845 681 l 1,54,-1
 845 513 l 1,55,-1
 675 513 l 1,52,-1
169 343 m 1,56,-1
 169 513 l 1,57,-1
 338 513 l 1,58,-1
 338 343 l 1,59,-1
 169 343 l 1,56,-1
675 343 m 1,60,-1
 675 513 l 1,61,-1
 845 513 l 1,62,-1
 845 343 l 1,63,-1
 675 343 l 1,60,-1
169 175 m 1,64,-1
 169 343 l 1,65,-1
 338 343 l 1,66,-1
 338 175 l 1,67,-1
 169 175 l 1,64,-1
845 175 m 1,68,-1
 845 343 l 1,69,-1
 1014 343 l 1,70,-1
 1014 175 l 1,71,-1
 845 175 l 1,68,-1
169 6 m 1,72,-1
 169 175 l 1,73,-1
 338 175 l 1,74,75
 338 176 338 176 338 6 c 1,76,-1
 169 6 l 1,72,-1
1014 6 m 1,77,-1
 1014 175 l 1,78,-1
 1182 175 l 1,79,80
 1182 176 1182 176 1182 6 c 1,81,-1
 1014 6 l 1,77,-1
EndSplineSet
Validated: 37
EndChar

StartChar: S
Encoding: 83 83 84
Width: 1182
VWidth: 2708
GlyphClass: 1
Flags: W
LayerCount: 2
Fore
SplineSet
338 1188 m 1,0,-1
 338 1357 l 1,1,-1
 507 1357 l 1,2,-1
 507 1188 l 1,3,-1
 338 1188 l 1,0,-1
507 1188 m 1,4,-1
 507 1357 l 1,5,-1
 675 1357 l 1,6,-1
 675 1188 l 1,7,-1
 507 1188 l 1,4,-1
675 1188 m 1,8,-1
 675 1357 l 1,9,-1
 845 1357 l 1,10,-1
 845 1188 l 1,11,-1
 675 1188 l 1,8,-1
845 1188 m 1,12,-1
 845 1357 l 1,13,-1
 1014 1357 l 1,14,-1
 1014 1188 l 1,15,-1
 845 1188 l 1,12,-1
169 1020 m 1,16,-1
 169 1188 l 1,17,-1
 338 1188 l 1,18,-1
 338 1020 l 1,19,-1
 169 1020 l 1,16,-1
1014 1020 m 1,20,-1
 1014 1188 l 1,21,-1
 1182 1188 l 1,22,-1
 1182 1020 l 1,23,-1
 1014 1020 l 1,20,-1
169 850 m 1,24,-1
 169 1020 l 1,25,-1
 338 1020 l 1,26,-1
 338 850 l 1,27,-1
 169 850 l 1,24,-1
338 681 m 1,28,-1
 338 850 l 1,29,-1
 507 850 l 1,30,-1
 507 681 l 1,31,-1
 338 681 l 1,28,-1
507 681 m 1,32,-1
 507 850 l 1,33,-1
 675 850 l 1,34,-1
 675 681 l 1,35,-1
 507 681 l 1,32,-1
675 513 m 1,36,-1
 675 681 l 1,37,-1
 845 681 l 1,38,-1
 845 513 l 1,39,-1
 675 513 l 1,36,-1
845 513 m 1,40,-1
 845 681 l 1,41,-1
 1014 681 l 1,42,-1
 1014 513 l 1,43,-1
 845 513 l 1,40,-1
1014 343 m 1,44,-1
 1014 513 l 1,45,-1
 1182 513 l 1,46,-1
 1182 343 l 1,47,-1
 1014 343 l 1,44,-1
169 175 m 1,48,-1
 169 343 l 1,49,-1
 338 343 l 1,50,-1
 338 175 l 1,51,-1
 169 175 l 1,48,-1
1014 175 m 1,52,-1
 1014 343 l 1,53,-1
 1182 343 l 1,54,-1
 1182 175 l 1,55,-1
 1014 175 l 1,52,-1
338 6 m 1,56,-1
 338 175 l 1,57,-1
 507 175 l 1,58,59
 507 176 507 176 507 6 c 1,60,-1
 338 6 l 1,56,-1
507 6 m 1,61,-1
 507 175 l 1,62,-1
 675 175 l 1,63,64
 675 176 675 176 675 6 c 1,65,-1
 507 6 l 1,61,-1
675 6 m 1,66,-1
 675 175 l 1,67,-1
 845 175 l 1,68,69
 845 176 845 176 845 6 c 1,70,-1
 675 6 l 1,66,-1
845 6 m 1,71,-1
 845 175 l 1,72,-1
 1014 175 l 1,73,74
 1014 176 1014 176 1014 6 c 1,75,-1
 845 6 l 1,71,-1
EndSplineSet
Validated: 37
EndChar

StartChar: T
Encoding: 84 84 85
Width: 1182
VWidth: 2708
GlyphClass: 1
Flags: W
LayerCount: 2
Fore
SplineSet
0 1188 m 1,0,-1
 0 1357 l 1,1,-1
 169 1357 l 1,2,-1
 169 1188 l 1,3,-1
 0 1188 l 1,0,-1
169 1188 m 1,4,-1
 169 1357 l 1,5,-1
 338 1357 l 1,6,-1
 338 1188 l 1,7,-1
 169 1188 l 1,4,-1
338 1188 m 1,8,-1
 338 1357 l 1,9,-1
 507 1357 l 1,10,-1
 507 1188 l 1,11,-1
 338 1188 l 1,8,-1
507 1188 m 1,12,-1
 507 1357 l 1,13,-1
 675 1357 l 1,14,-1
 675 1188 l 1,15,-1
 507 1188 l 1,12,-1
675 1188 m 1,16,-1
 675 1357 l 1,17,-1
 845 1357 l 1,18,-1
 845 1188 l 1,19,-1
 675 1188 l 1,16,-1
845 1188 m 1,20,-1
 845 1357 l 1,21,-1
 1014 1357 l 1,22,-1
 1014 1188 l 1,23,-1
 845 1188 l 1,20,-1
1014 1188 m 1,24,-1
 1014 1357 l 1,25,-1
 1182 1357 l 1,26,-1
 1182 1188 l 1,27,-1
 1014 1188 l 1,24,-1
507 1020 m 1,28,-1
 507 1188 l 1,29,-1
 675 1188 l 1,30,-1
 675 1020 l 1,31,-1
 507 1020 l 1,28,-1
507 850 m 1,32,-1
 507 1020 l 1,33,-1
 675 1020 l 1,34,-1
 675 850 l 1,35,-1
 507 850 l 1,32,-1
507 681 m 1,36,-1
 507 850 l 1,37,-1
 675 850 l 1,38,-1
 675 681 l 1,39,-1
 507 681 l 1,36,-1
507 513 m 1,40,-1
 507 681 l 1,41,-1
 675 681 l 1,42,-1
 675 513 l 1,43,-1
 507 513 l 1,40,-1
507 343 m 1,44,-1
 507 513 l 1,45,-1
 675 513 l 1,46,-1
 675 343 l 1,47,-1
 507 343 l 1,44,-1
507 175 m 1,48,-1
 507 343 l 1,49,-1
 675 343 l 1,50,-1
 675 175 l 1,51,-1
 507 175 l 1,48,-1
507 6 m 1,52,-1
 507 175 l 1,53,-1
 675 175 l 1,54,55
 675 176 675 176 675 6 c 1,56,-1
 507 6 l 1,52,-1
EndSplineSet
Validated: 37
EndChar

StartChar: U
Encoding: 85 85 86
Width: 1182
VWidth: 2708
GlyphClass: 1
Flags: W
LayerCount: 2
Fore
SplineSet
169 1188 m 1,0,-1
 169 1357 l 1,1,-1
 338 1357 l 1,2,-1
 338 1188 l 1,3,-1
 169 1188 l 1,0,-1
1014 1188 m 1,4,-1
 1014 1357 l 1,5,-1
 1182 1357 l 1,6,-1
 1182 1188 l 1,7,-1
 1014 1188 l 1,4,-1
169 1020 m 1,8,-1
 169 1188 l 1,9,-1
 338 1188 l 1,10,-1
 338 1020 l 1,11,-1
 169 1020 l 1,8,-1
1014 1020 m 1,12,-1
 1014 1188 l 1,13,-1
 1182 1188 l 1,14,-1
 1182 1020 l 1,15,-1
 1014 1020 l 1,12,-1
169 850 m 1,16,-1
 169 1020 l 1,17,-1
 338 1020 l 1,18,-1
 338 850 l 1,19,-1
 169 850 l 1,16,-1
1014 850 m 1,20,-1
 1014 1020 l 1,21,-1
 1182 1020 l 1,22,-1
 1182 850 l 1,23,-1
 1014 850 l 1,20,-1
169 681 m 1,24,-1
 169 850 l 1,25,-1
 338 850 l 1,26,-1
 338 681 l 1,27,-1
 169 681 l 1,24,-1
1014 681 m 1,28,-1
 1014 850 l 1,29,-1
 1182 850 l 1,30,-1
 1182 681 l 1,31,-1
 1014 681 l 1,28,-1
169 513 m 1,32,-1
 169 681 l 1,33,-1
 338 681 l 1,34,-1
 338 513 l 1,35,-1
 169 513 l 1,32,-1
1014 513 m 1,36,-1
 1014 681 l 1,37,-1
 1182 681 l 1,38,-1
 1182 513 l 1,39,-1
 1014 513 l 1,36,-1
169 343 m 1,40,-1
 169 513 l 1,41,-1
 338 513 l 1,42,-1
 338 343 l 1,43,-1
 169 343 l 1,40,-1
1014 343 m 1,44,-1
 1014 513 l 1,45,-1
 1182 513 l 1,46,-1
 1182 343 l 1,47,-1
 1014 343 l 1,44,-1
169 175 m 1,48,-1
 169 343 l 1,49,-1
 338 343 l 1,50,-1
 338 175 l 1,51,-1
 169 175 l 1,48,-1
1014 175 m 1,52,-1
 1014 343 l 1,53,-1
 1182 343 l 1,54,-1
 1182 175 l 1,55,-1
 1014 175 l 1,52,-1
338 6 m 1,56,-1
 338 175 l 1,57,-1
 507 175 l 1,58,59
 507 176 507 176 507 6 c 1,60,-1
 338 6 l 1,56,-1
507 6 m 1,61,-1
 507 175 l 1,62,-1
 675 175 l 1,63,64
 675 176 675 176 675 6 c 1,65,-1
 507 6 l 1,61,-1
675 6 m 1,66,-1
 675 175 l 1,67,-1
 845 175 l 1,68,69
 845 176 845 176 845 6 c 1,70,-1
 675 6 l 1,66,-1
845 6 m 1,71,-1
 845 175 l 1,72,-1
 1014 175 l 1,73,74
 1014 176 1014 176 1014 6 c 1,75,-1
 845 6 l 1,71,-1
EndSplineSet
Validated: 37
EndChar

StartChar: V
Encoding: 86 86 87
Width: 1182
VWidth: 2708
GlyphClass: 1
Flags: W
LayerCount: 2
Fore
SplineSet
0 1188 m 1,0,-1
 0 1357 l 1,1,-1
 169 1357 l 1,2,-1
 169 1188 l 1,3,-1
 0 1188 l 1,0,-1
1014 1188 m 1,4,-1
 1014 1357 l 1,5,-1
 1182 1357 l 1,6,-1
 1182 1188 l 1,7,-1
 1014 1188 l 1,4,-1
0 1020 m 1,8,-1
 0 1188 l 1,9,-1
 169 1188 l 1,10,-1
 169 1020 l 1,11,-1
 0 1020 l 1,8,-1
1014 1020 m 1,12,-1
 1014 1188 l 1,13,-1
 1182 1188 l 1,14,-1
 1182 1020 l 1,15,-1
 1014 1020 l 1,12,-1
169 850 m 1,16,-1
 169 1020 l 1,17,-1
 338 1020 l 1,18,-1
 338 850 l 1,19,-1
 169 850 l 1,16,-1
845 850 m 1,20,-1
 845 1020 l 1,21,-1
 1014 1020 l 1,22,-1
 1014 850 l 1,23,-1
 845 850 l 1,20,-1
169 681 m 1,24,-1
 169 850 l 1,25,-1
 338 850 l 1,26,-1
 338 681 l 1,27,-1
 169 681 l 1,24,-1
845 681 m 1,28,-1
 845 850 l 1,29,-1
 1014 850 l 1,30,-1
 1014 681 l 1,31,-1
 845 681 l 1,28,-1
338 513 m 1,32,-1
 338 681 l 1,33,-1
 507 681 l 1,34,-1
 507 513 l 1,35,-1
 338 513 l 1,32,-1
675 513 m 1,36,-1
 675 681 l 1,37,-1
 845 681 l 1,38,-1
 845 513 l 1,39,-1
 675 513 l 1,36,-1
338 343 m 1,40,-1
 338 513 l 1,41,-1
 507 513 l 1,42,-1
 507 343 l 1,43,-1
 338 343 l 1,40,-1
675 343 m 1,44,-1
 675 513 l 1,45,-1
 845 513 l 1,46,-1
 845 343 l 1,47,-1
 675 343 l 1,44,-1
507 175 m 1,48,-1
 507 343 l 1,49,-1
 675 343 l 1,50,-1
 675 175 l 1,51,-1
 507 175 l 1,48,-1
507 6 m 1,52,-1
 507 175 l 1,53,-1
 675 175 l 1,54,55
 675 176 675 176 675 6 c 1,56,-1
 507 6 l 1,52,-1
EndSplineSet
Validated: 37
EndChar

StartChar: W
Encoding: 87 87 88
Width: 1182
VWidth: 2708
GlyphClass: 1
Flags: W
LayerCount: 2
Fore
SplineSet
0 1188 m 1,0,-1
 0 1357 l 1,1,-1
 169 1357 l 1,2,-1
 169 1188 l 1,3,-1
 0 1188 l 1,0,-1
1014 1188 m 1,4,-1
 1014 1357 l 1,5,-1
 1182 1357 l 1,6,-1
 1182 1188 l 1,7,-1
 1014 1188 l 1,4,-1
0 1020 m 1,8,-1
 0 1188 l 1,9,-1
 169 1188 l 1,10,-1
 169 1020 l 1,11,-1
 0 1020 l 1,8,-1
507 1020 m 1,12,-1
 507 1188 l 1,13,-1
 675 1188 l 1,14,-1
 675 1020 l 1,15,-1
 507 1020 l 1,12,-1
1014 1020 m 1,16,-1
 1014 1188 l 1,17,-1
 1182 1188 l 1,18,-1
 1182 1020 l 1,19,-1
 1014 1020 l 1,16,-1
0 850 m 1,20,-1
 0 1020 l 1,21,-1
 169 1020 l 1,22,-1
 169 850 l 1,23,-1
 0 850 l 1,20,-1
507 850 m 1,24,-1
 507 1020 l 1,25,-1
 675 1020 l 1,26,-1
 675 850 l 1,27,-1
 507 850 l 1,24,-1
1014 850 m 1,28,-1
 1014 1020 l 1,29,-1
 1182 1020 l 1,30,-1
 1182 850 l 1,31,-1
 1014 850 l 1,28,-1
0 681 m 1,32,-1
 0 850 l 1,33,-1
 169 850 l 1,34,-1
 169 681 l 1,35,-1
 0 681 l 1,32,-1
338 681 m 1,36,-1
 338 850 l 1,37,-1
 507 850 l 1,38,-1
 507 681 l 1,39,-1
 338 681 l 1,36,-1
675 681 m 1,40,-1
 675 850 l 1,41,-1
 845 850 l 1,42,-1
 845 681 l 1,43,-1
 675 681 l 1,40,-1
1014 681 m 1,44,-1
 1014 850 l 1,45,-1
 1182 850 l 1,46,-1
 1182 681 l 1,47,-1
 1014 681 l 1,44,-1
0 513 m 1,48,-1
 0 681 l 1,49,-1
 169 681 l 1,50,-1
 169 513 l 1,51,-1
 0 513 l 1,48,-1
338 513 m 1,52,-1
 338 681 l 1,53,-1
 507 681 l 1,54,-1
 507 513 l 1,55,-1
 338 513 l 1,52,-1
675 513 m 1,56,-1
 675 681 l 1,57,-1
 845 681 l 1,58,-1
 845 513 l 1,59,-1
 675 513 l 1,56,-1
1014 513 m 1,60,-1
 1014 681 l 1,61,-1
 1182 681 l 1,62,-1
 1182 513 l 1,63,-1
 1014 513 l 1,60,-1
169 343 m 1,64,-1
 169 513 l 1,65,-1
 338 513 l 1,66,-1
 338 343 l 1,67,-1
 169 343 l 1,64,-1
338 343 m 1,68,-1
 338 513 l 1,69,-1
 507 513 l 1,70,-1
 507 343 l 1,71,-1
 338 343 l 1,68,-1
675 343 m 1,72,-1
 675 513 l 1,73,-1
 845 513 l 1,74,-1
 845 343 l 1,75,-1
 675 343 l 1,72,-1
845 343 m 1,76,-1
 845 513 l 1,77,-1
 1014 513 l 1,78,-1
 1014 343 l 1,79,-1
 845 343 l 1,76,-1
169 175 m 1,80,-1
 169 343 l 1,81,-1
 338 343 l 1,82,-1
 338 175 l 1,83,-1
 169 175 l 1,80,-1
845 175 m 1,84,-1
 845 343 l 1,85,-1
 1014 343 l 1,86,-1
 1014 175 l 1,87,-1
 845 175 l 1,84,-1
169 6 m 1,88,-1
 169 175 l 1,89,-1
 338 175 l 1,90,91
 338 176 338 176 338 6 c 1,92,-1
 169 6 l 1,88,-1
845 6 m 1,93,-1
 845 175 l 1,94,-1
 1014 175 l 1,95,96
 1014 176 1014 176 1014 6 c 1,97,-1
 845 6 l 1,93,-1
EndSplineSet
Validated: 37
EndChar

StartChar: X
Encoding: 88 88 89
Width: 1182
VWidth: 2708
GlyphClass: 1
Flags: W
LayerCount: 2
Fore
SplineSet
169 1188 m 1,0,-1
 169 1357 l 1,1,-1
 338 1357 l 1,2,-1
 338 1188 l 1,3,-1
 169 1188 l 1,0,-1
1014 1188 m 1,4,-1
 1014 1357 l 1,5,-1
 1182 1357 l 1,6,-1
 1182 1188 l 1,7,-1
 1014 1188 l 1,4,-1
169 1020 m 1,8,-1
 169 1188 l 1,9,-1
 338 1188 l 1,10,-1
 338 1020 l 1,11,-1
 169 1020 l 1,8,-1
1014 1020 m 1,12,-1
 1014 1188 l 1,13,-1
 1182 1188 l 1,14,-1
 1182 1020 l 1,15,-1
 1014 1020 l 1,12,-1
338 850 m 1,16,-1
 338 1020 l 1,17,-1
 507 1020 l 1,18,-1
 507 850 l 1,19,-1
 338 850 l 1,16,-1
845 850 m 1,20,-1
 845 1020 l 1,21,-1
 1014 1020 l 1,22,-1
 1014 850 l 1,23,-1
 845 850 l 1,20,-1
507 681 m 1,24,-1
 507 850 l 1,25,-1
 675 850 l 1,26,-1
 675 681 l 1,27,-1
 507 681 l 1,24,-1
675 681 m 1,28,-1
 675 850 l 1,29,-1
 845 850 l 1,30,-1
 845 681 l 1,31,-1
 675 681 l 1,28,-1
507 513 m 1,32,-1
 507 681 l 1,33,-1
 675 681 l 1,34,-1
 675 513 l 1,35,-1
 507 513 l 1,32,-1
675 513 m 1,36,-1
 675 681 l 1,37,-1
 845 681 l 1,38,-1
 845 513 l 1,39,-1
 675 513 l 1,36,-1
338 343 m 1,40,-1
 338 513 l 1,41,-1
 507 513 l 1,42,-1
 507 343 l 1,43,-1
 338 343 l 1,40,-1
845 343 m 1,44,-1
 845 513 l 1,45,-1
 1014 513 l 1,46,-1
 1014 343 l 1,47,-1
 845 343 l 1,44,-1
169 175 m 1,48,-1
 169 343 l 1,49,-1
 338 343 l 1,50,-1
 338 175 l 1,51,-1
 169 175 l 1,48,-1
1014 175 m 1,52,-1
 1014 343 l 1,53,-1
 1182 343 l 1,54,-1
 1182 175 l 1,55,-1
 1014 175 l 1,52,-1
169 6 m 1,56,-1
 169 175 l 1,57,-1
 338 175 l 1,58,59
 338 176 338 176 338 6 c 1,60,-1
 169 6 l 1,56,-1
1014 6 m 1,61,-1
 1014 175 l 1,62,-1
 1182 175 l 1,63,64
 1182 176 1182 176 1182 6 c 1,65,-1
 1014 6 l 1,61,-1
EndSplineSet
Validated: 37
EndChar

StartChar: Y
Encoding: 89 89 90
Width: 1182
VWidth: 2708
GlyphClass: 1
Flags: W
LayerCount: 2
Fore
SplineSet
0 1188 m 1,0,-1
 0 1357 l 1,1,-1
 169 1357 l 1,2,-1
 169 1188 l 1,3,-1
 0 1188 l 1,0,-1
1014 1188 m 1,4,-1
 1014 1357 l 1,5,-1
 1182 1357 l 1,6,-1
 1182 1188 l 1,7,-1
 1014 1188 l 1,4,-1
0 1020 m 1,8,-1
 0 1188 l 1,9,-1
 169 1188 l 1,10,-1
 169 1020 l 1,11,-1
 0 1020 l 1,8,-1
1014 1020 m 1,12,-1
 1014 1188 l 1,13,-1
 1182 1188 l 1,14,-1
 1182 1020 l 1,15,-1
 1014 1020 l 1,12,-1
169 850 m 1,16,-1
 169 1020 l 1,17,-1
 338 1020 l 1,18,-1
 338 850 l 1,19,-1
 169 850 l 1,16,-1
845 850 m 1,20,-1
 845 1020 l 1,21,-1
 1014 1020 l 1,22,-1
 1014 850 l 1,23,-1
 845 850 l 1,20,-1
338 681 m 1,24,-1
 338 850 l 1,25,-1
 507 850 l 1,26,-1
 507 681 l 1,27,-1
 338 681 l 1,24,-1
675 681 m 1,28,-1
 675 850 l 1,29,-1
 845 850 l 1,30,-1
 845 681 l 1,31,-1
 675 681 l 1,28,-1
507 513 m 1,32,-1
 507 681 l 1,33,-1
 675 681 l 1,34,-1
 675 513 l 1,35,-1
 507 513 l 1,32,-1
507 343 m 1,36,-1
 507 513 l 1,37,-1
 675 513 l 1,38,-1
 675 343 l 1,39,-1
 507 343 l 1,36,-1
507 175 m 1,40,-1
 507 343 l 1,41,-1
 675 343 l 1,42,-1
 675 175 l 1,43,-1
 507 175 l 1,40,-1
507 6 m 1,44,-1
 507 175 l 1,45,-1
 675 175 l 1,46,47
 675 176 675 176 675 6 c 1,48,-1
 507 6 l 1,44,-1
EndSplineSet
Validated: 37
EndChar

StartChar: Z
Encoding: 90 90 91
Width: 1182
VWidth: 2708
GlyphClass: 1
Flags: W
LayerCount: 2
Fore
SplineSet
169 1188 m 1,0,-1
 169 1357 l 1,1,-1
 338 1357 l 1,2,-1
 338 1188 l 1,3,-1
 169 1188 l 1,0,-1
338 1188 m 1,4,-1
 338 1357 l 1,5,-1
 507 1357 l 1,6,-1
 507 1188 l 1,7,-1
 338 1188 l 1,4,-1
507 1188 m 1,8,-1
 507 1357 l 1,9,-1
 675 1357 l 1,10,-1
 675 1188 l 1,11,-1
 507 1188 l 1,8,-1
675 1188 m 1,12,-1
 675 1357 l 1,13,-1
 845 1357 l 1,14,-1
 845 1188 l 1,15,-1
 675 1188 l 1,12,-1
845 1188 m 1,16,-1
 845 1357 l 1,17,-1
 1014 1357 l 1,18,-1
 1014 1188 l 1,19,-1
 845 1188 l 1,16,-1
1014 1188 m 1,20,-1
 1014 1357 l 1,21,-1
 1182 1357 l 1,22,-1
 1182 1188 l 1,23,-1
 1014 1188 l 1,20,-1
1014 1020 m 1,24,-1
 1014 1188 l 1,25,-1
 1182 1188 l 1,26,-1
 1182 1020 l 1,27,-1
 1014 1020 l 1,24,-1
845 850 m 1,28,-1
 845 1020 l 1,29,-1
 1014 1020 l 1,30,-1
 1014 850 l 1,31,-1
 845 850 l 1,28,-1
675 681 m 1,32,-1
 675 850 l 1,33,-1
 845 850 l 1,34,-1
 845 681 l 1,35,-1
 675 681 l 1,32,-1
507 513 m 1,36,-1
 507 681 l 1,37,-1
 675 681 l 1,38,-1
 675 513 l 1,39,-1
 507 513 l 1,36,-1
338 343 m 1,40,-1
 338 513 l 1,41,-1
 507 513 l 1,42,-1
 507 343 l 1,43,-1
 338 343 l 1,40,-1
169 175 m 1,44,-1
 169 343 l 1,45,-1
 338 343 l 1,46,-1
 338 175 l 1,47,-1
 169 175 l 1,44,-1
169 6 m 1,48,-1
 169 175 l 1,49,-1
 338 175 l 1,50,51
 338 176 338 176 338 6 c 1,52,-1
 169 6 l 1,48,-1
338 6 m 1,53,-1
 338 175 l 1,54,-1
 507 175 l 1,55,56
 507 176 507 176 507 6 c 1,57,-1
 338 6 l 1,53,-1
507 6 m 1,58,-1
 507 175 l 1,59,-1
 675 175 l 1,60,61
 675 176 675 176 675 6 c 1,62,-1
 507 6 l 1,58,-1
675 6 m 1,63,-1
 675 175 l 1,64,-1
 845 175 l 1,65,66
 845 176 845 176 845 6 c 1,67,-1
 675 6 l 1,63,-1
845 6 m 1,68,-1
 845 175 l 1,69,-1
 1014 175 l 1,70,71
 1014 176 1014 176 1014 6 c 1,72,-1
 845 6 l 1,68,-1
1014 6 m 1,73,-1
 1014 175 l 1,74,-1
 1182 175 l 1,75,76
 1182 176 1182 176 1182 6 c 1,77,-1
 1014 6 l 1,73,-1
EndSplineSet
Validated: 37
EndChar

StartChar: bracketleft
Encoding: 91 91 92
Width: 1182
VWidth: 2708
GlyphClass: 1
Flags: W
LayerCount: 2
Fore
SplineSet
338 1357 m 1,0,-1
 338 1526 l 1,1,-1
 507 1526 l 1,2,-1
 507 1357 l 1,3,-1
 338 1357 l 1,0,-1
507 1357 m 1,4,-1
 507 1526 l 1,5,-1
 675 1526 l 1,6,-1
 675 1357 l 1,7,-1
 507 1357 l 1,4,-1
675 1357 m 1,8,-1
 675 1526 l 1,9,-1
 845 1526 l 1,10,-1
 845 1357 l 1,11,-1
 675 1357 l 1,8,-1
338 1188 m 1,12,-1
 338 1357 l 1,13,-1
 507 1357 l 1,14,-1
 507 1188 l 1,15,-1
 338 1188 l 1,12,-1
338 1020 m 1,16,-1
 338 1188 l 1,17,-1
 507 1188 l 1,18,-1
 507 1020 l 1,19,-1
 338 1020 l 1,16,-1
338 850 m 1,20,-1
 338 1020 l 1,21,-1
 507 1020 l 1,22,-1
 507 850 l 1,23,-1
 338 850 l 1,20,-1
338 681 m 1,24,-1
 338 850 l 1,25,-1
 507 850 l 1,26,-1
 507 681 l 1,27,-1
 338 681 l 1,24,-1
338 513 m 1,28,-1
 338 681 l 1,29,-1
 507 681 l 1,30,-1
 507 513 l 1,31,-1
 338 513 l 1,28,-1
338 343 m 1,32,-1
 338 513 l 1,33,-1
 507 513 l 1,34,-1
 507 343 l 1,35,-1
 338 343 l 1,32,-1
338 175 m 1,36,-1
 338 343 l 1,37,-1
 507 343 l 1,38,-1
 507 175 l 1,39,-1
 338 175 l 1,36,-1
338 6 m 1,40,-1
 338 175 l 1,41,-1
 507 175 l 1,42,43
 507 176 507 176 507 6 c 1,44,-1
 338 6 l 1,40,-1
338 -164 m 1,45,-1
 338 6 l 1,46,-1
 507 6 l 1,47,-1
 507 -164 l 1,48,-1
 338 -164 l 1,45,-1
338 -332 m 1,49,-1
 338 -164 l 1,50,-1
 507 -164 l 1,51,-1
 507 -332 l 1,52,-1
 338 -332 l 1,49,-1
507 -332 m 1,53,-1
 507 -164 l 1,54,-1
 675 -164 l 1,55,-1
 675 -332 l 1,56,-1
 507 -332 l 1,53,-1
675 -332 m 1,57,-1
 675 -164 l 1,58,-1
 845 -164 l 1,59,-1
 845 -332 l 1,60,-1
 675 -332 l 1,57,-1
EndSplineSet
Validated: 37
EndChar

StartChar: backslash
Encoding: 92 92 93
Width: 1182
VWidth: 2708
GlyphClass: 1
Flags: W
LayerCount: 2
Fore
SplineSet
169 1357 m 1,0,-1
 169 1526 l 1,1,-1
 338 1526 l 1,2,-1
 338 1357 l 1,3,-1
 169 1357 l 1,0,-1
169 1188 m 1,4,-1
 169 1357 l 1,5,-1
 338 1357 l 1,6,-1
 338 1188 l 1,7,-1
 169 1188 l 1,4,-1
338 1020 m 1,8,-1
 338 1188 l 1,9,-1
 507 1188 l 1,10,-1
 507 1020 l 1,11,-1
 338 1020 l 1,8,-1
338 850 m 1,12,-1
 338 1020 l 1,13,-1
 507 1020 l 1,14,-1
 507 850 l 1,15,-1
 338 850 l 1,12,-1
507 681 m 1,16,-1
 507 850 l 1,17,-1
 675 850 l 1,18,-1
 675 681 l 1,19,-1
 507 681 l 1,16,-1
507 513 m 1,20,-1
 507 681 l 1,21,-1
 675 681 l 1,22,-1
 675 513 l 1,23,-1
 507 513 l 1,20,-1
675 343 m 1,24,-1
 675 513 l 1,25,-1
 845 513 l 1,26,-1
 845 343 l 1,27,-1
 675 343 l 1,24,-1
675 175 m 1,28,-1
 675 343 l 1,29,-1
 845 343 l 1,30,-1
 845 175 l 1,31,-1
 675 175 l 1,28,-1
845 6 m 1,32,-1
 845 175 l 1,33,-1
 1014 175 l 1,34,35
 1014 176 1014 176 1014 6 c 1,36,-1
 845 6 l 1,32,-1
845 -164 m 1,37,-1
 845 6 l 1,38,-1
 1014 6 l 1,39,-1
 1014 -164 l 1,40,-1
 845 -164 l 1,37,-1
EndSplineSet
Validated: 37
EndChar

StartChar: bracketright
Encoding: 93 93 94
Width: 1182
VWidth: 2708
GlyphClass: 1
Flags: W
LayerCount: 2
Fore
SplineSet
338 1357 m 1,0,-1
 338 1526 l 1,1,-1
 507 1526 l 1,2,-1
 507 1357 l 1,3,-1
 338 1357 l 1,0,-1
507 1357 m 1,4,-1
 507 1526 l 1,5,-1
 675 1526 l 1,6,-1
 675 1357 l 1,7,-1
 507 1357 l 1,4,-1
675 1357 m 1,8,-1
 675 1526 l 1,9,-1
 845 1526 l 1,10,-1
 845 1357 l 1,11,-1
 675 1357 l 1,8,-1
675 1188 m 1,12,-1
 675 1357 l 1,13,-1
 845 1357 l 1,14,-1
 845 1188 l 1,15,-1
 675 1188 l 1,12,-1
675 1020 m 1,16,-1
 675 1188 l 1,17,-1
 845 1188 l 1,18,-1
 845 1020 l 1,19,-1
 675 1020 l 1,16,-1
675 850 m 1,20,-1
 675 1020 l 1,21,-1
 845 1020 l 1,22,-1
 845 850 l 1,23,-1
 675 850 l 1,20,-1
675 681 m 1,24,-1
 675 850 l 1,25,-1
 845 850 l 1,26,-1
 845 681 l 1,27,-1
 675 681 l 1,24,-1
675 513 m 1,28,-1
 675 681 l 1,29,-1
 845 681 l 1,30,-1
 845 513 l 1,31,-1
 675 513 l 1,28,-1
675 343 m 1,32,-1
 675 513 l 1,33,-1
 845 513 l 1,34,-1
 845 343 l 1,35,-1
 675 343 l 1,32,-1
675 175 m 1,36,-1
 675 343 l 1,37,-1
 845 343 l 1,38,-1
 845 175 l 1,39,-1
 675 175 l 1,36,-1
675 6 m 1,40,-1
 675 175 l 1,41,-1
 845 175 l 1,42,43
 845 176 845 176 845 6 c 1,44,-1
 675 6 l 1,40,-1
675 -164 m 1,45,-1
 675 6 l 1,46,-1
 845 6 l 1,47,-1
 845 -164 l 1,48,-1
 675 -164 l 1,45,-1
338 -332 m 1,49,-1
 338 -164 l 1,50,-1
 507 -164 l 1,51,-1
 507 -332 l 1,52,-1
 338 -332 l 1,49,-1
507 -332 m 1,53,-1
 507 -164 l 1,54,-1
 675 -164 l 1,55,-1
 675 -332 l 1,56,-1
 507 -332 l 1,53,-1
675 -332 m 1,57,-1
 675 -164 l 1,58,-1
 845 -164 l 1,59,-1
 845 -332 l 1,60,-1
 675 -332 l 1,57,-1
EndSplineSet
Validated: 37
EndChar

StartChar: asciicircum
Encoding: 94 94 95
Width: 1182
VWidth: 2708
GlyphClass: 1
Flags: W
LayerCount: 2
Fore
SplineSet
507 1357 m 1,0,-1
 507 1526 l 1,1,-1
 675 1526 l 1,2,-1
 675 1357 l 1,3,-1
 507 1357 l 1,0,-1
507 1188 m 1,4,-1
 507 1357 l 1,5,-1
 675 1357 l 1,6,-1
 675 1188 l 1,7,-1
 507 1188 l 1,4,-1
338 1020 m 1,8,-1
 338 1188 l 1,9,-1
 507 1188 l 1,10,-1
 507 1020 l 1,11,-1
 338 1020 l 1,8,-1
675 1020 m 1,12,-1
 675 1188 l 1,13,-1
 845 1188 l 1,14,-1
 845 1020 l 1,15,-1
 675 1020 l 1,12,-1
338 850 m 1,16,-1
 338 1020 l 1,17,-1
 507 1020 l 1,18,-1
 507 850 l 1,19,-1
 338 850 l 1,16,-1
675 850 m 1,20,-1
 675 1020 l 1,21,-1
 845 1020 l 1,22,-1
 845 850 l 1,23,-1
 675 850 l 1,20,-1
169 681 m 1,24,-1
 169 850 l 1,25,-1
 338 850 l 1,26,-1
 338 681 l 1,27,-1
 169 681 l 1,24,-1
845 681 m 1,28,-1
 845 850 l 1,29,-1
 1014 850 l 1,30,-1
 1014 681 l 1,31,-1
 845 681 l 1,28,-1
169 513 m 1,32,-1
 169 681 l 1,33,-1
 338 681 l 1,34,-1
 338 513 l 1,35,-1
 169 513 l 1,32,-1
845 513 m 1,36,-1
 845 681 l 1,37,-1
 1014 681 l 1,38,-1
 1014 513 l 1,39,-1
 845 513 l 1,36,-1
EndSplineSet
Validated: 5
EndChar

StartChar: underscore
Encoding: 95 95 96
Width: 1182
VWidth: 2708
GlyphClass: 1
Flags: W
LayerCount: 2
Fore
SplineSet
0 -164 m 1,0,-1
 0 6 l 1,1,-1
 169 6 l 1,2,-1
 169 -164 l 1,3,-1
 0 -164 l 1,0,-1
169 -164 m 1,4,-1
 169 6 l 1,5,-1
 338 6 l 1,6,-1
 338 -164 l 1,7,-1
 169 -164 l 1,4,-1
338 -164 m 1,8,-1
 338 6 l 1,9,-1
 507 6 l 1,10,-1
 507 -164 l 1,11,-1
 338 -164 l 1,8,-1
507 -164 m 1,12,-1
 507 6 l 1,13,-1
 675 6 l 1,14,-1
 675 -164 l 1,15,-1
 507 -164 l 1,12,-1
675 -164 m 1,16,-1
 675 6 l 1,17,-1
 845 6 l 1,18,-1
 845 -164 l 1,19,-1
 675 -164 l 1,16,-1
845 -164 m 1,20,-1
 845 6 l 1,21,-1
 1014 6 l 1,22,-1
 1014 -164 l 1,23,-1
 845 -164 l 1,20,-1
1014 -164 m 1,24,-1
 1014 6 l 1,25,-1
 1182 6 l 1,26,-1
 1182 -164 l 1,27,-1
 1014 -164 l 1,24,-1
EndSplineSet
Validated: 5
EndChar

StartChar: grave
Encoding: 96 96 97
Width: 1182
VWidth: 2708
GlyphClass: 1
Flags: W
LayerCount: 2
Fore
SplineSet
338 1357 m 1,0,-1
 338 1526 l 1,1,-1
 507 1526 l 1,2,-1
 507 1357 l 1,3,-1
 338 1357 l 1,0,-1
507 1188 m 1,4,-1
 507 1357 l 1,5,-1
 675 1357 l 1,6,-1
 675 1188 l 1,7,-1
 507 1188 l 1,4,-1
EndSplineSet
Validated: 5
EndChar

StartChar: a
Encoding: 97 97 98
Width: 1182
VWidth: 2708
GlyphClass: 1
Flags: W
LayerCount: 2
Fore
SplineSet
338 850 m 1,0,-1
 338 1020 l 1,1,-1
 507 1020 l 1,2,-1
 507 850 l 1,3,-1
 338 850 l 1,0,-1
507 850 m 1,4,-1
 507 1020 l 1,5,-1
 675 1020 l 1,6,-1
 675 850 l 1,7,-1
 507 850 l 1,4,-1
675 850 m 1,8,-1
 675 1020 l 1,9,-1
 845 1020 l 1,10,-1
 845 850 l 1,11,-1
 675 850 l 1,8,-1
845 681 m 1,12,-1
 845 850 l 1,13,-1
 1014 850 l 1,14,-1
 1014 681 l 1,15,-1
 845 681 l 1,12,-1
338 513 m 1,16,-1
 338 681 l 1,17,-1
 507 681 l 1,18,-1
 507 513 l 1,19,-1
 338 513 l 1,16,-1
507 513 m 1,20,-1
 507 681 l 1,21,-1
 675 681 l 1,22,-1
 675 513 l 1,23,-1
 507 513 l 1,20,-1
675 513 m 1,24,-1
 675 681 l 1,25,-1
 845 681 l 1,26,-1
 845 513 l 1,27,-1
 675 513 l 1,24,-1
845 513 m 1,28,-1
 845 681 l 1,29,-1
 1014 681 l 1,30,-1
 1014 513 l 1,31,-1
 845 513 l 1,28,-1
169 343 m 1,32,-1
 169 513 l 1,33,-1
 338 513 l 1,34,-1
 338 343 l 1,35,-1
 169 343 l 1,32,-1
845 343 m 1,36,-1
 845 513 l 1,37,-1
 1014 513 l 1,38,-1
 1014 343 l 1,39,-1
 845 343 l 1,36,-1
169 175 m 1,40,-1
 169 343 l 1,41,-1
 338 343 l 1,42,-1
 338 175 l 1,43,-1
 169 175 l 1,40,-1
845 175 m 1,44,-1
 845 343 l 1,45,-1
 1014 343 l 1,46,-1
 1014 175 l 1,47,-1
 845 175 l 1,44,-1
338 6 m 1,48,-1
 338 175 l 1,49,-1
 507 175 l 1,50,51
 507 176 507 176 507 6 c 1,52,-1
 338 6 l 1,48,-1
507 6 m 1,53,-1
 507 175 l 1,54,-1
 675 175 l 1,55,56
 675 176 675 176 675 6 c 1,57,-1
 507 6 l 1,53,-1
675 6 m 1,58,-1
 675 175 l 1,59,-1
 845 175 l 1,60,61
 845 176 845 176 845 6 c 1,62,-1
 675 6 l 1,58,-1
845 6 m 1,63,-1
 845 175 l 1,64,-1
 1014 175 l 1,65,66
 1014 176 1014 176 1014 6 c 1,67,-1
 845 6 l 1,63,-1
EndSplineSet
Validated: 37
EndChar

StartChar: b
Encoding: 98 98 99
Width: 1182
VWidth: 2708
GlyphClass: 1
Flags: W
LayerCount: 2
Fore
SplineSet
169 1357 m 1,0,-1
 169 1526 l 1,1,-1
 338 1526 l 1,2,-1
 338 1357 l 1,3,-1
 169 1357 l 1,0,-1
169 1188 m 1,4,-1
 169 1357 l 1,5,-1
 338 1357 l 1,6,-1
 338 1188 l 1,7,-1
 169 1188 l 1,4,-1
169 1020 m 1,8,-1
 169 1188 l 1,9,-1
 338 1188 l 1,10,-1
 338 1020 l 1,11,-1
 169 1020 l 1,8,-1
169 850 m 1,12,-1
 169 1020 l 1,13,-1
 338 1020 l 1,14,-1
 338 850 l 1,15,-1
 169 850 l 1,12,-1
338 850 m 1,16,-1
 338 1020 l 1,17,-1
 507 1020 l 1,18,-1
 507 850 l 1,19,-1
 338 850 l 1,16,-1
507 850 m 1,20,-1
 507 1020 l 1,21,-1
 675 1020 l 1,22,-1
 675 850 l 1,23,-1
 507 850 l 1,20,-1
675 850 m 1,24,-1
 675 1020 l 1,25,-1
 845 1020 l 1,26,-1
 845 850 l 1,27,-1
 675 850 l 1,24,-1
169 681 m 1,28,-1
 169 850 l 1,29,-1
 338 850 l 1,30,-1
 338 681 l 1,31,-1
 169 681 l 1,28,-1
845 681 m 1,32,-1
 845 850 l 1,33,-1
 1014 850 l 1,34,-1
 1014 681 l 1,35,-1
 845 681 l 1,32,-1
169 513 m 1,36,-1
 169 681 l 1,37,-1
 338 681 l 1,38,-1
 338 513 l 1,39,-1
 169 513 l 1,36,-1
845 513 m 1,40,-1
 845 681 l 1,41,-1
 1014 681 l 1,42,-1
 1014 513 l 1,43,-1
 845 513 l 1,40,-1
169 343 m 1,44,-1
 169 513 l 1,45,-1
 338 513 l 1,46,-1
 338 343 l 1,47,-1
 169 343 l 1,44,-1
845 343 m 1,48,-1
 845 513 l 1,49,-1
 1014 513 l 1,50,-1
 1014 343 l 1,51,-1
 845 343 l 1,48,-1
169 175 m 1,52,-1
 169 343 l 1,53,-1
 338 343 l 1,54,-1
 338 175 l 1,55,-1
 169 175 l 1,52,-1
845 175 m 1,56,-1
 845 343 l 1,57,-1
 1014 343 l 1,58,-1
 1014 175 l 1,59,-1
 845 175 l 1,56,-1
169 6 m 1,60,-1
 169 175 l 1,61,-1
 338 175 l 1,62,63
 338 176 338 176 338 6 c 1,64,-1
 169 6 l 1,60,-1
338 6 m 1,65,-1
 338 175 l 1,66,-1
 507 175 l 1,67,68
 507 176 507 176 507 6 c 1,69,-1
 338 6 l 1,65,-1
507 6 m 1,70,-1
 507 175 l 1,71,-1
 675 175 l 1,72,73
 675 176 675 176 675 6 c 1,74,-1
 507 6 l 1,70,-1
675 6 m 1,75,-1
 675 175 l 1,76,-1
 845 175 l 1,77,78
 845 176 845 176 845 6 c 1,79,-1
 675 6 l 1,75,-1
EndSplineSet
Validated: 37
EndChar

StartChar: c
Encoding: 99 99 100
Width: 1182
VWidth: 2708
GlyphClass: 1
Flags: W
LayerCount: 2
Fore
SplineSet
338 850 m 1,0,-1
 338 1020 l 1,1,-1
 507 1020 l 1,2,-1
 507 850 l 1,3,-1
 338 850 l 1,0,-1
507 850 m 1,4,-1
 507 1020 l 1,5,-1
 675 1020 l 1,6,-1
 675 850 l 1,7,-1
 507 850 l 1,4,-1
675 850 m 1,8,-1
 675 1020 l 1,9,-1
 845 1020 l 1,10,-1
 845 850 l 1,11,-1
 675 850 l 1,8,-1
169 681 m 1,12,-1
 169 850 l 1,13,-1
 338 850 l 1,14,-1
 338 681 l 1,15,-1
 169 681 l 1,12,-1
845 681 m 1,16,-1
 845 850 l 1,17,-1
 1014 850 l 1,18,-1
 1014 681 l 1,19,-1
 845 681 l 1,16,-1
169 513 m 1,20,-1
 169 681 l 1,21,-1
 338 681 l 1,22,-1
 338 513 l 1,23,-1
 169 513 l 1,20,-1
169 343 m 1,24,-1
 169 513 l 1,25,-1
 338 513 l 1,26,-1
 338 343 l 1,27,-1
 169 343 l 1,24,-1
169 175 m 1,28,-1
 169 343 l 1,29,-1
 338 343 l 1,30,-1
 338 175 l 1,31,-1
 169 175 l 1,28,-1
845 175 m 1,32,-1
 845 343 l 1,33,-1
 1014 343 l 1,34,-1
 1014 175 l 1,35,-1
 845 175 l 1,32,-1
338 6 m 1,36,-1
 338 175 l 1,37,-1
 507 175 l 1,38,39
 507 176 507 176 507 6 c 1,40,-1
 338 6 l 1,36,-1
507 6 m 1,41,-1
 507 175 l 1,42,-1
 675 175 l 1,43,44
 675 176 675 176 675 6 c 1,45,-1
 507 6 l 1,41,-1
675 6 m 1,46,-1
 675 175 l 1,47,-1
 845 175 l 1,48,49
 845 176 845 176 845 6 c 1,50,-1
 675 6 l 1,46,-1
EndSplineSet
Validated: 37
EndChar

StartChar: d
Encoding: 100 100 101
Width: 1182
VWidth: 2708
GlyphClass: 1
Flags: W
LayerCount: 2
Fore
SplineSet
845 1357 m 1,0,-1
 845 1526 l 1,1,-1
 1014 1526 l 1,2,-1
 1014 1357 l 1,3,-1
 845 1357 l 1,0,-1
845 1188 m 1,4,-1
 845 1357 l 1,5,-1
 1014 1357 l 1,6,-1
 1014 1188 l 1,7,-1
 845 1188 l 1,4,-1
845 1020 m 1,8,-1
 845 1188 l 1,9,-1
 1014 1188 l 1,10,-1
 1014 1020 l 1,11,-1
 845 1020 l 1,8,-1
338 850 m 1,12,-1
 338 1020 l 1,13,-1
 507 1020 l 1,14,-1
 507 850 l 1,15,-1
 338 850 l 1,12,-1
507 850 m 1,16,-1
 507 1020 l 1,17,-1
 675 1020 l 1,18,-1
 675 850 l 1,19,-1
 507 850 l 1,16,-1
675 850 m 1,20,-1
 675 1020 l 1,21,-1
 845 1020 l 1,22,-1
 845 850 l 1,23,-1
 675 850 l 1,20,-1
845 850 m 1,24,-1
 845 1020 l 1,25,-1
 1014 1020 l 1,26,-1
 1014 850 l 1,27,-1
 845 850 l 1,24,-1
169 681 m 1,28,-1
 169 850 l 1,29,-1
 338 850 l 1,30,-1
 338 681 l 1,31,-1
 169 681 l 1,28,-1
845 681 m 1,32,-1
 845 850 l 1,33,-1
 1014 850 l 1,34,-1
 1014 681 l 1,35,-1
 845 681 l 1,32,-1
169 513 m 1,36,-1
 169 681 l 1,37,-1
 338 681 l 1,38,-1
 338 513 l 1,39,-1
 169 513 l 1,36,-1
845 513 m 1,40,-1
 845 681 l 1,41,-1
 1014 681 l 1,42,-1
 1014 513 l 1,43,-1
 845 513 l 1,40,-1
169 343 m 1,44,-1
 169 513 l 1,45,-1
 338 513 l 1,46,-1
 338 343 l 1,47,-1
 169 343 l 1,44,-1
845 343 m 1,48,-1
 845 513 l 1,49,-1
 1014 513 l 1,50,-1
 1014 343 l 1,51,-1
 845 343 l 1,48,-1
169 175 m 1,52,-1
 169 343 l 1,53,-1
 338 343 l 1,54,-1
 338 175 l 1,55,-1
 169 175 l 1,52,-1
845 175 m 1,56,-1
 845 343 l 1,57,-1
 1014 343 l 1,58,-1
 1014 175 l 1,59,-1
 845 175 l 1,56,-1
338 6 m 1,60,-1
 338 175 l 1,61,-1
 507 175 l 1,62,63
 507 176 507 176 507 6 c 1,64,-1
 338 6 l 1,60,-1
507 6 m 1,65,-1
 507 175 l 1,66,-1
 675 175 l 1,67,68
 675 176 675 176 675 6 c 1,69,-1
 507 6 l 1,65,-1
675 6 m 1,70,-1
 675 175 l 1,71,-1
 845 175 l 1,72,73
 845 176 845 176 845 6 c 1,74,-1
 675 6 l 1,70,-1
845 6 m 1,75,-1
 845 175 l 1,76,-1
 1014 175 l 1,77,78
 1014 176 1014 176 1014 6 c 1,79,-1
 845 6 l 1,75,-1
EndSplineSet
Validated: 37
EndChar

StartChar: e
Encoding: 101 101 102
Width: 1182
VWidth: 2708
GlyphClass: 1
Flags: W
LayerCount: 2
Fore
SplineSet
338 850 m 1,0,-1
 338 1020 l 1,1,-1
 507 1020 l 1,2,-1
 507 850 l 1,3,-1
 338 850 l 1,0,-1
507 850 m 1,4,-1
 507 1020 l 1,5,-1
 675 1020 l 1,6,-1
 675 850 l 1,7,-1
 507 850 l 1,4,-1
675 850 m 1,8,-1
 675 1020 l 1,9,-1
 845 1020 l 1,10,-1
 845 850 l 1,11,-1
 675 850 l 1,8,-1
169 681 m 1,12,-1
 169 850 l 1,13,-1
 338 850 l 1,14,-1
 338 681 l 1,15,-1
 169 681 l 1,12,-1
845 681 m 1,16,-1
 845 850 l 1,17,-1
 1014 850 l 1,18,-1
 1014 681 l 1,19,-1
 845 681 l 1,16,-1
169 513 m 1,20,-1
 169 681 l 1,21,-1
 338 681 l 1,22,-1
 338 513 l 1,23,-1
 169 513 l 1,20,-1
338 513 m 1,24,-1
 338 681 l 1,25,-1
 507 681 l 1,26,-1
 507 513 l 1,27,-1
 338 513 l 1,24,-1
507 513 m 1,28,-1
 507 681 l 1,29,-1
 675 681 l 1,30,-1
 675 513 l 1,31,-1
 507 513 l 1,28,-1
675 513 m 1,32,-1
 675 681 l 1,33,-1
 845 681 l 1,34,-1
 845 513 l 1,35,-1
 675 513 l 1,32,-1
845 513 m 1,36,-1
 845 681 l 1,37,-1
 1014 681 l 1,38,-1
 1014 513 l 1,39,-1
 845 513 l 1,36,-1
169 343 m 1,40,-1
 169 513 l 1,41,-1
 338 513 l 1,42,-1
 338 343 l 1,43,-1
 169 343 l 1,40,-1
169 175 m 1,44,-1
 169 343 l 1,45,-1
 338 343 l 1,46,-1
 338 175 l 1,47,-1
 169 175 l 1,44,-1
845 175 m 1,48,-1
 845 343 l 1,49,-1
 1014 343 l 1,50,-1
 1014 175 l 1,51,-1
 845 175 l 1,48,-1
338 6 m 1,52,-1
 338 175 l 1,53,-1
 507 175 l 1,54,55
 507 176 507 176 507 6 c 1,56,-1
 338 6 l 1,52,-1
507 6 m 1,57,-1
 507 175 l 1,58,-1
 675 175 l 1,59,60
 675 176 675 176 675 6 c 1,61,-1
 507 6 l 1,57,-1
675 6 m 1,62,-1
 675 175 l 1,63,-1
 845 175 l 1,64,65
 845 176 845 176 845 6 c 1,66,-1
 675 6 l 1,62,-1
EndSplineSet
Validated: 37
EndChar

StartChar: f
Encoding: 102 102 103
Width: 1182
VWidth: 2708
GlyphClass: 1
Flags: W
LayerCount: 2
Fore
SplineSet
507 1357 m 1,0,-1
 507 1526 l 1,1,-1
 675 1526 l 1,2,-1
 675 1357 l 1,3,-1
 507 1357 l 1,0,-1
675 1357 m 1,4,-1
 675 1526 l 1,5,-1
 845 1526 l 1,6,-1
 845 1357 l 1,7,-1
 675 1357 l 1,4,-1
845 1357 m 1,8,-1
 845 1526 l 1,9,-1
 1014 1526 l 1,10,-1
 1014 1357 l 1,11,-1
 845 1357 l 1,8,-1
338 1188 m 1,12,-1
 338 1357 l 1,13,-1
 507 1357 l 1,14,-1
 507 1188 l 1,15,-1
 338 1188 l 1,12,-1
338 1020 m 1,16,-1
 338 1188 l 1,17,-1
 507 1188 l 1,18,-1
 507 1020 l 1,19,-1
 338 1020 l 1,16,-1
169 850 m 1,20,-1
 169 1020 l 1,21,-1
 338 1020 l 1,22,-1
 338 850 l 1,23,-1
 169 850 l 1,20,-1
338 850 m 1,24,-1
 338 1020 l 1,25,-1
 507 1020 l 1,26,-1
 507 850 l 1,27,-1
 338 850 l 1,24,-1
507 850 m 1,28,-1
 507 1020 l 1,29,-1
 675 1020 l 1,30,-1
 675 850 l 1,31,-1
 507 850 l 1,28,-1
675 850 m 1,32,-1
 675 1020 l 1,33,-1
 845 1020 l 1,34,-1
 845 850 l 1,35,-1
 675 850 l 1,32,-1
338 681 m 1,36,-1
 338 850 l 1,37,-1
 507 850 l 1,38,-1
 507 681 l 1,39,-1
 338 681 l 1,36,-1
338 513 m 1,40,-1
 338 681 l 1,41,-1
 507 681 l 1,42,-1
 507 513 l 1,43,-1
 338 513 l 1,40,-1
338 343 m 1,44,-1
 338 513 l 1,45,-1
 507 513 l 1,46,-1
 507 343 l 1,47,-1
 338 343 l 1,44,-1
338 175 m 1,48,-1
 338 343 l 1,49,-1
 507 343 l 1,50,-1
 507 175 l 1,51,-1
 338 175 l 1,48,-1
338 6 m 1,52,-1
 338 175 l 1,53,-1
 507 175 l 1,54,55
 507 176 507 176 507 6 c 1,56,-1
 338 6 l 1,52,-1
EndSplineSet
Validated: 37
EndChar

StartChar: g
Encoding: 103 103 104
Width: 1182
VWidth: 2708
GlyphClass: 1
Flags: W
LayerCount: 2
Fore
SplineSet
338 850 m 1,0,-1
 338 1020 l 1,1,-1
 507 1020 l 1,2,-1
 507 850 l 1,3,-1
 338 850 l 1,0,-1
507 850 m 1,4,-1
 507 1020 l 1,5,-1
 675 1020 l 1,6,-1
 675 850 l 1,7,-1
 507 850 l 1,4,-1
675 850 m 1,8,-1
 675 1020 l 1,9,-1
 845 1020 l 1,10,-1
 845 850 l 1,11,-1
 675 850 l 1,8,-1
845 850 m 1,12,-1
 845 1020 l 1,13,-1
 1014 1020 l 1,14,-1
 1014 850 l 1,15,-1
 845 850 l 1,12,-1
169 681 m 1,16,-1
 169 850 l 1,17,-1
 338 850 l 1,18,-1
 338 681 l 1,19,-1
 169 681 l 1,16,-1
845 681 m 1,20,-1
 845 850 l 1,21,-1
 1014 850 l 1,22,-1
 1014 681 l 1,23,-1
 845 681 l 1,20,-1
169 513 m 1,24,-1
 169 681 l 1,25,-1
 338 681 l 1,26,-1
 338 513 l 1,27,-1
 169 513 l 1,24,-1
845 513 m 1,28,-1
 845 681 l 1,29,-1
 1014 681 l 1,30,-1
 1014 513 l 1,31,-1
 845 513 l 1,28,-1
169 343 m 1,32,-1
 169 513 l 1,33,-1
 338 513 l 1,34,-1
 338 343 l 1,35,-1
 169 343 l 1,32,-1
845 343 m 1,36,-1
 845 513 l 1,37,-1
 1014 513 l 1,38,-1
 1014 343 l 1,39,-1
 845 343 l 1,36,-1
169 175 m 1,40,-1
 169 343 l 1,41,-1
 338 343 l 1,42,-1
 338 175 l 1,43,-1
 169 175 l 1,40,-1
845 175 m 1,44,-1
 845 343 l 1,45,-1
 1014 343 l 1,46,-1
 1014 175 l 1,47,-1
 845 175 l 1,44,-1
338 6 m 1,48,-1
 338 175 l 1,49,-1
 507 175 l 1,50,51
 507 176 507 176 507 6 c 1,52,-1
 338 6 l 1,48,-1
507 6 m 1,53,-1
 507 175 l 1,54,-1
 675 175 l 1,55,56
 675 176 675 176 675 6 c 1,57,-1
 507 6 l 1,53,-1
675 6 m 1,58,-1
 675 175 l 1,59,-1
 845 175 l 1,60,61
 845 176 845 176 845 6 c 1,62,-1
 675 6 l 1,58,-1
845 6 m 1,63,-1
 845 175 l 1,64,-1
 1014 175 l 1,65,66
 1014 176 1014 176 1014 6 c 1,67,-1
 845 6 l 1,63,-1
845 -164 m 1,68,-1
 845 6 l 1,69,-1
 1014 6 l 1,70,-1
 1014 -164 l 1,71,-1
 845 -164 l 1,68,-1
845 -332 m 1,72,-1
 845 -164 l 1,73,-1
 1014 -164 l 1,74,-1
 1014 -332 l 1,75,-1
 845 -332 l 1,72,-1
338 -502 m 1,76,-1
 338 -332 l 1,77,-1
 507 -332 l 1,78,-1
 507 -502 l 1,79,-1
 338 -502 l 1,76,-1
507 -502 m 1,80,-1
 507 -332 l 1,81,-1
 675 -332 l 1,82,-1
 675 -502 l 1,83,-1
 507 -502 l 1,80,-1
675 -502 m 1,84,-1
 675 -332 l 1,85,-1
 845 -332 l 1,86,-1
 845 -502 l 1,87,-1
 675 -502 l 1,84,-1
EndSplineSet
Validated: 37
EndChar

StartChar: h
Encoding: 104 104 105
Width: 1182
VWidth: 2708
GlyphClass: 1
Flags: W
LayerCount: 2
Fore
SplineSet
169 1357 m 1,0,-1
 169 1526 l 1,1,-1
 338 1526 l 1,2,-1
 338 1357 l 1,3,-1
 169 1357 l 1,0,-1
169 1188 m 1,4,-1
 169 1357 l 1,5,-1
 338 1357 l 1,6,-1
 338 1188 l 1,7,-1
 169 1188 l 1,4,-1
169 1020 m 1,8,-1
 169 1188 l 1,9,-1
 338 1188 l 1,10,-1
 338 1020 l 1,11,-1
 169 1020 l 1,8,-1
169 850 m 1,12,-1
 169 1020 l 1,13,-1
 338 1020 l 1,14,-1
 338 850 l 1,15,-1
 169 850 l 1,12,-1
338 850 m 1,16,-1
 338 1020 l 1,17,-1
 507 1020 l 1,18,-1
 507 850 l 1,19,-1
 338 850 l 1,16,-1
507 850 m 1,20,-1
 507 1020 l 1,21,-1
 675 1020 l 1,22,-1
 675 850 l 1,23,-1
 507 850 l 1,20,-1
675 850 m 1,24,-1
 675 1020 l 1,25,-1
 845 1020 l 1,26,-1
 845 850 l 1,27,-1
 675 850 l 1,24,-1
169 681 m 1,28,-1
 169 850 l 1,29,-1
 338 850 l 1,30,-1
 338 681 l 1,31,-1
 169 681 l 1,28,-1
845 681 m 1,32,-1
 845 850 l 1,33,-1
 1014 850 l 1,34,-1
 1014 681 l 1,35,-1
 845 681 l 1,32,-1
169 513 m 1,36,-1
 169 681 l 1,37,-1
 338 681 l 1,38,-1
 338 513 l 1,39,-1
 169 513 l 1,36,-1
845 513 m 1,40,-1
 845 681 l 1,41,-1
 1014 681 l 1,42,-1
 1014 513 l 1,43,-1
 845 513 l 1,40,-1
169 343 m 1,44,-1
 169 513 l 1,45,-1
 338 513 l 1,46,-1
 338 343 l 1,47,-1
 169 343 l 1,44,-1
845 343 m 1,48,-1
 845 513 l 1,49,-1
 1014 513 l 1,50,-1
 1014 343 l 1,51,-1
 845 343 l 1,48,-1
169 175 m 1,52,-1
 169 343 l 1,53,-1
 338 343 l 1,54,-1
 338 175 l 1,55,-1
 169 175 l 1,52,-1
845 175 m 1,56,-1
 845 343 l 1,57,-1
 1014 343 l 1,58,-1
 1014 175 l 1,59,-1
 845 175 l 1,56,-1
169 6 m 1,60,-1
 169 175 l 1,61,-1
 338 175 l 1,62,63
 338 176 338 176 338 6 c 1,64,-1
 169 6 l 1,60,-1
845 6 m 1,65,-1
 845 175 l 1,66,-1
 1014 175 l 1,67,68
 1014 176 1014 176 1014 6 c 1,69,-1
 845 6 l 1,65,-1
EndSplineSet
Validated: 37
EndChar

StartChar: i
Encoding: 105 105 106
Width: 1182
VWidth: 2708
GlyphClass: 1
Flags: W
LayerCount: 2
Fore
SplineSet
507 1357 m 1,0,-1
 507 1526 l 1,1,-1
 675 1526 l 1,2,-1
 675 1357 l 1,3,-1
 507 1357 l 1,0,-1
338 850 m 1,4,-1
 338 1020 l 1,5,-1
 507 1020 l 1,6,-1
 507 850 l 1,7,-1
 338 850 l 1,4,-1
507 850 m 1,8,-1
 507 1020 l 1,9,-1
 675 1020 l 1,10,-1
 675 850 l 1,11,-1
 507 850 l 1,8,-1
507 681 m 1,12,-1
 507 850 l 1,13,-1
 675 850 l 1,14,-1
 675 681 l 1,15,-1
 507 681 l 1,12,-1
507 513 m 1,16,-1
 507 681 l 1,17,-1
 675 681 l 1,18,-1
 675 513 l 1,19,-1
 507 513 l 1,16,-1
507 343 m 1,20,-1
 507 513 l 1,21,-1
 675 513 l 1,22,-1
 675 343 l 1,23,-1
 507 343 l 1,20,-1
507 175 m 1,24,-1
 507 343 l 1,25,-1
 675 343 l 1,26,-1
 675 175 l 1,27,-1
 507 175 l 1,24,-1
507 6 m 1,28,-1
 507 175 l 1,29,-1
 675 175 l 1,30,31
 675 176 675 176 675 6 c 1,32,-1
 507 6 l 1,28,-1
EndSplineSet
Validated: 37
EndChar

StartChar: j
Encoding: 106 106 107
Width: 1182
VWidth: 2708
GlyphClass: 1
Flags: W
LayerCount: 2
Fore
SplineSet
675 1357 m 1,0,-1
 675 1526 l 1,1,-1
 845 1526 l 1,2,-1
 845 1357 l 1,3,-1
 675 1357 l 1,0,-1
507 850 m 1,4,-1
 507 1020 l 1,5,-1
 675 1020 l 1,6,-1
 675 850 l 1,7,-1
 507 850 l 1,4,-1
675 850 m 1,8,-1
 675 1020 l 1,9,-1
 845 1020 l 1,10,-1
 845 850 l 1,11,-1
 675 850 l 1,8,-1
675 681 m 1,12,-1
 675 850 l 1,13,-1
 845 850 l 1,14,-1
 845 681 l 1,15,-1
 675 681 l 1,12,-1
675 513 m 1,16,-1
 675 681 l 1,17,-1
 845 681 l 1,18,-1
 845 513 l 1,19,-1
 675 513 l 1,16,-1
675 343 m 1,20,-1
 675 513 l 1,21,-1
 845 513 l 1,22,-1
 845 343 l 1,23,-1
 675 343 l 1,20,-1
675 175 m 1,24,-1
 675 343 l 1,25,-1
 845 343 l 1,26,-1
 845 175 l 1,27,-1
 675 175 l 1,24,-1
675 6 m 1,28,-1
 675 175 l 1,29,-1
 845 175 l 1,30,31
 845 176 845 176 845 6 c 1,32,-1
 675 6 l 1,28,-1
675 -164 m 1,33,-1
 675 6 l 1,34,-1
 845 6 l 1,35,-1
 845 -164 l 1,36,-1
 675 -164 l 1,33,-1
169 -332 m 1,37,-1
 169 -164 l 1,38,-1
 338 -164 l 1,39,-1
 338 -332 l 1,40,-1
 169 -332 l 1,37,-1
338 -332 m 1,41,-1
 338 -164 l 1,42,-1
 507 -164 l 1,43,-1
 507 -332 l 1,44,-1
 338 -332 l 1,41,-1
507 -332 m 1,45,-1
 507 -164 l 1,46,-1
 675 -164 l 1,47,-1
 675 -332 l 1,48,-1
 507 -332 l 1,45,-1
EndSplineSet
Validated: 37
EndChar

StartChar: k
Encoding: 107 107 108
Width: 1182
VWidth: 2708
GlyphClass: 1
Flags: W
LayerCount: 2
Fore
SplineSet
169 1357 m 1,0,-1
 169 1526 l 1,1,-1
 338 1526 l 1,2,-1
 338 1357 l 1,3,-1
 169 1357 l 1,0,-1
169 1188 m 1,4,-1
 169 1357 l 1,5,-1
 338 1357 l 1,6,-1
 338 1188 l 1,7,-1
 169 1188 l 1,4,-1
169 1020 m 1,8,-1
 169 1188 l 1,9,-1
 338 1188 l 1,10,-1
 338 1020 l 1,11,-1
 169 1020 l 1,8,-1
169 850 m 1,12,-1
 169 1020 l 1,13,-1
 338 1020 l 1,14,-1
 338 850 l 1,15,-1
 169 850 l 1,12,-1
845 850 m 1,16,-1
 845 1020 l 1,17,-1
 1014 1020 l 1,18,-1
 1014 850 l 1,19,-1
 845 850 l 1,16,-1
169 681 m 1,20,-1
 169 850 l 1,21,-1
 338 850 l 1,22,-1
 338 681 l 1,23,-1
 169 681 l 1,20,-1
675 681 m 1,24,-1
 675 850 l 1,25,-1
 845 850 l 1,26,-1
 845 681 l 1,27,-1
 675 681 l 1,24,-1
169 513 m 1,28,-1
 169 681 l 1,29,-1
 338 681 l 1,30,-1
 338 513 l 1,31,-1
 169 513 l 1,28,-1
507 513 m 1,32,-1
 507 681 l 1,33,-1
 675 681 l 1,34,-1
 675 513 l 1,35,-1
 507 513 l 1,32,-1
169 343 m 1,36,-1
 169 513 l 1,37,-1
 338 513 l 1,38,-1
 338 343 l 1,39,-1
 169 343 l 1,36,-1
338 343 m 1,40,-1
 338 513 l 1,41,-1
 507 513 l 1,42,-1
 507 343 l 1,43,-1
 338 343 l 1,40,-1
507 343 m 1,44,-1
 507 513 l 1,45,-1
 675 513 l 1,46,-1
 675 343 l 1,47,-1
 507 343 l 1,44,-1
169 175 m 1,48,-1
 169 343 l 1,49,-1
 338 343 l 1,50,-1
 338 175 l 1,51,-1
 169 175 l 1,48,-1
675 175 m 1,52,-1
 675 343 l 1,53,-1
 845 343 l 1,54,-1
 845 175 l 1,55,-1
 675 175 l 1,52,-1
169 6 m 1,56,-1
 169 175 l 1,57,-1
 338 175 l 1,58,59
 338 176 338 176 338 6 c 1,60,-1
 169 6 l 1,56,-1
845 6 m 1,61,-1
 845 175 l 1,62,-1
 1014 175 l 1,63,64
 1014 176 1014 176 1014 6 c 1,65,-1
 845 6 l 1,61,-1
EndSplineSet
Validated: 37
EndChar

StartChar: l
Encoding: 108 108 109
Width: 1182
VWidth: 2708
GlyphClass: 1
Flags: W
LayerCount: 2
Fore
SplineSet
338 1357 m 1,0,-1
 338 1526 l 1,1,-1
 507 1526 l 1,2,-1
 507 1357 l 1,3,-1
 338 1357 l 1,0,-1
507 1357 m 1,4,-1
 507 1526 l 1,5,-1
 675 1526 l 1,6,-1
 675 1357 l 1,7,-1
 507 1357 l 1,4,-1
507 1188 m 1,8,-1
 507 1357 l 1,9,-1
 675 1357 l 1,10,-1
 675 1188 l 1,11,-1
 507 1188 l 1,8,-1
507 1020 m 1,12,-1
 507 1188 l 1,13,-1
 675 1188 l 1,14,-1
 675 1020 l 1,15,-1
 507 1020 l 1,12,-1
507 850 m 1,16,-1
 507 1020 l 1,17,-1
 675 1020 l 1,18,-1
 675 850 l 1,19,-1
 507 850 l 1,16,-1
507 681 m 1,20,-1
 507 850 l 1,21,-1
 675 850 l 1,22,-1
 675 681 l 1,23,-1
 507 681 l 1,20,-1
507 513 m 1,24,-1
 507 681 l 1,25,-1
 675 681 l 1,26,-1
 675 513 l 1,27,-1
 507 513 l 1,24,-1
507 343 m 1,28,-1
 507 513 l 1,29,-1
 675 513 l 1,30,-1
 675 343 l 1,31,-1
 507 343 l 1,28,-1
507 175 m 1,32,-1
 507 343 l 1,33,-1
 675 343 l 1,34,-1
 675 175 l 1,35,-1
 507 175 l 1,32,-1
507 6 m 1,36,-1
 507 175 l 1,37,-1
 675 175 l 1,38,39
 675 176 675 176 675 6 c 1,40,-1
 507 6 l 1,36,-1
EndSplineSet
Validated: 37
EndChar

StartChar: m
Encoding: 109 109 110
Width: 1182
VWidth: 2708
GlyphClass: 1
Flags: W
LayerCount: 2
Fore
SplineSet
0 850 m 1,0,-1
 0 1020 l 1,1,-1
 169 1020 l 1,2,-1
 169 850 l 1,3,-1
 0 850 l 1,0,-1
169 850 m 1,4,-1
 169 1020 l 1,5,-1
 338 1020 l 1,6,-1
 338 850 l 1,7,-1
 169 850 l 1,4,-1
338 850 m 1,8,-1
 338 1020 l 1,9,-1
 507 1020 l 1,10,-1
 507 850 l 1,11,-1
 338 850 l 1,8,-1
675 850 m 1,12,-1
 675 1020 l 1,13,-1
 845 1020 l 1,14,-1
 845 850 l 1,15,-1
 675 850 l 1,12,-1
845 850 m 1,16,-1
 845 1020 l 1,17,-1
 1014 1020 l 1,18,-1
 1014 850 l 1,19,-1
 845 850 l 1,16,-1
0 681 m 1,20,-1
 0 850 l 1,21,-1
 169 850 l 1,22,-1
 169 681 l 1,23,-1
 0 681 l 1,20,-1
507 681 m 1,24,-1
 507 850 l 1,25,-1
 675 850 l 1,26,-1
 675 681 l 1,27,-1
 507 681 l 1,24,-1
1014 681 m 1,28,-1
 1014 850 l 1,29,-1
 1182 850 l 1,30,-1
 1182 681 l 1,31,-1
 1014 681 l 1,28,-1
0 513 m 1,32,-1
 0 681 l 1,33,-1
 169 681 l 1,34,-1
 169 513 l 1,35,-1
 0 513 l 1,32,-1
507 513 m 1,36,-1
 507 681 l 1,37,-1
 675 681 l 1,38,-1
 675 513 l 1,39,-1
 507 513 l 1,36,-1
1014 513 m 1,40,-1
 1014 681 l 1,41,-1
 1182 681 l 1,42,-1
 1182 513 l 1,43,-1
 1014 513 l 1,40,-1
0 343 m 1,44,-1
 0 513 l 1,45,-1
 169 513 l 1,46,-1
 169 343 l 1,47,-1
 0 343 l 1,44,-1
507 343 m 1,48,-1
 507 513 l 1,49,-1
 675 513 l 1,50,-1
 675 343 l 1,51,-1
 507 343 l 1,48,-1
1014 343 m 1,52,-1
 1014 513 l 1,53,-1
 1182 513 l 1,54,-1
 1182 343 l 1,55,-1
 1014 343 l 1,52,-1
0 175 m 1,56,-1
 0 343 l 1,57,-1
 169 343 l 1,58,-1
 169 175 l 1,59,-1
 0 175 l 1,56,-1
507 175 m 1,60,-1
 507 343 l 1,61,-1
 675 343 l 1,62,-1
 675 175 l 1,63,-1
 507 175 l 1,60,-1
1014 175 m 1,64,-1
 1014 343 l 1,65,-1
 1182 343 l 1,66,-1
 1182 175 l 1,67,-1
 1014 175 l 1,64,-1
0 6 m 1,68,-1
 0 175 l 1,69,-1
 169 175 l 1,70,71
 169 176 169 176 169 6 c 1,72,-1
 0 6 l 1,68,-1
507 6 m 1,73,-1
 507 175 l 1,74,-1
 675 175 l 1,75,76
 675 176 675 176 675 6 c 1,77,-1
 507 6 l 1,73,-1
1014 6 m 1,78,-1
 1014 175 l 1,79,-1
 1182 175 l 1,80,81
 1182 176 1182 176 1182 6 c 1,82,-1
 1014 6 l 1,78,-1
EndSplineSet
Validated: 37
EndChar

StartChar: n
Encoding: 110 110 111
Width: 1182
VWidth: 2708
GlyphClass: 1
Flags: W
LayerCount: 2
Fore
SplineSet
169 850 m 1,0,-1
 169 1020 l 1,1,-1
 338 1020 l 1,2,-1
 338 850 l 1,3,-1
 169 850 l 1,0,-1
338 850 m 1,4,-1
 338 1020 l 1,5,-1
 507 1020 l 1,6,-1
 507 850 l 1,7,-1
 338 850 l 1,4,-1
507 850 m 1,8,-1
 507 1020 l 1,9,-1
 675 1020 l 1,10,-1
 675 850 l 1,11,-1
 507 850 l 1,8,-1
675 850 m 1,12,-1
 675 1020 l 1,13,-1
 845 1020 l 1,14,-1
 845 850 l 1,15,-1
 675 850 l 1,12,-1
169 681 m 1,16,-1
 169 850 l 1,17,-1
 338 850 l 1,18,-1
 338 681 l 1,19,-1
 169 681 l 1,16,-1
845 681 m 1,20,-1
 845 850 l 1,21,-1
 1014 850 l 1,22,-1
 1014 681 l 1,23,-1
 845 681 l 1,20,-1
169 513 m 1,24,-1
 169 681 l 1,25,-1
 338 681 l 1,26,-1
 338 513 l 1,27,-1
 169 513 l 1,24,-1
845 513 m 1,28,-1
 845 681 l 1,29,-1
 1014 681 l 1,30,-1
 1014 513 l 1,31,-1
 845 513 l 1,28,-1
169 343 m 1,32,-1
 169 513 l 1,33,-1
 338 513 l 1,34,-1
 338 343 l 1,35,-1
 169 343 l 1,32,-1
845 343 m 1,36,-1
 845 513 l 1,37,-1
 1014 513 l 1,38,-1
 1014 343 l 1,39,-1
 845 343 l 1,36,-1
169 175 m 1,40,-1
 169 343 l 1,41,-1
 338 343 l 1,42,-1
 338 175 l 1,43,-1
 169 175 l 1,40,-1
845 175 m 1,44,-1
 845 343 l 1,45,-1
 1014 343 l 1,46,-1
 1014 175 l 1,47,-1
 845 175 l 1,44,-1
169 6 m 1,48,-1
 169 175 l 1,49,-1
 338 175 l 1,50,51
 338 176 338 176 338 6 c 1,52,-1
 169 6 l 1,48,-1
845 6 m 1,53,-1
 845 175 l 1,54,-1
 1014 175 l 1,55,56
 1014 176 1014 176 1014 6 c 1,57,-1
 845 6 l 1,53,-1
EndSplineSet
Validated: 37
EndChar

StartChar: o
Encoding: 111 111 112
Width: 1182
VWidth: 2708
GlyphClass: 1
Flags: W
LayerCount: 2
Fore
SplineSet
338 850 m 1,0,-1
 338 1020 l 1,1,-1
 507 1020 l 1,2,-1
 507 850 l 1,3,-1
 338 850 l 1,0,-1
507 850 m 1,4,-1
 507 1020 l 1,5,-1
 675 1020 l 1,6,-1
 675 850 l 1,7,-1
 507 850 l 1,4,-1
675 850 m 1,8,-1
 675 1020 l 1,9,-1
 845 1020 l 1,10,-1
 845 850 l 1,11,-1
 675 850 l 1,8,-1
169 681 m 1,12,-1
 169 850 l 1,13,-1
 338 850 l 1,14,-1
 338 681 l 1,15,-1
 169 681 l 1,12,-1
845 681 m 1,16,-1
 845 850 l 1,17,-1
 1014 850 l 1,18,-1
 1014 681 l 1,19,-1
 845 681 l 1,16,-1
169 513 m 1,20,-1
 169 681 l 1,21,-1
 338 681 l 1,22,-1
 338 513 l 1,23,-1
 169 513 l 1,20,-1
845 513 m 1,24,-1
 845 681 l 1,25,-1
 1014 681 l 1,26,-1
 1014 513 l 1,27,-1
 845 513 l 1,24,-1
169 343 m 1,28,-1
 169 513 l 1,29,-1
 338 513 l 1,30,-1
 338 343 l 1,31,-1
 169 343 l 1,28,-1
845 343 m 1,32,-1
 845 513 l 1,33,-1
 1014 513 l 1,34,-1
 1014 343 l 1,35,-1
 845 343 l 1,32,-1
169 175 m 1,36,-1
 169 343 l 1,37,-1
 338 343 l 1,38,-1
 338 175 l 1,39,-1
 169 175 l 1,36,-1
845 175 m 1,40,-1
 845 343 l 1,41,-1
 1014 343 l 1,42,-1
 1014 175 l 1,43,-1
 845 175 l 1,40,-1
338 6 m 1,44,-1
 338 175 l 1,45,-1
 507 175 l 1,46,47
 507 176 507 176 507 6 c 1,48,-1
 338 6 l 1,44,-1
507 6 m 1,49,-1
 507 175 l 1,50,-1
 675 175 l 1,51,52
 675 176 675 176 675 6 c 1,53,-1
 507 6 l 1,49,-1
675 6 m 1,54,-1
 675 175 l 1,55,-1
 845 175 l 1,56,57
 845 176 845 176 845 6 c 1,58,-1
 675 6 l 1,54,-1
EndSplineSet
Validated: 37
EndChar

StartChar: p
Encoding: 112 112 113
Width: 1182
VWidth: 2708
GlyphClass: 1
Flags: W
LayerCount: 2
Fore
SplineSet
169 850 m 1,0,-1
 169 1020 l 1,1,-1
 338 1020 l 1,2,-1
 338 850 l 1,3,-1
 169 850 l 1,0,-1
338 850 m 1,4,-1
 338 1020 l 1,5,-1
 507 1020 l 1,6,-1
 507 850 l 1,7,-1
 338 850 l 1,4,-1
507 850 m 1,8,-1
 507 1020 l 1,9,-1
 675 1020 l 1,10,-1
 675 850 l 1,11,-1
 507 850 l 1,8,-1
675 850 m 1,12,-1
 675 1020 l 1,13,-1
 845 1020 l 1,14,-1
 845 850 l 1,15,-1
 675 850 l 1,12,-1
169 681 m 1,16,-1
 169 850 l 1,17,-1
 338 850 l 1,18,-1
 338 681 l 1,19,-1
 169 681 l 1,16,-1
845 681 m 1,20,-1
 845 850 l 1,21,-1
 1014 850 l 1,22,-1
 1014 681 l 1,23,-1
 845 681 l 1,20,-1
169 513 m 1,24,-1
 169 681 l 1,25,-1
 338 681 l 1,26,-1
 338 513 l 1,27,-1
 169 513 l 1,24,-1
845 513 m 1,28,-1
 845 681 l 1,29,-1
 1014 681 l 1,30,-1
 1014 513 l 1,31,-1
 845 513 l 1,28,-1
169 343 m 1,32,-1
 169 513 l 1,33,-1
 338 513 l 1,34,-1
 338 343 l 1,35,-1
 169 343 l 1,32,-1
845 343 m 1,36,-1
 845 513 l 1,37,-1
 1014 513 l 1,38,-1
 1014 343 l 1,39,-1
 845 343 l 1,36,-1
169 175 m 1,40,-1
 169 343 l 1,41,-1
 338 343 l 1,42,-1
 338 175 l 1,43,-1
 169 175 l 1,40,-1
845 175 m 1,44,-1
 845 343 l 1,45,-1
 1014 343 l 1,46,-1
 1014 175 l 1,47,-1
 845 175 l 1,44,-1
169 6 m 1,48,-1
 169 175 l 1,49,-1
 338 175 l 1,50,51
 338 176 338 176 338 6 c 1,52,-1
 169 6 l 1,48,-1
338 6 m 1,53,-1
 338 175 l 1,54,-1
 507 175 l 1,55,56
 507 176 507 176 507 6 c 1,57,-1
 338 6 l 1,53,-1
507 6 m 1,58,-1
 507 175 l 1,59,-1
 675 175 l 1,60,61
 675 176 675 176 675 6 c 1,62,-1
 507 6 l 1,58,-1
675 6 m 1,63,-1
 675 175 l 1,64,-1
 845 175 l 1,65,66
 845 176 845 176 845 6 c 1,67,-1
 675 6 l 1,63,-1
169 -164 m 1,68,-1
 169 6 l 1,69,-1
 338 6 l 1,70,-1
 338 -164 l 1,71,-1
 169 -164 l 1,68,-1
169 -332 m 1,72,-1
 169 -164 l 1,73,-1
 338 -164 l 1,74,-1
 338 -332 l 1,75,-1
 169 -332 l 1,72,-1
169 -502 m 1,76,-1
 169 -332 l 1,77,-1
 338 -332 l 1,78,-1
 338 -502 l 1,79,-1
 169 -502 l 1,76,-1
EndSplineSet
Validated: 37
EndChar

StartChar: q
Encoding: 113 113 114
Width: 1182
VWidth: 2708
GlyphClass: 1
Flags: W
LayerCount: 2
Fore
SplineSet
338 850 m 1,0,-1
 338 1020 l 1,1,-1
 507 1020 l 1,2,-1
 507 850 l 1,3,-1
 338 850 l 1,0,-1
507 850 m 1,4,-1
 507 1020 l 1,5,-1
 675 1020 l 1,6,-1
 675 850 l 1,7,-1
 507 850 l 1,4,-1
675 850 m 1,8,-1
 675 1020 l 1,9,-1
 845 1020 l 1,10,-1
 845 850 l 1,11,-1
 675 850 l 1,8,-1
845 850 m 1,12,-1
 845 1020 l 1,13,-1
 1014 1020 l 1,14,-1
 1014 850 l 1,15,-1
 845 850 l 1,12,-1
169 681 m 1,16,-1
 169 850 l 1,17,-1
 338 850 l 1,18,-1
 338 681 l 1,19,-1
 169 681 l 1,16,-1
845 681 m 1,20,-1
 845 850 l 1,21,-1
 1014 850 l 1,22,-1
 1014 681 l 1,23,-1
 845 681 l 1,20,-1
169 513 m 1,24,-1
 169 681 l 1,25,-1
 338 681 l 1,26,-1
 338 513 l 1,27,-1
 169 513 l 1,24,-1
845 513 m 1,28,-1
 845 681 l 1,29,-1
 1014 681 l 1,30,-1
 1014 513 l 1,31,-1
 845 513 l 1,28,-1
169 343 m 1,32,-1
 169 513 l 1,33,-1
 338 513 l 1,34,-1
 338 343 l 1,35,-1
 169 343 l 1,32,-1
845 343 m 1,36,-1
 845 513 l 1,37,-1
 1014 513 l 1,38,-1
 1014 343 l 1,39,-1
 845 343 l 1,36,-1
169 175 m 1,40,-1
 169 343 l 1,41,-1
 338 343 l 1,42,-1
 338 175 l 1,43,-1
 169 175 l 1,40,-1
845 175 m 1,44,-1
 845 343 l 1,45,-1
 1014 343 l 1,46,-1
 1014 175 l 1,47,-1
 845 175 l 1,44,-1
338 6 m 1,48,-1
 338 175 l 1,49,-1
 507 175 l 1,50,51
 507 176 507 176 507 6 c 1,52,-1
 338 6 l 1,48,-1
507 6 m 1,53,-1
 507 175 l 1,54,-1
 675 175 l 1,55,56
 675 176 675 176 675 6 c 1,57,-1
 507 6 l 1,53,-1
675 6 m 1,58,-1
 675 175 l 1,59,-1
 845 175 l 1,60,61
 845 176 845 176 845 6 c 1,62,-1
 675 6 l 1,58,-1
845 6 m 1,63,-1
 845 175 l 1,64,-1
 1014 175 l 1,65,66
 1014 176 1014 176 1014 6 c 1,67,-1
 845 6 l 1,63,-1
845 -164 m 1,68,-1
 845 6 l 1,69,-1
 1014 6 l 1,70,-1
 1014 -164 l 1,71,-1
 845 -164 l 1,68,-1
845 -332 m 1,72,-1
 845 -164 l 1,73,-1
 1014 -164 l 1,74,-1
 1014 -332 l 1,75,-1
 845 -332 l 1,72,-1
845 -502 m 1,76,-1
 845 -332 l 1,77,-1
 1014 -332 l 1,78,-1
 1014 -502 l 1,79,-1
 845 -502 l 1,76,-1
EndSplineSet
Validated: 37
EndChar

StartChar: r
Encoding: 114 114 115
Width: 1182
VWidth: 2708
GlyphClass: 1
Flags: W
LayerCount: 2
Fore
SplineSet
169 850 m 1,0,-1
 169 1020 l 1,1,-1
 338 1020 l 1,2,-1
 338 850 l 1,3,-1
 169 850 l 1,0,-1
507 850 m 1,4,-1
 507 1020 l 1,5,-1
 675 1020 l 1,6,-1
 675 850 l 1,7,-1
 507 850 l 1,4,-1
675 850 m 1,8,-1
 675 1020 l 1,9,-1
 845 1020 l 1,10,-1
 845 850 l 1,11,-1
 675 850 l 1,8,-1
169 681 m 1,12,-1
 169 850 l 1,13,-1
 338 850 l 1,14,-1
 338 681 l 1,15,-1
 169 681 l 1,12,-1
338 681 m 1,16,-1
 338 850 l 1,17,-1
 507 850 l 1,18,-1
 507 681 l 1,19,-1
 338 681 l 1,16,-1
845 681 m 1,20,-1
 845 850 l 1,21,-1
 1014 850 l 1,22,-1
 1014 681 l 1,23,-1
 845 681 l 1,20,-1
169 513 m 1,24,-1
 169 681 l 1,25,-1
 338 681 l 1,26,-1
 338 513 l 1,27,-1
 169 513 l 1,24,-1
169 343 m 1,28,-1
 169 513 l 1,29,-1
 338 513 l 1,30,-1
 338 343 l 1,31,-1
 169 343 l 1,28,-1
169 175 m 1,32,-1
 169 343 l 1,33,-1
 338 343 l 1,34,-1
 338 175 l 1,35,-1
 169 175 l 1,32,-1
169 6 m 1,36,-1
 169 175 l 1,37,-1
 338 175 l 1,38,39
 338 176 338 176 338 6 c 1,40,-1
 169 6 l 1,36,-1
EndSplineSet
Validated: 37
EndChar

StartChar: s
Encoding: 115 115 116
Width: 1182
VWidth: 2708
GlyphClass: 1
Flags: W
LayerCount: 2
Fore
SplineSet
338 850 m 1,0,-1
 338 1020 l 1,1,-1
 507 1020 l 1,2,-1
 507 850 l 1,3,-1
 338 850 l 1,0,-1
507 850 m 1,4,-1
 507 1020 l 1,5,-1
 675 1020 l 1,6,-1
 675 850 l 1,7,-1
 507 850 l 1,4,-1
675 850 m 1,8,-1
 675 1020 l 1,9,-1
 845 1020 l 1,10,-1
 845 850 l 1,11,-1
 675 850 l 1,8,-1
845 850 m 1,12,-1
 845 1020 l 1,13,-1
 1014 1020 l 1,14,-1
 1014 850 l 1,15,-1
 845 850 l 1,12,-1
169 681 m 1,16,-1
 169 850 l 1,17,-1
 338 850 l 1,18,-1
 338 681 l 1,19,-1
 169 681 l 1,16,-1
338 513 m 1,20,-1
 338 681 l 1,21,-1
 507 681 l 1,22,-1
 507 513 l 1,23,-1
 338 513 l 1,20,-1
507 513 m 1,24,-1
 507 681 l 1,25,-1
 675 681 l 1,26,-1
 675 513 l 1,27,-1
 507 513 l 1,24,-1
675 343 m 1,28,-1
 675 513 l 1,29,-1
 845 513 l 1,30,-1
 845 343 l 1,31,-1
 675 343 l 1,28,-1
845 175 m 1,32,-1
 845 343 l 1,33,-1
 1014 343 l 1,34,-1
 1014 175 l 1,35,-1
 845 175 l 1,32,-1
169 6 m 1,36,-1
 169 175 l 1,37,-1
 338 175 l 1,38,39
 338 176 338 176 338 6 c 1,40,-1
 169 6 l 1,36,-1
338 6 m 1,41,-1
 338 175 l 1,42,-1
 507 175 l 1,43,44
 507 176 507 176 507 6 c 1,45,-1
 338 6 l 1,41,-1
507 6 m 1,46,-1
 507 175 l 1,47,-1
 675 175 l 1,48,49
 675 176 675 176 675 6 c 1,50,-1
 507 6 l 1,46,-1
675 6 m 1,51,-1
 675 175 l 1,52,-1
 845 175 l 1,53,54
 845 176 845 176 845 6 c 1,55,-1
 675 6 l 1,51,-1
EndSplineSet
Validated: 37
EndChar

StartChar: t
Encoding: 116 116 117
Width: 1182
VWidth: 2708
GlyphClass: 1
Flags: W
LayerCount: 2
Fore
SplineSet
338 1188 m 1,0,-1
 338 1357 l 1,1,-1
 507 1357 l 1,2,-1
 507 1188 l 1,3,-1
 338 1188 l 1,0,-1
338 1020 m 1,4,-1
 338 1188 l 1,5,-1
 507 1188 l 1,6,-1
 507 1020 l 1,7,-1
 338 1020 l 1,4,-1
338 850 m 1,8,-1
 338 1020 l 1,9,-1
 507 1020 l 1,10,-1
 507 850 l 1,11,-1
 338 850 l 1,8,-1
507 850 m 1,12,-1
 507 1020 l 1,13,-1
 675 1020 l 1,14,-1
 675 850 l 1,15,-1
 507 850 l 1,12,-1
675 850 m 1,16,-1
 675 1020 l 1,17,-1
 845 1020 l 1,18,-1
 845 850 l 1,19,-1
 675 850 l 1,16,-1
845 850 m 1,20,-1
 845 1020 l 1,21,-1
 1014 1020 l 1,22,-1
 1014 850 l 1,23,-1
 845 850 l 1,20,-1
338 681 m 1,24,-1
 338 850 l 1,25,-1
 507 850 l 1,26,-1
 507 681 l 1,27,-1
 338 681 l 1,24,-1
338 513 m 1,28,-1
 338 681 l 1,29,-1
 507 681 l 1,30,-1
 507 513 l 1,31,-1
 338 513 l 1,28,-1
338 343 m 1,32,-1
 338 513 l 1,33,-1
 507 513 l 1,34,-1
 507 343 l 1,35,-1
 338 343 l 1,32,-1
338 175 m 1,36,-1
 338 343 l 1,37,-1
 507 343 l 1,38,-1
 507 175 l 1,39,-1
 338 175 l 1,36,-1
507 6 m 1,40,-1
 507 175 l 1,41,-1
 675 175 l 1,42,43
 675 176 675 176 675 6 c 1,44,-1
 507 6 l 1,40,-1
675 6 m 1,45,-1
 675 175 l 1,46,-1
 845 175 l 1,47,48
 845 176 845 176 845 6 c 1,49,-1
 675 6 l 1,45,-1
845 6 m 1,50,-1
 845 175 l 1,51,-1
 1014 175 l 1,52,53
 1014 176 1014 176 1014 6 c 1,54,-1
 845 6 l 1,50,-1
EndSplineSet
Validated: 37
EndChar

StartChar: u
Encoding: 117 117 118
Width: 1182
VWidth: 2708
GlyphClass: 1
Flags: W
LayerCount: 2
Fore
SplineSet
169 850 m 1,0,-1
 169 1020 l 1,1,-1
 338 1020 l 1,2,-1
 338 850 l 1,3,-1
 169 850 l 1,0,-1
845 850 m 1,4,-1
 845 1020 l 1,5,-1
 1014 1020 l 1,6,-1
 1014 850 l 1,7,-1
 845 850 l 1,4,-1
169 681 m 1,8,-1
 169 850 l 1,9,-1
 338 850 l 1,10,-1
 338 681 l 1,11,-1
 169 681 l 1,8,-1
845 681 m 1,12,-1
 845 850 l 1,13,-1
 1014 850 l 1,14,-1
 1014 681 l 1,15,-1
 845 681 l 1,12,-1
169 513 m 1,16,-1
 169 681 l 1,17,-1
 338 681 l 1,18,-1
 338 513 l 1,19,-1
 169 513 l 1,16,-1
845 513 m 1,20,-1
 845 681 l 1,21,-1
 1014 681 l 1,22,-1
 1014 513 l 1,23,-1
 845 513 l 1,20,-1
169 343 m 1,24,-1
 169 513 l 1,25,-1
 338 513 l 1,26,-1
 338 343 l 1,27,-1
 169 343 l 1,24,-1
845 343 m 1,28,-1
 845 513 l 1,29,-1
 1014 513 l 1,30,-1
 1014 343 l 1,31,-1
 845 343 l 1,28,-1
169 175 m 1,32,-1
 169 343 l 1,33,-1
 338 343 l 1,34,-1
 338 175 l 1,35,-1
 169 175 l 1,32,-1
845 175 m 1,36,-1
 845 343 l 1,37,-1
 1014 343 l 1,38,-1
 1014 175 l 1,39,-1
 845 175 l 1,36,-1
338 6 m 1,40,-1
 338 175 l 1,41,-1
 507 175 l 1,42,43
 507 176 507 176 507 6 c 1,44,-1
 338 6 l 1,40,-1
507 6 m 1,45,-1
 507 175 l 1,46,-1
 675 175 l 1,47,48
 675 176 675 176 675 6 c 1,49,-1
 507 6 l 1,45,-1
675 6 m 1,50,-1
 675 175 l 1,51,-1
 845 175 l 1,52,53
 845 176 845 176 845 6 c 1,54,-1
 675 6 l 1,50,-1
845 6 m 1,55,-1
 845 175 l 1,56,-1
 1014 175 l 1,57,58
 1014 176 1014 176 1014 6 c 1,59,-1
 845 6 l 1,55,-1
EndSplineSet
Validated: 37
EndChar

StartChar: v
Encoding: 118 118 119
Width: 1182
VWidth: 2708
GlyphClass: 1
Flags: W
LayerCount: 2
Fore
SplineSet
169 850 m 1,0,-1
 169 1020 l 1,1,-1
 338 1020 l 1,2,-1
 338 850 l 1,3,-1
 169 850 l 1,0,-1
845 850 m 1,4,-1
 845 1020 l 1,5,-1
 1014 1020 l 1,6,-1
 1014 850 l 1,7,-1
 845 850 l 1,4,-1
169 681 m 1,8,-1
 169 850 l 1,9,-1
 338 850 l 1,10,-1
 338 681 l 1,11,-1
 169 681 l 1,8,-1
845 681 m 1,12,-1
 845 850 l 1,13,-1
 1014 850 l 1,14,-1
 1014 681 l 1,15,-1
 845 681 l 1,12,-1
338 513 m 1,16,-1
 338 681 l 1,17,-1
 507 681 l 1,18,-1
 507 513 l 1,19,-1
 338 513 l 1,16,-1
675 513 m 1,20,-1
 675 681 l 1,21,-1
 845 681 l 1,22,-1
 845 513 l 1,23,-1
 675 513 l 1,20,-1
338 343 m 1,24,-1
 338 513 l 1,25,-1
 507 513 l 1,26,-1
 507 343 l 1,27,-1
 338 343 l 1,24,-1
675 343 m 1,28,-1
 675 513 l 1,29,-1
 845 513 l 1,30,-1
 845 343 l 1,31,-1
 675 343 l 1,28,-1
507 175 m 1,32,-1
 507 343 l 1,33,-1
 675 343 l 1,34,-1
 675 175 l 1,35,-1
 507 175 l 1,32,-1
507 6 m 1,36,-1
 507 175 l 1,37,-1
 675 175 l 1,38,39
 675 176 675 176 675 6 c 1,40,-1
 507 6 l 1,36,-1
EndSplineSet
Validated: 37
EndChar

StartChar: w
Encoding: 119 119 120
Width: 1182
VWidth: 2708
GlyphClass: 1
Flags: W
LayerCount: 2
Fore
SplineSet
0 850 m 1,0,-1
 0 1020 l 1,1,-1
 169 1020 l 1,2,-1
 169 850 l 1,3,-1
 0 850 l 1,0,-1
1014 850 m 1,4,-1
 1014 1020 l 1,5,-1
 1182 1020 l 1,6,-1
 1182 850 l 1,7,-1
 1014 850 l 1,4,-1
0 681 m 1,8,-1
 0 850 l 1,9,-1
 169 850 l 1,10,-1
 169 681 l 1,11,-1
 0 681 l 1,8,-1
507 681 m 1,12,-1
 507 850 l 1,13,-1
 675 850 l 1,14,-1
 675 681 l 1,15,-1
 507 681 l 1,12,-1
1014 681 m 1,16,-1
 1014 850 l 1,17,-1
 1182 850 l 1,18,-1
 1182 681 l 1,19,-1
 1014 681 l 1,16,-1
0 513 m 1,20,-1
 0 681 l 1,21,-1
 169 681 l 1,22,-1
 169 513 l 1,23,-1
 0 513 l 1,20,-1
507 513 m 1,24,-1
 507 681 l 1,25,-1
 675 681 l 1,26,-1
 675 513 l 1,27,-1
 507 513 l 1,24,-1
1014 513 m 1,28,-1
 1014 681 l 1,29,-1
 1182 681 l 1,30,-1
 1182 513 l 1,31,-1
 1014 513 l 1,28,-1
0 343 m 1,32,-1
 0 513 l 1,33,-1
 169 513 l 1,34,-1
 169 343 l 1,35,-1
 0 343 l 1,32,-1
338 343 m 1,36,-1
 338 513 l 1,37,-1
 507 513 l 1,38,-1
 507 343 l 1,39,-1
 338 343 l 1,36,-1
675 343 m 1,40,-1
 675 513 l 1,41,-1
 845 513 l 1,42,-1
 845 343 l 1,43,-1
 675 343 l 1,40,-1
1014 343 m 1,44,-1
 1014 513 l 1,45,-1
 1182 513 l 1,46,-1
 1182 343 l 1,47,-1
 1014 343 l 1,44,-1
169 175 m 1,48,-1
 169 343 l 1,49,-1
 338 343 l 1,50,-1
 338 175 l 1,51,-1
 169 175 l 1,48,-1
338 175 m 1,52,-1
 338 343 l 1,53,-1
 507 343 l 1,54,-1
 507 175 l 1,55,-1
 338 175 l 1,52,-1
675 175 m 1,56,-1
 675 343 l 1,57,-1
 845 343 l 1,58,-1
 845 175 l 1,59,-1
 675 175 l 1,56,-1
845 175 m 1,60,-1
 845 343 l 1,61,-1
 1014 343 l 1,62,-1
 1014 175 l 1,63,-1
 845 175 l 1,60,-1
169 6 m 1,64,-1
 169 175 l 1,65,-1
 338 175 l 1,66,67
 338 176 338 176 338 6 c 1,68,-1
 169 6 l 1,64,-1
845 6 m 1,69,-1
 845 175 l 1,70,-1
 1014 175 l 1,71,72
 1014 176 1014 176 1014 6 c 1,73,-1
 845 6 l 1,69,-1
EndSplineSet
Validated: 37
EndChar

StartChar: x
Encoding: 120 120 121
Width: 1182
VWidth: 2708
GlyphClass: 1
Flags: W
LayerCount: 2
Fore
SplineSet
169 850 m 1,0,-1
 169 1020 l 1,1,-1
 338 1020 l 1,2,-1
 338 850 l 1,3,-1
 169 850 l 1,0,-1
845 850 m 1,4,-1
 845 1020 l 1,5,-1
 1014 1020 l 1,6,-1
 1014 850 l 1,7,-1
 845 850 l 1,4,-1
338 681 m 1,8,-1
 338 850 l 1,9,-1
 507 850 l 1,10,-1
 507 681 l 1,11,-1
 338 681 l 1,8,-1
675 681 m 1,12,-1
 675 850 l 1,13,-1
 845 850 l 1,14,-1
 845 681 l 1,15,-1
 675 681 l 1,12,-1
507 513 m 1,16,-1
 507 681 l 1,17,-1
 675 681 l 1,18,-1
 675 513 l 1,19,-1
 507 513 l 1,16,-1
507 343 m 1,20,-1
 507 513 l 1,21,-1
 675 513 l 1,22,-1
 675 343 l 1,23,-1
 507 343 l 1,20,-1
338 175 m 1,24,-1
 338 343 l 1,25,-1
 507 343 l 1,26,-1
 507 175 l 1,27,-1
 338 175 l 1,24,-1
675 175 m 1,28,-1
 675 343 l 1,29,-1
 845 343 l 1,30,-1
 845 175 l 1,31,-1
 675 175 l 1,28,-1
169 6 m 1,32,-1
 169 175 l 1,33,-1
 338 175 l 1,34,35
 338 176 338 176 338 6 c 1,36,-1
 169 6 l 1,32,-1
845 6 m 1,37,-1
 845 175 l 1,38,-1
 1014 175 l 1,39,40
 1014 176 1014 176 1014 6 c 1,41,-1
 845 6 l 1,37,-1
EndSplineSet
Validated: 37
EndChar

StartChar: y
Encoding: 121 121 122
Width: 1182
VWidth: 2708
GlyphClass: 1
Flags: W
LayerCount: 2
Fore
SplineSet
169 850 m 1,0,-1
 169 1020 l 1,1,-1
 338 1020 l 1,2,-1
 338 850 l 1,3,-1
 169 850 l 1,0,-1
845 850 m 1,4,-1
 845 1020 l 1,5,-1
 1014 1020 l 1,6,-1
 1014 850 l 1,7,-1
 845 850 l 1,4,-1
169 681 m 1,8,-1
 169 850 l 1,9,-1
 338 850 l 1,10,-1
 338 681 l 1,11,-1
 169 681 l 1,8,-1
845 681 m 1,12,-1
 845 850 l 1,13,-1
 1014 850 l 1,14,-1
 1014 681 l 1,15,-1
 845 681 l 1,12,-1
169 513 m 1,16,-1
 169 681 l 1,17,-1
 338 681 l 1,18,-1
 338 513 l 1,19,-1
 169 513 l 1,16,-1
845 513 m 1,20,-1
 845 681 l 1,21,-1
 1014 681 l 1,22,-1
 1014 513 l 1,23,-1
 845 513 l 1,20,-1
169 343 m 1,24,-1
 169 513 l 1,25,-1
 338 513 l 1,26,-1
 338 343 l 1,27,-1
 169 343 l 1,24,-1
845 343 m 1,28,-1
 845 513 l 1,29,-1
 1014 513 l 1,30,-1
 1014 343 l 1,31,-1
 845 343 l 1,28,-1
169 175 m 1,32,-1
 169 343 l 1,33,-1
 338 343 l 1,34,-1
 338 175 l 1,35,-1
 169 175 l 1,32,-1
845 175 m 1,36,-1
 845 343 l 1,37,-1
 1014 343 l 1,38,-1
 1014 175 l 1,39,-1
 845 175 l 1,36,-1
338 6 m 1,40,-1
 338 175 l 1,41,-1
 507 175 l 1,42,43
 507 176 507 176 507 6 c 1,44,-1
 338 6 l 1,40,-1
507 6 m 1,45,-1
 507 175 l 1,46,-1
 675 175 l 1,47,48
 675 176 675 176 675 6 c 1,49,-1
 507 6 l 1,45,-1
675 6 m 1,50,-1
 675 175 l 1,51,-1
 845 175 l 1,52,53
 845 176 845 176 845 6 c 1,54,-1
 675 6 l 1,50,-1
845 6 m 1,55,-1
 845 175 l 1,56,-1
 1014 175 l 1,57,58
 1014 176 1014 176 1014 6 c 1,59,-1
 845 6 l 1,55,-1
845 -164 m 1,60,-1
 845 6 l 1,61,-1
 1014 6 l 1,62,-1
 1014 -164 l 1,63,-1
 845 -164 l 1,60,-1
845 -332 m 1,64,-1
 845 -164 l 1,65,-1
 1014 -164 l 1,66,-1
 1014 -332 l 1,67,-1
 845 -332 l 1,64,-1
338 -502 m 1,68,-1
 338 -332 l 1,69,-1
 507 -332 l 1,70,-1
 507 -502 l 1,71,-1
 338 -502 l 1,68,-1
507 -502 m 1,72,-1
 507 -332 l 1,73,-1
 675 -332 l 1,74,-1
 675 -502 l 1,75,-1
 507 -502 l 1,72,-1
675 -502 m 1,76,-1
 675 -332 l 1,77,-1
 845 -332 l 1,78,-1
 845 -502 l 1,79,-1
 675 -502 l 1,76,-1
EndSplineSet
Validated: 37
EndChar

StartChar: z
Encoding: 122 122 123
Width: 1182
VWidth: 2708
GlyphClass: 1
Flags: W
LayerCount: 2
Fore
SplineSet
169 850 m 1,0,-1
 169 1020 l 1,1,-1
 338 1020 l 1,2,-1
 338 850 l 1,3,-1
 169 850 l 1,0,-1
338 850 m 1,4,-1
 338 1020 l 1,5,-1
 507 1020 l 1,6,-1
 507 850 l 1,7,-1
 338 850 l 1,4,-1
507 850 m 1,8,-1
 507 1020 l 1,9,-1
 675 1020 l 1,10,-1
 675 850 l 1,11,-1
 507 850 l 1,8,-1
675 850 m 1,12,-1
 675 1020 l 1,13,-1
 845 1020 l 1,14,-1
 845 850 l 1,15,-1
 675 850 l 1,12,-1
845 850 m 1,16,-1
 845 1020 l 1,17,-1
 1014 1020 l 1,18,-1
 1014 850 l 1,19,-1
 845 850 l 1,16,-1
845 681 m 1,20,-1
 845 850 l 1,21,-1
 1014 850 l 1,22,-1
 1014 681 l 1,23,-1
 845 681 l 1,20,-1
675 513 m 1,24,-1
 675 681 l 1,25,-1
 845 681 l 1,26,-1
 845 513 l 1,27,-1
 675 513 l 1,24,-1
507 343 m 1,28,-1
 507 513 l 1,29,-1
 675 513 l 1,30,-1
 675 343 l 1,31,-1
 507 343 l 1,28,-1
338 175 m 1,32,-1
 338 343 l 1,33,-1
 507 343 l 1,34,-1
 507 175 l 1,35,-1
 338 175 l 1,32,-1
169 6 m 1,36,-1
 169 175 l 1,37,-1
 338 175 l 1,38,39
 338 176 338 176 338 6 c 1,40,-1
 169 6 l 1,36,-1
338 6 m 1,41,-1
 338 175 l 1,42,-1
 507 175 l 1,43,44
 507 176 507 176 507 6 c 1,45,-1
 338 6 l 1,41,-1
507 6 m 1,46,-1
 507 175 l 1,47,-1
 675 175 l 1,48,49
 675 176 675 176 675 6 c 1,50,-1
 507 6 l 1,46,-1
675 6 m 1,51,-1
 675 175 l 1,52,-1
 845 175 l 1,53,54
 845 176 845 176 845 6 c 1,55,-1
 675 6 l 1,51,-1
845 6 m 1,56,-1
 845 175 l 1,57,-1
 1014 175 l 1,58,59
 1014 176 1014 176 1014 6 c 1,60,-1
 845 6 l 1,56,-1
EndSplineSet
Validated: 37
EndChar

StartChar: braceleft
Encoding: 123 123 124
Width: 1182
VWidth: 2708
GlyphClass: 1
Flags: W
LayerCount: 2
Fore
SplineSet
675 1357 m 1,0,-1
 675 1526 l 1,1,-1
 845 1526 l 1,2,-1
 845 1357 l 1,3,-1
 675 1357 l 1,0,-1
845 1357 m 1,4,-1
 845 1526 l 1,5,-1
 1014 1526 l 1,6,-1
 1014 1357 l 1,7,-1
 845 1357 l 1,4,-1
507 1188 m 1,8,-1
 507 1357 l 1,9,-1
 675 1357 l 1,10,-1
 675 1188 l 1,11,-1
 507 1188 l 1,8,-1
507 1020 m 1,12,-1
 507 1188 l 1,13,-1
 675 1188 l 1,14,-1
 675 1020 l 1,15,-1
 507 1020 l 1,12,-1
507 850 m 1,16,-1
 507 1020 l 1,17,-1
 675 1020 l 1,18,-1
 675 850 l 1,19,-1
 507 850 l 1,16,-1
507 681 m 1,20,-1
 507 850 l 1,21,-1
 675 850 l 1,22,-1
 675 681 l 1,23,-1
 507 681 l 1,20,-1
169 513 m 1,24,-1
 169 681 l 1,25,-1
 338 681 l 1,26,-1
 338 513 l 1,27,-1
 169 513 l 1,24,-1
338 513 m 1,28,-1
 338 681 l 1,29,-1
 507 681 l 1,30,-1
 507 513 l 1,31,-1
 338 513 l 1,28,-1
507 343 m 1,32,-1
 507 513 l 1,33,-1
 675 513 l 1,34,-1
 675 343 l 1,35,-1
 507 343 l 1,32,-1
507 175 m 1,36,-1
 507 343 l 1,37,-1
 675 343 l 1,38,-1
 675 175 l 1,39,-1
 507 175 l 1,36,-1
507 6 m 1,40,-1
 507 175 l 1,41,-1
 675 175 l 1,42,43
 675 176 675 176 675 6 c 1,44,-1
 507 6 l 1,40,-1
507 -164 m 1,45,-1
 507 6 l 1,46,-1
 675 6 l 1,47,-1
 675 -164 l 1,48,-1
 507 -164 l 1,45,-1
675 -332 m 1,49,-1
 675 -164 l 1,50,-1
 845 -164 l 1,51,-1
 845 -332 l 1,52,-1
 675 -332 l 1,49,-1
845 -332 m 1,53,-1
 845 -164 l 1,54,-1
 1014 -164 l 1,55,-1
 1014 -332 l 1,56,-1
 845 -332 l 1,53,-1
EndSplineSet
Validated: 37
EndChar

StartChar: bar
Encoding: 124 124 125
Width: 1182
VWidth: 2708
GlyphClass: 1
Flags: W
LayerCount: 2
Fore
SplineSet
507 1357 m 1,0,-1
 507 1526 l 1,1,-1
 675 1526 l 1,2,-1
 675 1357 l 1,3,-1
 507 1357 l 1,0,-1
507 1188 m 1,4,-1
 507 1357 l 1,5,-1
 675 1357 l 1,6,-1
 675 1188 l 1,7,-1
 507 1188 l 1,4,-1
507 1020 m 1,8,-1
 507 1188 l 1,9,-1
 675 1188 l 1,10,-1
 675 1020 l 1,11,-1
 507 1020 l 1,8,-1
507 850 m 1,12,-1
 507 1020 l 1,13,-1
 675 1020 l 1,14,-1
 675 850 l 1,15,-1
 507 850 l 1,12,-1
507 681 m 1,16,-1
 507 850 l 1,17,-1
 675 850 l 1,18,-1
 675 681 l 1,19,-1
 507 681 l 1,16,-1
507 513 m 1,20,-1
 507 681 l 1,21,-1
 675 681 l 1,22,-1
 675 513 l 1,23,-1
 507 513 l 1,20,-1
507 343 m 1,24,-1
 507 513 l 1,25,-1
 675 513 l 1,26,-1
 675 343 l 1,27,-1
 507 343 l 1,24,-1
507 175 m 1,28,-1
 507 343 l 1,29,-1
 675 343 l 1,30,-1
 675 175 l 1,31,-1
 507 175 l 1,28,-1
507 6 m 1,32,-1
 507 175 l 1,33,-1
 675 175 l 1,34,35
 675 176 675 176 675 6 c 1,36,-1
 507 6 l 1,32,-1
507 -164 m 1,37,-1
 507 6 l 1,38,-1
 675 6 l 1,39,-1
 675 -164 l 1,40,-1
 507 -164 l 1,37,-1
507 -332 m 1,41,-1
 507 -164 l 1,42,-1
 675 -164 l 1,43,-1
 675 -332 l 1,44,-1
 507 -332 l 1,41,-1
EndSplineSet
Validated: 37
EndChar

StartChar: braceright
Encoding: 125 125 126
Width: 1182
VWidth: 2708
GlyphClass: 1
Flags: W
LayerCount: 2
Fore
SplineSet
169 1357 m 1,0,-1
 169 1526 l 1,1,-1
 338 1526 l 1,2,-1
 338 1357 l 1,3,-1
 169 1357 l 1,0,-1
338 1357 m 1,4,-1
 338 1526 l 1,5,-1
 507 1526 l 1,6,-1
 507 1357 l 1,7,-1
 338 1357 l 1,4,-1
507 1188 m 1,8,-1
 507 1357 l 1,9,-1
 675 1357 l 1,10,-1
 675 1188 l 1,11,-1
 507 1188 l 1,8,-1
507 1020 m 1,12,-1
 507 1188 l 1,13,-1
 675 1188 l 1,14,-1
 675 1020 l 1,15,-1
 507 1020 l 1,12,-1
507 850 m 1,16,-1
 507 1020 l 1,17,-1
 675 1020 l 1,18,-1
 675 850 l 1,19,-1
 507 850 l 1,16,-1
507 681 m 1,20,-1
 507 850 l 1,21,-1
 675 850 l 1,22,-1
 675 681 l 1,23,-1
 507 681 l 1,20,-1
675 513 m 1,24,-1
 675 681 l 1,25,-1
 845 681 l 1,26,-1
 845 513 l 1,27,-1
 675 513 l 1,24,-1
845 513 m 1,28,-1
 845 681 l 1,29,-1
 1014 681 l 1,30,-1
 1014 513 l 1,31,-1
 845 513 l 1,28,-1
507 343 m 1,32,-1
 507 513 l 1,33,-1
 675 513 l 1,34,-1
 675 343 l 1,35,-1
 507 343 l 1,32,-1
507 175 m 1,36,-1
 507 343 l 1,37,-1
 675 343 l 1,38,-1
 675 175 l 1,39,-1
 507 175 l 1,36,-1
507 6 m 1,40,-1
 507 175 l 1,41,-1
 675 175 l 1,42,43
 675 176 675 176 675 6 c 1,44,-1
 507 6 l 1,40,-1
507 -164 m 1,45,-1
 507 6 l 1,46,-1
 675 6 l 1,47,-1
 675 -164 l 1,48,-1
 507 -164 l 1,45,-1
169 -332 m 1,49,-1
 169 -164 l 1,50,-1
 338 -164 l 1,51,-1
 338 -332 l 1,52,-1
 169 -332 l 1,49,-1
338 -332 m 1,53,-1
 338 -164 l 1,54,-1
 507 -164 l 1,55,-1
 507 -332 l 1,56,-1
 338 -332 l 1,53,-1
EndSplineSet
Validated: 37
EndChar

StartChar: asciitilde
Encoding: 126 126 127
Width: 1182
VWidth: 2708
GlyphClass: 1
Flags: W
LayerCount: 2
Fore
SplineSet
169 681 m 1,0,-1
 169 850 l 1,1,-1
 338 850 l 1,2,-1
 338 681 l 1,3,-1
 169 681 l 1,0,-1
338 681 m 1,4,-1
 338 850 l 1,5,-1
 507 850 l 1,6,-1
 507 681 l 1,7,-1
 338 681 l 1,4,-1
507 681 m 1,8,-1
 507 850 l 1,9,-1
 675 850 l 1,10,-1
 675 681 l 1,11,-1
 507 681 l 1,8,-1
1014 681 m 1,12,-1
 1014 850 l 1,13,-1
 1182 850 l 1,14,-1
 1182 681 l 1,15,-1
 1014 681 l 1,12,-1
0 513 m 1,16,-1
 0 681 l 1,17,-1
 169 681 l 1,18,-1
 169 513 l 1,19,-1
 0 513 l 1,16,-1
507 513 m 1,20,-1
 507 681 l 1,21,-1
 675 681 l 1,22,-1
 675 513 l 1,23,-1
 507 513 l 1,20,-1
675 513 m 1,24,-1
 675 681 l 1,25,-1
 845 681 l 1,26,-1
 845 513 l 1,27,-1
 675 513 l 1,24,-1
845 513 m 1,28,-1
 845 681 l 1,29,-1
 1014 681 l 1,30,-1
 1014 513 l 1,31,-1
 845 513 l 1,28,-1
EndSplineSet
Validated: 5
EndChar

StartChar: Euro
Encoding: 8364 8364 129
Width: 1182
VWidth: 2708
GlyphClass: 1
Flags: W
LayerCount: 2
Fore
SplineSet
507 1020 m 1,0,-1
 507 1188 l 1,1,-1
 675 1188 l 1,2,-1
 675 1020 l 1,3,-1
 507 1020 l 1,0,-1
675 1020 m 1,4,-1
 675 1188 l 1,5,-1
 845 1188 l 1,6,-1
 845 1020 l 1,7,-1
 675 1020 l 1,4,-1
845 1020 m 1,8,-1
 845 1188 l 1,9,-1
 1014 1188 l 1,10,-1
 1014 1020 l 1,11,-1
 845 1020 l 1,8,-1
338 850 m 1,12,-1
 338 1020 l 1,13,-1
 507 1020 l 1,14,-1
 507 850 l 1,15,-1
 338 850 l 1,12,-1
1014 850 m 1,16,-1
 1014 1020 l 1,17,-1
 1182 1020 l 1,18,-1
 1182 850 l 1,19,-1
 1014 850 l 1,16,-1
169 681 m 1,20,-1
 169 850 l 1,21,-1
 338 850 l 1,22,-1
 338 681 l 1,23,-1
 169 681 l 1,20,-1
338 681 m 1,24,-1
 338 850 l 1,25,-1
 507 850 l 1,26,-1
 507 681 l 1,27,-1
 338 681 l 1,24,-1
507 681 m 1,28,-1
 507 850 l 1,29,-1
 675 850 l 1,30,-1
 675 681 l 1,31,-1
 507 681 l 1,28,-1
675 681 m 1,32,-1
 675 850 l 1,33,-1
 845 850 l 1,34,-1
 845 681 l 1,35,-1
 675 681 l 1,32,-1
338 513 m 1,36,-1
 338 681 l 1,37,-1
 507 681 l 1,38,-1
 507 513 l 1,39,-1
 338 513 l 1,36,-1
169 343 m 1,40,-1
 169 513 l 1,41,-1
 338 513 l 1,42,-1
 338 343 l 1,43,-1
 169 343 l 1,40,-1
338 343 m 1,44,-1
 338 513 l 1,45,-1
 507 513 l 1,46,-1
 507 343 l 1,47,-1
 338 343 l 1,44,-1
507 343 m 1,48,-1
 507 513 l 1,49,-1
 675 513 l 1,50,-1
 675 343 l 1,51,-1
 507 343 l 1,48,-1
675 343 m 1,52,-1
 675 513 l 1,53,-1
 845 513 l 1,54,-1
 845 343 l 1,55,-1
 675 343 l 1,52,-1
338 175 m 1,56,-1
 338 343 l 1,57,-1
 507 343 l 1,58,-1
 507 175 l 1,59,-1
 338 175 l 1,56,-1
1014 175 m 1,60,-1
 1014 343 l 1,61,-1
 1182 343 l 1,62,-1
 1182 175 l 1,63,-1
 1014 175 l 1,60,-1
507 6 m 1,64,-1
 507 175 l 1,65,-1
 675 175 l 1,66,67
 675 176 675 176 675 6 c 1,68,-1
 507 6 l 1,64,-1
675 6 m 1,69,-1
 675 175 l 1,70,-1
 845 175 l 1,71,72
 845 176 845 176 845 6 c 1,73,-1
 675 6 l 1,69,-1
845 6 m 1,74,-1
 845 175 l 1,75,-1
 1014 175 l 1,76,77
 1014 176 1014 176 1014 6 c 1,78,-1
 845 6 l 1,74,-1
EndSplineSet
Validated: 37
EndChar

StartChar: unicode#0x0082
Encoding: 130 130 131
Width: 1182
VWidth: 2708
GlyphClass: 1
Flags: W
LayerCount: 2
Fore
SplineSet
507 175 m 1,0,-1
 507 343 l 1,1,-1
 675 343 l 1,2,-1
 675 175 l 1,3,-1
 507 175 l 1,0,-1
507 6 m 1,4,-1
 507 175 l 1,5,-1
 675 175 l 1,6,7
 675 176 675 176 675 6 c 1,8,-1
 507 6 l 1,4,-1
507 -164 m 1,9,-1
 507 6 l 1,10,-1
 675 6 l 1,11,-1
 675 -164 l 1,12,-1
 507 -164 l 1,9,-1
338 -332 m 1,13,-1
 338 -164 l 1,14,-1
 507 -164 l 1,15,-1
 507 -332 l 1,16,-1
 338 -332 l 1,13,-1
EndSplineSet
Validated: 549
EndChar

StartChar: unicode#0x0083
Encoding: 131 131 132
Width: 1182
VWidth: 2708
GlyphClass: 1
Flags: W
LayerCount: 2
Fore
SplineSet
675 1357 m 1,0,-1
 675 1526 l 1,1,-1
 845 1526 l 1,2,-1
 845 1357 l 1,3,-1
 675 1357 l 1,0,-1
845 1357 m 1,4,-1
 845 1526 l 1,5,-1
 1014 1526 l 1,6,-1
 1014 1357 l 1,7,-1
 845 1357 l 1,4,-1
507 1188 m 1,8,-1
 507 1357 l 1,9,-1
 675 1357 l 1,10,-1
 675 1188 l 1,11,-1
 507 1188 l 1,8,-1
507 1020 m 1,12,-1
 507 1188 l 1,13,-1
 675 1188 l 1,14,-1
 675 1020 l 1,15,-1
 507 1020 l 1,12,-1
338 850 m 1,16,-1
 338 1020 l 1,17,-1
 507 1020 l 1,18,-1
 507 850 l 1,19,-1
 338 850 l 1,16,-1
507 850 m 1,20,-1
 507 1020 l 1,21,-1
 675 1020 l 1,22,-1
 675 850 l 1,23,-1
 507 850 l 1,20,-1
675 850 m 1,24,-1
 675 1020 l 1,25,-1
 845 1020 l 1,26,-1
 845 850 l 1,27,-1
 675 850 l 1,24,-1
845 850 m 1,28,-1
 845 1020 l 1,29,-1
 1014 1020 l 1,30,-1
 1014 850 l 1,31,-1
 845 850 l 1,28,-1
507 681 m 1,32,-1
 507 850 l 1,33,-1
 675 850 l 1,34,-1
 675 681 l 1,35,-1
 507 681 l 1,32,-1
507 513 m 1,36,-1
 507 681 l 1,37,-1
 675 681 l 1,38,-1
 675 513 l 1,39,-1
 507 513 l 1,36,-1
507 343 m 1,40,-1
 507 513 l 1,41,-1
 675 513 l 1,42,-1
 675 343 l 1,43,-1
 507 343 l 1,40,-1
507 175 m 1,44,-1
 507 343 l 1,45,-1
 675 343 l 1,46,-1
 675 175 l 1,47,-1
 507 175 l 1,44,-1
507 6 m 1,48,-1
 507 175 l 1,49,-1
 675 175 l 1,50,51
 675 176 675 176 675 6 c 1,52,-1
 507 6 l 1,48,-1
507 -164 m 1,53,-1
 507 6 l 1,54,-1
 675 6 l 1,55,-1
 675 -164 l 1,56,-1
 507 -164 l 1,53,-1
169 -332 m 1,57,-1
 169 -164 l 1,58,-1
 338 -164 l 1,59,-1
 338 -332 l 1,60,-1
 169 -332 l 1,57,-1
338 -332 m 1,61,-1
 338 -164 l 1,62,-1
 507 -164 l 1,63,-1
 507 -332 l 1,64,-1
 338 -332 l 1,61,-1
EndSplineSet
Validated: 549
EndChar

StartChar: unicode#0x0084
Encoding: 132 132 133
Width: 1182
VWidth: 2708
GlyphClass: 1
Flags: W
LayerCount: 2
Fore
SplineSet
338 175 m 1,0,-1
 338 343 l 1,1,-1
 507 343 l 1,2,-1
 507 175 l 1,3,-1
 338 175 l 1,0,-1
675 175 m 1,4,-1
 675 343 l 1,5,-1
 845 343 l 1,6,-1
 845 175 l 1,7,-1
 675 175 l 1,4,-1
338 6 m 1,8,-1
 338 175 l 1,9,-1
 507 175 l 1,10,11
 507 176 507 176 507 6 c 1,12,-1
 338 6 l 1,8,-1
675 6 m 1,13,-1
 675 175 l 1,14,-1
 845 175 l 1,15,16
 845 176 845 176 845 6 c 1,17,-1
 675 6 l 1,13,-1
338 -164 m 1,18,-1
 338 6 l 1,19,-1
 507 6 l 1,20,-1
 507 -164 l 1,21,-1
 338 -164 l 1,18,-1
675 -164 m 1,22,-1
 675 6 l 1,23,-1
 845 6 l 1,24,-1
 845 -164 l 1,25,-1
 675 -164 l 1,22,-1
EndSplineSet
Validated: 549
EndChar

StartChar: unicode#0x0085
Encoding: 133 133 134
Width: 1182
VWidth: 2708
GlyphClass: 1
Flags: W
LayerCount: 2
Fore
SplineSet
169 6 m 1,0,-1
 169 175 l 1,1,-1
 338 175 l 1,2,3
 338 176 338 176 338 6 c 1,4,-1
 169 6 l 1,0,-1
507 6 m 1,5,-1
 507 175 l 1,6,-1
 675 175 l 1,7,8
 675 176 675 176 675 6 c 1,9,-1
 507 6 l 1,5,-1
845 6 m 1,10,-1
 845 175 l 1,11,-1
 1014 175 l 1,12,13
 1014 176 1014 176 1014 6 c 1,14,-1
 845 6 l 1,10,-1
EndSplineSet
Validated: 545
EndChar

StartChar: unicode#0x0086
Encoding: 134 134 135
Width: 1182
VWidth: 2708
GlyphClass: 1
Flags: W
LayerCount: 2
Fore
SplineSet
507 1357 m 1,0,-1
 507 1526 l 1,1,-1
 675 1526 l 1,2,-1
 675 1357 l 1,3,-1
 507 1357 l 1,0,-1
507 1188 m 1,4,-1
 507 1357 l 1,5,-1
 675 1357 l 1,6,-1
 675 1188 l 1,7,-1
 507 1188 l 1,4,-1
169 1020 m 1,8,-1
 169 1188 l 1,9,-1
 338 1188 l 1,10,-1
 338 1020 l 1,11,-1
 169 1020 l 1,8,-1
338 1020 m 1,12,-1
 338 1188 l 1,13,-1
 507 1188 l 1,14,-1
 507 1020 l 1,15,-1
 338 1020 l 1,12,-1
507 1020 m 1,16,-1
 507 1188 l 1,17,-1
 675 1188 l 1,18,-1
 675 1020 l 1,19,-1
 507 1020 l 1,16,-1
675 1020 m 1,20,-1
 675 1188 l 1,21,-1
 845 1188 l 1,22,-1
 845 1020 l 1,23,-1
 675 1020 l 1,20,-1
845 1020 m 1,24,-1
 845 1188 l 1,25,-1
 1014 1188 l 1,26,-1
 1014 1020 l 1,27,-1
 845 1020 l 1,24,-1
507 850 m 1,28,-1
 507 1020 l 1,29,-1
 675 1020 l 1,30,-1
 675 850 l 1,31,-1
 507 850 l 1,28,-1
507 681 m 1,32,-1
 507 850 l 1,33,-1
 675 850 l 1,34,-1
 675 681 l 1,35,-1
 507 681 l 1,32,-1
507 513 m 1,36,-1
 507 681 l 1,37,-1
 675 681 l 1,38,-1
 675 513 l 1,39,-1
 507 513 l 1,36,-1
507 343 m 1,40,-1
 507 513 l 1,41,-1
 675 513 l 1,42,-1
 675 343 l 1,43,-1
 507 343 l 1,40,-1
507 175 m 1,44,-1
 507 343 l 1,45,-1
 675 343 l 1,46,-1
 675 175 l 1,47,-1
 507 175 l 1,44,-1
507 6 m 1,48,-1
 507 175 l 1,49,-1
 675 175 l 1,50,51
 675 176 675 176 675 6 c 1,52,-1
 507 6 l 1,48,-1
EndSplineSet
Validated: 549
EndChar

StartChar: unicode#0x0087
Encoding: 135 135 136
Width: 1182
VWidth: 2708
GlyphClass: 1
Flags: W
LayerCount: 2
Fore
SplineSet
507 1357 m 1,0,-1
 507 1526 l 1,1,-1
 675 1526 l 1,2,-1
 675 1357 l 1,3,-1
 507 1357 l 1,0,-1
507 1188 m 1,4,-1
 507 1357 l 1,5,-1
 675 1357 l 1,6,-1
 675 1188 l 1,7,-1
 507 1188 l 1,4,-1
169 1020 m 1,8,-1
 169 1188 l 1,9,-1
 338 1188 l 1,10,-1
 338 1020 l 1,11,-1
 169 1020 l 1,8,-1
338 1020 m 1,12,-1
 338 1188 l 1,13,-1
 507 1188 l 1,14,-1
 507 1020 l 1,15,-1
 338 1020 l 1,12,-1
507 1020 m 1,16,-1
 507 1188 l 1,17,-1
 675 1188 l 1,18,-1
 675 1020 l 1,19,-1
 507 1020 l 1,16,-1
675 1020 m 1,20,-1
 675 1188 l 1,21,-1
 845 1188 l 1,22,-1
 845 1020 l 1,23,-1
 675 1020 l 1,20,-1
845 1020 m 1,24,-1
 845 1188 l 1,25,-1
 1014 1188 l 1,26,-1
 1014 1020 l 1,27,-1
 845 1020 l 1,24,-1
507 850 m 1,28,-1
 507 1020 l 1,29,-1
 675 1020 l 1,30,-1
 675 850 l 1,31,-1
 507 850 l 1,28,-1
169 681 m 1,32,-1
 169 850 l 1,33,-1
 338 850 l 1,34,-1
 338 681 l 1,35,-1
 169 681 l 1,32,-1
338 681 m 1,36,-1
 338 850 l 1,37,-1
 507 850 l 1,38,-1
 507 681 l 1,39,-1
 338 681 l 1,36,-1
507 681 m 1,40,-1
 507 850 l 1,41,-1
 675 850 l 1,42,-1
 675 681 l 1,43,-1
 507 681 l 1,40,-1
675 681 m 1,44,-1
 675 850 l 1,45,-1
 845 850 l 1,46,-1
 845 681 l 1,47,-1
 675 681 l 1,44,-1
845 681 m 1,48,-1
 845 850 l 1,49,-1
 1014 850 l 1,50,-1
 1014 681 l 1,51,-1
 845 681 l 1,48,-1
507 513 m 1,52,-1
 507 681 l 1,53,-1
 675 681 l 1,54,-1
 675 513 l 1,55,-1
 507 513 l 1,52,-1
507 343 m 1,56,-1
 507 513 l 1,57,-1
 675 513 l 1,58,-1
 675 343 l 1,59,-1
 507 343 l 1,56,-1
507 175 m 1,60,-1
 507 343 l 1,61,-1
 675 343 l 1,62,-1
 675 175 l 1,63,-1
 507 175 l 1,60,-1
507 6 m 1,64,-1
 507 175 l 1,65,-1
 675 175 l 1,66,67
 675 176 675 176 675 6 c 1,68,-1
 507 6 l 1,64,-1
EndSplineSet
Validated: 549
EndChar

StartChar: unicode#0x0088
Encoding: 136 136 137
Width: 1182
VWidth: 2708
GlyphClass: 1
Flags: W
LayerCount: 2
Fore
SplineSet
507 1357 m 1,0,-1
 507 1526 l 1,1,-1
 675 1526 l 1,2,-1
 675 1357 l 1,3,-1
 507 1357 l 1,0,-1
338 1188 m 1,4,-1
 338 1357 l 1,5,-1
 507 1357 l 1,6,-1
 507 1188 l 1,7,-1
 338 1188 l 1,4,-1
675 1188 m 1,8,-1
 675 1357 l 1,9,-1
 845 1357 l 1,10,-1
 845 1188 l 1,11,-1
 675 1188 l 1,8,-1
169 1020 m 1,12,-1
 169 1188 l 1,13,-1
 338 1188 l 1,14,-1
 338 1020 l 1,15,-1
 169 1020 l 1,12,-1
845 1020 m 1,16,-1
 845 1188 l 1,17,-1
 1014 1188 l 1,18,-1
 1014 1020 l 1,19,-1
 845 1020 l 1,16,-1
EndSplineSet
Validated: 517
EndChar

StartChar: unicode#0x0089
Encoding: 137 137 138
Width: 1182
VWidth: 2708
GlyphClass: 1
Flags: W
LayerCount: 2
Fore
SplineSet
675 1188 m 1,0,-1
 675 1357 l 1,1,-1
 845 1357 l 1,2,-1
 845 1188 l 1,3,-1
 675 1188 l 1,0,-1
169 1020 m 1,4,-1
 169 1188 l 1,5,-1
 338 1188 l 1,6,-1
 338 1020 l 1,7,-1
 169 1020 l 1,4,-1
675 1020 m 1,8,-1
 675 1188 l 1,9,-1
 845 1188 l 1,10,-1
 845 1020 l 1,11,-1
 675 1020 l 1,8,-1
169 850 m 1,12,-1
 169 1020 l 1,13,-1
 338 1020 l 1,14,-1
 338 850 l 1,15,-1
 169 850 l 1,12,-1
507 850 m 1,16,-1
 507 1020 l 1,17,-1
 675 1020 l 1,18,-1
 675 850 l 1,19,-1
 507 850 l 1,16,-1
507 681 m 1,20,-1
 507 850 l 1,21,-1
 675 850 l 1,22,-1
 675 681 l 1,23,-1
 507 681 l 1,20,-1
338 513 m 1,24,-1
 338 681 l 1,25,-1
 507 681 l 1,26,-1
 507 513 l 1,27,-1
 338 513 l 1,24,-1
338 343 m 1,28,-1
 338 513 l 1,29,-1
 507 513 l 1,30,-1
 507 343 l 1,31,-1
 338 343 l 1,28,-1
675 343 m 1,32,-1
 675 513 l 1,33,-1
 845 513 l 1,34,-1
 845 343 l 1,35,-1
 675 343 l 1,32,-1
1014 343 m 1,36,-1
 1014 513 l 1,37,-1
 1182 513 l 1,38,-1
 1182 343 l 1,39,-1
 1014 343 l 1,36,-1
169 175 m 1,40,-1
 169 343 l 1,41,-1
 338 343 l 1,42,-1
 338 175 l 1,43,-1
 169 175 l 1,40,-1
675 175 m 1,44,-1
 675 343 l 1,45,-1
 845 343 l 1,46,-1
 845 175 l 1,47,-1
 675 175 l 1,44,-1
1014 175 m 1,48,-1
 1014 343 l 1,49,-1
 1182 343 l 1,50,-1
 1182 175 l 1,51,-1
 1014 175 l 1,48,-1
169 6 m 1,52,-1
 169 175 l 1,53,-1
 338 175 l 1,54,55
 338 176 338 176 338 6 c 1,56,-1
 169 6 l 1,52,-1
EndSplineSet
Validated: 549
EndChar

StartChar: unicode#0x008a
Encoding: 138 138 139
Width: 1182
VWidth: 2708
GlyphClass: 1
Flags: W
LayerCount: 2
Fore
SplineSet
338 1526 m 1,0,-1
 338 1695 l 1,1,-1
 507 1695 l 1,2,-1
 507 1526 l 1,3,-1
 338 1526 l 1,0,-1
675 1526 m 1,4,-1
 675 1695 l 1,5,-1
 845 1695 l 1,6,-1
 845 1526 l 1,7,-1
 675 1526 l 1,4,-1
507 1357 m 1,8,-1
 507 1526 l 1,9,-1
 675 1526 l 1,10,-1
 675 1357 l 1,11,-1
 507 1357 l 1,8,-1
338 1188 m 1,12,-1
 338 1357 l 1,13,-1
 507 1357 l 1,14,-1
 507 1188 l 1,15,-1
 338 1188 l 1,12,-1
507 1188 m 1,16,-1
 507 1357 l 1,17,-1
 675 1357 l 1,18,-1
 675 1188 l 1,19,-1
 507 1188 l 1,16,-1
675 1188 m 1,20,-1
 675 1357 l 1,21,-1
 845 1357 l 1,22,-1
 845 1188 l 1,23,-1
 675 1188 l 1,20,-1
845 1188 m 1,24,-1
 845 1357 l 1,25,-1
 1014 1357 l 1,26,-1
 1014 1188 l 1,27,-1
 845 1188 l 1,24,-1
169 1020 m 1,28,-1
 169 1188 l 1,29,-1
 338 1188 l 1,30,-1
 338 1020 l 1,31,-1
 169 1020 l 1,28,-1
1014 1020 m 1,32,-1
 1014 1188 l 1,33,-1
 1182 1188 l 1,34,-1
 1182 1020 l 1,35,-1
 1014 1020 l 1,32,-1
169 850 m 1,36,-1
 169 1020 l 1,37,-1
 338 1020 l 1,38,-1
 338 850 l 1,39,-1
 169 850 l 1,36,-1
338 681 m 1,40,-1
 338 850 l 1,41,-1
 507 850 l 1,42,-1
 507 681 l 1,43,-1
 338 681 l 1,40,-1
507 681 m 1,44,-1
 507 850 l 1,45,-1
 675 850 l 1,46,-1
 675 681 l 1,47,-1
 507 681 l 1,44,-1
675 513 m 1,48,-1
 675 681 l 1,49,-1
 845 681 l 1,50,-1
 845 513 l 1,51,-1
 675 513 l 1,48,-1
845 513 m 1,52,-1
 845 681 l 1,53,-1
 1014 681 l 1,54,-1
 1014 513 l 1,55,-1
 845 513 l 1,52,-1
1014 343 m 1,56,-1
 1014 513 l 1,57,-1
 1182 513 l 1,58,-1
 1182 343 l 1,59,-1
 1014 343 l 1,56,-1
169 175 m 1,60,-1
 169 343 l 1,61,-1
 338 343 l 1,62,-1
 338 175 l 1,63,-1
 169 175 l 1,60,-1
1014 175 m 1,64,-1
 1014 343 l 1,65,-1
 1182 343 l 1,66,-1
 1182 175 l 1,67,-1
 1014 175 l 1,64,-1
338 6 m 1,68,-1
 338 175 l 1,69,-1
 507 175 l 1,70,71
 507 176 507 176 507 6 c 1,72,-1
 338 6 l 1,68,-1
507 6 m 1,73,-1
 507 175 l 1,74,-1
 675 175 l 1,75,76
 675 176 675 176 675 6 c 1,77,-1
 507 6 l 1,73,-1
675 6 m 1,78,-1
 675 175 l 1,79,-1
 845 175 l 1,80,81
 845 176 845 176 845 6 c 1,82,-1
 675 6 l 1,78,-1
845 6 m 1,83,-1
 845 175 l 1,84,-1
 1014 175 l 1,85,86
 1014 176 1014 176 1014 6 c 1,87,-1
 845 6 l 1,83,-1
EndSplineSet
Validated: 549
EndChar

StartChar: unicode#0x008b
Encoding: 139 139 140
Width: 1182
VWidth: 2708
GlyphClass: 1
Flags: W
LayerCount: 2
Fore
SplineSet
507 850 m 1,0,-1
 507 1020 l 1,1,-1
 675 1020 l 1,2,-1
 675 850 l 1,3,-1
 507 850 l 1,0,-1
338 681 m 1,4,-1
 338 850 l 1,5,-1
 507 850 l 1,6,-1
 507 681 l 1,7,-1
 338 681 l 1,4,-1
169 513 m 1,8,-1
 169 681 l 1,9,-1
 338 681 l 1,10,-1
 338 513 l 1,11,-1
 169 513 l 1,8,-1
338 343 m 1,12,-1
 338 513 l 1,13,-1
 507 513 l 1,14,-1
 507 343 l 1,15,-1
 338 343 l 1,12,-1
507 175 m 1,16,-1
 507 343 l 1,17,-1
 675 343 l 1,18,-1
 675 175 l 1,19,-1
 507 175 l 1,16,-1
EndSplineSet
Validated: 517
EndChar

StartChar: unicode#0x008c
Encoding: 140 140 141
Width: 1182
VWidth: 2708
GlyphClass: 1
Flags: W
LayerCount: 2
Fore
SplineSet
169 1188 m 1,0,-1
 169 1357 l 1,1,-1
 338 1357 l 1,2,-1
 338 1188 l 1,3,-1
 169 1188 l 1,0,-1
338 1188 m 1,4,-1
 338 1357 l 1,5,-1
 507 1357 l 1,6,-1
 507 1188 l 1,7,-1
 338 1188 l 1,4,-1
675 1188 m 1,8,-1
 675 1357 l 1,9,-1
 845 1357 l 1,10,-1
 845 1188 l 1,11,-1
 675 1188 l 1,8,-1
845 1188 m 1,12,-1
 845 1357 l 1,13,-1
 1014 1357 l 1,14,-1
 1014 1188 l 1,15,-1
 845 1188 l 1,12,-1
1014 1188 m 1,16,-1
 1014 1357 l 1,17,-1
 1182 1357 l 1,18,-1
 1182 1188 l 1,19,-1
 1014 1188 l 1,16,-1
0 1020 m 1,20,-1
 0 1188 l 1,21,-1
 169 1188 l 1,22,-1
 169 1020 l 1,23,-1
 0 1020 l 1,20,-1
507 1020 m 1,24,-1
 507 1188 l 1,25,-1
 675 1188 l 1,26,-1
 675 1020 l 1,27,-1
 507 1020 l 1,24,-1
0 850 m 1,28,-1
 0 1020 l 1,29,-1
 169 1020 l 1,30,-1
 169 850 l 1,31,-1
 0 850 l 1,28,-1
507 850 m 1,32,-1
 507 1020 l 1,33,-1
 675 1020 l 1,34,-1
 675 850 l 1,35,-1
 507 850 l 1,32,-1
0 681 m 1,36,-1
 0 850 l 1,37,-1
 169 850 l 1,38,-1
 169 681 l 1,39,-1
 0 681 l 1,36,-1
507 681 m 1,40,-1
 507 850 l 1,41,-1
 675 850 l 1,42,-1
 675 681 l 1,43,-1
 507 681 l 1,40,-1
675 681 m 1,44,-1
 675 850 l 1,45,-1
 845 850 l 1,46,-1
 845 681 l 1,47,-1
 675 681 l 1,44,-1
845 681 m 1,48,-1
 845 850 l 1,49,-1
 1014 850 l 1,50,-1
 1014 681 l 1,51,-1
 845 681 l 1,48,-1
0 513 m 1,52,-1
 0 681 l 1,53,-1
 169 681 l 1,54,-1
 169 513 l 1,55,-1
 0 513 l 1,52,-1
507 513 m 1,56,-1
 507 681 l 1,57,-1
 675 681 l 1,58,-1
 675 513 l 1,59,-1
 507 513 l 1,56,-1
0 343 m 1,60,-1
 0 513 l 1,61,-1
 169 513 l 1,62,-1
 169 343 l 1,63,-1
 0 343 l 1,60,-1
507 343 m 1,64,-1
 507 513 l 1,65,-1
 675 513 l 1,66,-1
 675 343 l 1,67,-1
 507 343 l 1,64,-1
0 175 m 1,68,-1
 0 343 l 1,69,-1
 169 343 l 1,70,-1
 169 175 l 1,71,-1
 0 175 l 1,68,-1
507 175 m 1,72,-1
 507 343 l 1,73,-1
 675 343 l 1,74,-1
 675 175 l 1,75,-1
 507 175 l 1,72,-1
169 6 m 1,76,-1
 169 175 l 1,77,-1
 338 175 l 1,78,79
 338 176 338 176 338 6 c 1,80,-1
 169 6 l 1,76,-1
338 6 m 1,81,-1
 338 175 l 1,82,-1
 507 175 l 1,83,84
 507 176 507 176 507 6 c 1,85,-1
 338 6 l 1,81,-1
675 6 m 1,86,-1
 675 175 l 1,87,-1
 845 175 l 1,88,89
 845 176 845 176 845 6 c 1,90,-1
 675 6 l 1,86,-1
845 6 m 1,91,-1
 845 175 l 1,92,-1
 1014 175 l 1,93,94
 1014 176 1014 176 1014 6 c 1,95,-1
 845 6 l 1,91,-1
1014 6 m 1,96,-1
 1014 175 l 1,97,-1
 1182 175 l 1,98,99
 1182 176 1182 176 1182 6 c 1,100,-1
 1014 6 l 1,96,-1
EndSplineSet
Validated: 549
EndChar

StartChar: unicode#0x008e
Encoding: 142 142 143
Width: 1182
VWidth: 2708
GlyphClass: 1
Flags: W
LayerCount: 2
Fore
SplineSet
338 1526 m 1,0,-1
 338 1695 l 1,1,-1
 507 1695 l 1,2,-1
 507 1526 l 1,3,-1
 338 1526 l 1,0,-1
675 1526 m 1,4,-1
 675 1695 l 1,5,-1
 845 1695 l 1,6,-1
 845 1526 l 1,7,-1
 675 1526 l 1,4,-1
507 1357 m 1,8,-1
 507 1526 l 1,9,-1
 675 1526 l 1,10,-1
 675 1357 l 1,11,-1
 507 1357 l 1,8,-1
169 1188 m 1,12,-1
 169 1357 l 1,13,-1
 338 1357 l 1,14,-1
 338 1188 l 1,15,-1
 169 1188 l 1,12,-1
338 1188 m 1,16,-1
 338 1357 l 1,17,-1
 507 1357 l 1,18,-1
 507 1188 l 1,19,-1
 338 1188 l 1,16,-1
507 1188 m 1,20,-1
 507 1357 l 1,21,-1
 675 1357 l 1,22,-1
 675 1188 l 1,23,-1
 507 1188 l 1,20,-1
675 1188 m 1,24,-1
 675 1357 l 1,25,-1
 845 1357 l 1,26,-1
 845 1188 l 1,27,-1
 675 1188 l 1,24,-1
845 1188 m 1,28,-1
 845 1357 l 1,29,-1
 1014 1357 l 1,30,-1
 1014 1188 l 1,31,-1
 845 1188 l 1,28,-1
1014 1188 m 1,32,-1
 1014 1357 l 1,33,-1
 1182 1357 l 1,34,-1
 1182 1188 l 1,35,-1
 1014 1188 l 1,32,-1
1014 1020 m 1,36,-1
 1014 1188 l 1,37,-1
 1182 1188 l 1,38,-1
 1182 1020 l 1,39,-1
 1014 1020 l 1,36,-1
845 850 m 1,40,-1
 845 1020 l 1,41,-1
 1014 1020 l 1,42,-1
 1014 850 l 1,43,-1
 845 850 l 1,40,-1
675 681 m 1,44,-1
 675 850 l 1,45,-1
 845 850 l 1,46,-1
 845 681 l 1,47,-1
 675 681 l 1,44,-1
507 513 m 1,48,-1
 507 681 l 1,49,-1
 675 681 l 1,50,-1
 675 513 l 1,51,-1
 507 513 l 1,48,-1
338 343 m 1,52,-1
 338 513 l 1,53,-1
 507 513 l 1,54,-1
 507 343 l 1,55,-1
 338 343 l 1,52,-1
169 175 m 1,56,-1
 169 343 l 1,57,-1
 338 343 l 1,58,-1
 338 175 l 1,59,-1
 169 175 l 1,56,-1
169 6 m 1,60,-1
 169 175 l 1,61,-1
 338 175 l 1,62,63
 338 176 338 176 338 6 c 1,64,-1
 169 6 l 1,60,-1
338 6 m 1,65,-1
 338 175 l 1,66,-1
 507 175 l 1,67,68
 507 176 507 176 507 6 c 1,69,-1
 338 6 l 1,65,-1
507 6 m 1,70,-1
 507 175 l 1,71,-1
 675 175 l 1,72,73
 675 176 675 176 675 6 c 1,74,-1
 507 6 l 1,70,-1
675 6 m 1,75,-1
 675 175 l 1,76,-1
 845 175 l 1,77,78
 845 176 845 176 845 6 c 1,79,-1
 675 6 l 1,75,-1
845 6 m 1,80,-1
 845 175 l 1,81,-1
 1014 175 l 1,82,83
 1014 176 1014 176 1014 6 c 1,84,-1
 845 6 l 1,80,-1
1014 6 m 1,85,-1
 1014 175 l 1,86,-1
 1182 175 l 1,87,88
 1182 176 1182 176 1182 6 c 1,89,-1
 1014 6 l 1,85,-1
EndSplineSet
Validated: 549
EndChar

StartChar: unicode#0x0091
Encoding: 145 145 146
Width: 1182
VWidth: 2708
GlyphClass: 1
Flags: W
LayerCount: 2
Fore
SplineSet
507 1357 m 1,0,-1
 507 1526 l 1,1,-1
 675 1526 l 1,2,-1
 675 1357 l 1,3,-1
 507 1357 l 1,0,-1
507 1188 m 1,4,-1
 507 1357 l 1,5,-1
 675 1357 l 1,6,-1
 675 1188 l 1,7,-1
 507 1188 l 1,4,-1
675 1020 m 1,8,-1
 675 1188 l 1,9,-1
 845 1188 l 1,10,-1
 845 1020 l 1,11,-1
 675 1020 l 1,8,-1
EndSplineSet
Validated: 517
EndChar

StartChar: unicode#0x0092
Encoding: 146 146 147
Width: 1182
VWidth: 2708
GlyphClass: 1
Flags: W
LayerCount: 2
Fore
SplineSet
507 1357 m 1,0,-1
 507 1526 l 1,1,-1
 675 1526 l 1,2,-1
 675 1357 l 1,3,-1
 507 1357 l 1,0,-1
507 1188 m 1,4,-1
 507 1357 l 1,5,-1
 675 1357 l 1,6,-1
 675 1188 l 1,7,-1
 507 1188 l 1,4,-1
338 1020 m 1,8,-1
 338 1188 l 1,9,-1
 507 1188 l 1,10,-1
 507 1020 l 1,11,-1
 338 1020 l 1,8,-1
EndSplineSet
Validated: 517
EndChar

StartChar: unicode#0x0093
Encoding: 147 147 148
Width: 1182
VWidth: 2708
GlyphClass: 1
Flags: W
LayerCount: 2
Fore
SplineSet
338 1357 m 1,0,-1
 338 1526 l 1,1,-1
 507 1526 l 1,2,-1
 507 1357 l 1,3,-1
 338 1357 l 1,0,-1
675 1357 m 1,4,-1
 675 1526 l 1,5,-1
 845 1526 l 1,6,-1
 845 1357 l 1,7,-1
 675 1357 l 1,4,-1
338 1188 m 1,8,-1
 338 1357 l 1,9,-1
 507 1357 l 1,10,-1
 507 1188 l 1,11,-1
 338 1188 l 1,8,-1
675 1188 m 1,12,-1
 675 1357 l 1,13,-1
 845 1357 l 1,14,-1
 845 1188 l 1,15,-1
 675 1188 l 1,12,-1
507 1020 m 1,16,-1
 507 1188 l 1,17,-1
 675 1188 l 1,18,-1
 675 1020 l 1,19,-1
 507 1020 l 1,16,-1
845 1020 m 1,20,-1
 845 1188 l 1,21,-1
 1014 1188 l 1,22,-1
 1014 1020 l 1,23,-1
 845 1020 l 1,20,-1
EndSplineSet
Validated: 517
EndChar

StartChar: unicode#0x0094
Encoding: 148 148 149
Width: 1182
VWidth: 2708
GlyphClass: 1
Flags: W
LayerCount: 2
Fore
SplineSet
338 1357 m 1,0,-1
 338 1526 l 1,1,-1
 507 1526 l 1,2,-1
 507 1357 l 1,3,-1
 338 1357 l 1,0,-1
675 1357 m 1,4,-1
 675 1526 l 1,5,-1
 845 1526 l 1,6,-1
 845 1357 l 1,7,-1
 675 1357 l 1,4,-1
338 1188 m 1,8,-1
 338 1357 l 1,9,-1
 507 1357 l 1,10,-1
 507 1188 l 1,11,-1
 338 1188 l 1,8,-1
675 1188 m 1,12,-1
 675 1357 l 1,13,-1
 845 1357 l 1,14,-1
 845 1188 l 1,15,-1
 675 1188 l 1,12,-1
169 1020 m 1,16,-1
 169 1188 l 1,17,-1
 338 1188 l 1,18,-1
 338 1020 l 1,19,-1
 169 1020 l 1,16,-1
507 1020 m 1,20,-1
 507 1188 l 1,21,-1
 675 1188 l 1,22,-1
 675 1020 l 1,23,-1
 507 1020 l 1,20,-1
EndSplineSet
Validated: 517
EndChar

StartChar: unicode#0x0095
Encoding: 149 149 150
Width: 1182
VWidth: 2708
GlyphClass: 1
Flags: W
LayerCount: 2
Fore
SplineSet
507 850 m 1,0,-1
 507 1020 l 1,1,-1
 675 1020 l 1,2,-1
 675 850 l 1,3,-1
 507 850 l 1,0,-1
338 681 m 1,4,-1
 338 850 l 1,5,-1
 507 850 l 1,6,-1
 507 681 l 1,7,-1
 338 681 l 1,4,-1
507 681 m 1,8,-1
 507 850 l 1,9,-1
 675 850 l 1,10,-1
 675 681 l 1,11,-1
 507 681 l 1,8,-1
675 681 m 1,12,-1
 675 850 l 1,13,-1
 845 850 l 1,14,-1
 845 681 l 1,15,-1
 675 681 l 1,12,-1
169 513 m 1,16,-1
 169 681 l 1,17,-1
 338 681 l 1,18,-1
 338 513 l 1,19,-1
 169 513 l 1,16,-1
338 513 m 1,20,-1
 338 681 l 1,21,-1
 507 681 l 1,22,-1
 507 513 l 1,23,-1
 338 513 l 1,20,-1
507 513 m 1,24,-1
 507 681 l 1,25,-1
 675 681 l 1,26,-1
 675 513 l 1,27,-1
 507 513 l 1,24,-1
675 513 m 1,28,-1
 675 681 l 1,29,-1
 845 681 l 1,30,-1
 845 513 l 1,31,-1
 675 513 l 1,28,-1
845 513 m 1,32,-1
 845 681 l 1,33,-1
 1014 681 l 1,34,-1
 1014 513 l 1,35,-1
 845 513 l 1,32,-1
338 343 m 1,36,-1
 338 513 l 1,37,-1
 507 513 l 1,38,-1
 507 343 l 1,39,-1
 338 343 l 1,36,-1
507 343 m 1,40,-1
 507 513 l 1,41,-1
 675 513 l 1,42,-1
 675 343 l 1,43,-1
 507 343 l 1,40,-1
675 343 m 1,44,-1
 675 513 l 1,45,-1
 845 513 l 1,46,-1
 845 343 l 1,47,-1
 675 343 l 1,44,-1
507 175 m 1,48,-1
 507 343 l 1,49,-1
 675 343 l 1,50,-1
 675 175 l 1,51,-1
 507 175 l 1,48,-1
EndSplineSet
Validated: 517
EndChar

StartChar: unicode#0x0096
Encoding: 150 150 151
Width: 1182
VWidth: 2708
GlyphClass: 1
Flags: W
LayerCount: 2
Fore
SplineSet
169 513 m 1,0,-1
 169 681 l 1,1,-1
 338 681 l 1,2,-1
 338 513 l 1,3,-1
 169 513 l 1,0,-1
338 513 m 1,4,-1
 338 681 l 1,5,-1
 507 681 l 1,6,-1
 507 513 l 1,7,-1
 338 513 l 1,4,-1
507 513 m 1,8,-1
 507 681 l 1,9,-1
 675 681 l 1,10,-1
 675 513 l 1,11,-1
 507 513 l 1,8,-1
675 513 m 1,12,-1
 675 681 l 1,13,-1
 845 681 l 1,14,-1
 845 513 l 1,15,-1
 675 513 l 1,12,-1
845 513 m 1,16,-1
 845 681 l 1,17,-1
 1014 681 l 1,18,-1
 1014 513 l 1,19,-1
 845 513 l 1,16,-1
EndSplineSet
Validated: 517
EndChar

StartChar: unicode#0x0097
Encoding: 151 151 152
Width: 1182
VWidth: 2708
GlyphClass: 1
Flags: W
LayerCount: 2
Fore
SplineSet
0 513 m 1,0,-1
 0 681 l 1,1,-1
 169 681 l 1,2,-1
 169 513 l 1,3,-1
 0 513 l 1,0,-1
169 513 m 1,4,-1
 169 681 l 1,5,-1
 338 681 l 1,6,-1
 338 513 l 1,7,-1
 169 513 l 1,4,-1
338 513 m 1,8,-1
 338 681 l 1,9,-1
 507 681 l 1,10,-1
 507 513 l 1,11,-1
 338 513 l 1,8,-1
507 513 m 1,12,-1
 507 681 l 1,13,-1
 675 681 l 1,14,-1
 675 513 l 1,15,-1
 507 513 l 1,12,-1
675 513 m 1,16,-1
 675 681 l 1,17,-1
 845 681 l 1,18,-1
 845 513 l 1,19,-1
 675 513 l 1,16,-1
845 513 m 1,20,-1
 845 681 l 1,21,-1
 1014 681 l 1,22,-1
 1014 513 l 1,23,-1
 845 513 l 1,20,-1
1014 513 m 1,24,-1
 1014 681 l 1,25,-1
 1182 681 l 1,26,-1
 1182 513 l 1,27,-1
 1014 513 l 1,24,-1
EndSplineSet
Validated: 517
EndChar

StartChar: unicode#0x0098
Encoding: 152 152 153
Width: 1182
VWidth: 2708
GlyphClass: 1
Flags: W
LayerCount: 2
Fore
SplineSet
338 1188 m 1,0,-1
 338 1357 l 1,1,-1
 507 1357 l 1,2,-1
 507 1188 l 1,3,-1
 338 1188 l 1,0,-1
675 1188 m 1,4,-1
 675 1357 l 1,5,-1
 845 1357 l 1,6,-1
 845 1188 l 1,7,-1
 675 1188 l 1,4,-1
169 1020 m 1,8,-1
 169 1188 l 1,9,-1
 338 1188 l 1,10,-1
 338 1020 l 1,11,-1
 169 1020 l 1,8,-1
507 1020 m 1,12,-1
 507 1188 l 1,13,-1
 675 1188 l 1,14,-1
 675 1020 l 1,15,-1
 507 1020 l 1,12,-1
EndSplineSet
Validated: 517
EndChar

StartChar: unicode#0x0099
Encoding: 153 153 154
Width: 1182
VWidth: 2708
GlyphClass: 1
Flags: W
LayerCount: 2
Fore
SplineSet
0 1188 m 1,0,-1
 0 1357 l 1,1,-1
 169 1357 l 1,2,-1
 169 1188 l 1,3,-1
 0 1188 l 1,0,-1
169 1188 m 1,4,-1
 169 1357 l 1,5,-1
 338 1357 l 1,6,-1
 338 1188 l 1,7,-1
 169 1188 l 1,4,-1
338 1188 m 1,8,-1
 338 1357 l 1,9,-1
 507 1357 l 1,10,-1
 507 1188 l 1,11,-1
 338 1188 l 1,8,-1
675 1188 m 1,12,-1
 675 1357 l 1,13,-1
 845 1357 l 1,14,-1
 845 1188 l 1,15,-1
 675 1188 l 1,12,-1
845 1188 m 1,16,-1
 845 1357 l 1,17,-1
 1014 1357 l 1,18,-1
 1014 1188 l 1,19,-1
 845 1188 l 1,16,-1
1014 1188 m 1,20,-1
 1014 1357 l 1,21,-1
 1182 1357 l 1,22,-1
 1182 1188 l 1,23,-1
 1014 1188 l 1,20,-1
169 1020 m 1,24,-1
 169 1188 l 1,25,-1
 338 1188 l 1,26,-1
 338 1020 l 1,27,-1
 169 1020 l 1,24,-1
675 1020 m 1,28,-1
 675 1188 l 1,29,-1
 845 1188 l 1,30,-1
 845 1020 l 1,31,-1
 675 1020 l 1,28,-1
845 1020 m 1,32,-1
 845 1188 l 1,33,-1
 1014 1188 l 1,34,-1
 1014 1020 l 1,35,-1
 845 1020 l 1,32,-1
1014 1020 m 1,36,-1
 1014 1188 l 1,37,-1
 1182 1188 l 1,38,-1
 1182 1020 l 1,39,-1
 1014 1020 l 1,36,-1
169 850 m 1,40,-1
 169 1020 l 1,41,-1
 338 1020 l 1,42,-1
 338 850 l 1,43,-1
 169 850 l 1,40,-1
675 850 m 1,44,-1
 675 1020 l 1,45,-1
 845 1020 l 1,46,-1
 845 850 l 1,47,-1
 675 850 l 1,44,-1
1014 850 m 1,48,-1
 1014 1020 l 1,49,-1
 1182 1020 l 1,50,-1
 1182 850 l 1,51,-1
 1014 850 l 1,48,-1
169 681 m 1,52,-1
 169 850 l 1,53,-1
 338 850 l 1,54,-1
 338 681 l 1,55,-1
 169 681 l 1,52,-1
675 681 m 1,56,-1
 675 850 l 1,57,-1
 845 850 l 1,58,-1
 845 681 l 1,59,-1
 675 681 l 1,56,-1
1014 681 m 1,60,-1
 1014 850 l 1,61,-1
 1182 850 l 1,62,-1
 1182 681 l 1,63,-1
 1014 681 l 1,60,-1
EndSplineSet
Validated: 517
EndChar

StartChar: unicode#0x009a
Encoding: 154 154 155
Width: 1182
VWidth: 2708
GlyphClass: 1
Flags: W
LayerCount: 2
Fore
SplineSet
338 1357 m 1,0,-1
 338 1526 l 1,1,-1
 507 1526 l 1,2,-1
 507 1357 l 1,3,-1
 338 1357 l 1,0,-1
675 1357 m 1,4,-1
 675 1526 l 1,5,-1
 845 1526 l 1,6,-1
 845 1357 l 1,7,-1
 675 1357 l 1,4,-1
507 1188 m 1,8,-1
 507 1357 l 1,9,-1
 675 1357 l 1,10,-1
 675 1188 l 1,11,-1
 507 1188 l 1,8,-1
338 850 m 1,12,-1
 338 1020 l 1,13,-1
 507 1020 l 1,14,-1
 507 850 l 1,15,-1
 338 850 l 1,12,-1
507 850 m 1,16,-1
 507 1020 l 1,17,-1
 675 1020 l 1,18,-1
 675 850 l 1,19,-1
 507 850 l 1,16,-1
675 850 m 1,20,-1
 675 1020 l 1,21,-1
 845 1020 l 1,22,-1
 845 850 l 1,23,-1
 675 850 l 1,20,-1
845 850 m 1,24,-1
 845 1020 l 1,25,-1
 1014 1020 l 1,26,-1
 1014 850 l 1,27,-1
 845 850 l 1,24,-1
169 681 m 1,28,-1
 169 850 l 1,29,-1
 338 850 l 1,30,-1
 338 681 l 1,31,-1
 169 681 l 1,28,-1
338 513 m 1,32,-1
 338 681 l 1,33,-1
 507 681 l 1,34,-1
 507 513 l 1,35,-1
 338 513 l 1,32,-1
507 513 m 1,36,-1
 507 681 l 1,37,-1
 675 681 l 1,38,-1
 675 513 l 1,39,-1
 507 513 l 1,36,-1
675 343 m 1,40,-1
 675 513 l 1,41,-1
 845 513 l 1,42,-1
 845 343 l 1,43,-1
 675 343 l 1,40,-1
845 175 m 1,44,-1
 845 343 l 1,45,-1
 1014 343 l 1,46,-1
 1014 175 l 1,47,-1
 845 175 l 1,44,-1
169 6 m 1,48,-1
 169 175 l 1,49,-1
 338 175 l 1,50,51
 338 176 338 176 338 6 c 1,52,-1
 169 6 l 1,48,-1
338 6 m 1,53,-1
 338 175 l 1,54,-1
 507 175 l 1,55,56
 507 176 507 176 507 6 c 1,57,-1
 338 6 l 1,53,-1
507 6 m 1,58,-1
 507 175 l 1,59,-1
 675 175 l 1,60,61
 675 176 675 176 675 6 c 1,62,-1
 507 6 l 1,58,-1
675 6 m 1,63,-1
 675 175 l 1,64,-1
 845 175 l 1,65,66
 845 176 845 176 845 6 c 1,67,-1
 675 6 l 1,63,-1
EndSplineSet
Validated: 549
EndChar

StartChar: unicode#0x009b
Encoding: 155 155 156
Width: 1182
VWidth: 2708
GlyphClass: 1
Flags: W
LayerCount: 2
Fore
SplineSet
169 850 m 1,0,-1
 169 1020 l 1,1,-1
 338 1020 l 1,2,-1
 338 850 l 1,3,-1
 169 850 l 1,0,-1
338 681 m 1,4,-1
 338 850 l 1,5,-1
 507 850 l 1,6,-1
 507 681 l 1,7,-1
 338 681 l 1,4,-1
507 513 m 1,8,-1
 507 681 l 1,9,-1
 675 681 l 1,10,-1
 675 513 l 1,11,-1
 507 513 l 1,8,-1
338 343 m 1,12,-1
 338 513 l 1,13,-1
 507 513 l 1,14,-1
 507 343 l 1,15,-1
 338 343 l 1,12,-1
169 175 m 1,16,-1
 169 343 l 1,17,-1
 338 343 l 1,18,-1
 338 175 l 1,19,-1
 169 175 l 1,16,-1
EndSplineSet
Validated: 517
EndChar

StartChar: unicode#0x009c
Encoding: 156 156 157
Width: 1182
VWidth: 2708
GlyphClass: 1
Flags: W
LayerCount: 2
Fore
SplineSet
169 850 m 1,0,-1
 169 1020 l 1,1,-1
 338 1020 l 1,2,-1
 338 850 l 1,3,-1
 169 850 l 1,0,-1
338 850 m 1,4,-1
 338 1020 l 1,5,-1
 507 1020 l 1,6,-1
 507 850 l 1,7,-1
 338 850 l 1,4,-1
675 850 m 1,8,-1
 675 1020 l 1,9,-1
 845 1020 l 1,10,-1
 845 850 l 1,11,-1
 675 850 l 1,8,-1
845 850 m 1,12,-1
 845 1020 l 1,13,-1
 1014 1020 l 1,14,-1
 1014 850 l 1,15,-1
 845 850 l 1,12,-1
0 681 m 1,16,-1
 0 850 l 1,17,-1
 169 850 l 1,18,-1
 169 681 l 1,19,-1
 0 681 l 1,16,-1
507 681 m 1,20,-1
 507 850 l 1,21,-1
 675 850 l 1,22,-1
 675 681 l 1,23,-1
 507 681 l 1,20,-1
1014 681 m 1,24,-1
 1014 850 l 1,25,-1
 1182 850 l 1,26,-1
 1182 681 l 1,27,-1
 1014 681 l 1,24,-1
0 513 m 1,28,-1
 0 681 l 1,29,-1
 169 681 l 1,30,-1
 169 513 l 1,31,-1
 0 513 l 1,28,-1
507 513 m 1,32,-1
 507 681 l 1,33,-1
 675 681 l 1,34,-1
 675 513 l 1,35,-1
 507 513 l 1,32,-1
675 513 m 1,36,-1
 675 681 l 1,37,-1
 845 681 l 1,38,-1
 845 513 l 1,39,-1
 675 513 l 1,36,-1
845 513 m 1,40,-1
 845 681 l 1,41,-1
 1014 681 l 1,42,-1
 1014 513 l 1,43,-1
 845 513 l 1,40,-1
1014 513 m 1,44,-1
 1014 681 l 1,45,-1
 1182 681 l 1,46,-1
 1182 513 l 1,47,-1
 1014 513 l 1,44,-1
0 343 m 1,48,-1
 0 513 l 1,49,-1
 169 513 l 1,50,-1
 169 343 l 1,51,-1
 0 343 l 1,48,-1
507 343 m 1,52,-1
 507 513 l 1,53,-1
 675 513 l 1,54,-1
 675 343 l 1,55,-1
 507 343 l 1,52,-1
0 175 m 1,56,-1
 0 343 l 1,57,-1
 169 343 l 1,58,-1
 169 175 l 1,59,-1
 0 175 l 1,56,-1
507 175 m 1,60,-1
 507 343 l 1,61,-1
 675 343 l 1,62,-1
 675 175 l 1,63,-1
 507 175 l 1,60,-1
1014 175 m 1,64,-1
 1014 343 l 1,65,-1
 1182 343 l 1,66,-1
 1182 175 l 1,67,-1
 1014 175 l 1,64,-1
169 6 m 1,68,-1
 169 175 l 1,69,-1
 338 175 l 1,70,71
 338 176 338 176 338 6 c 1,72,-1
 169 6 l 1,68,-1
338 6 m 1,73,-1
 338 175 l 1,74,-1
 507 175 l 1,75,76
 507 176 507 176 507 6 c 1,77,-1
 338 6 l 1,73,-1
675 6 m 1,78,-1
 675 175 l 1,79,-1
 845 175 l 1,80,81
 845 176 845 176 845 6 c 1,82,-1
 675 6 l 1,78,-1
845 6 m 1,83,-1
 845 175 l 1,84,-1
 1014 175 l 1,85,86
 1014 176 1014 176 1014 6 c 1,87,-1
 845 6 l 1,83,-1
EndSplineSet
Validated: 549
EndChar

StartChar: unicode#0x009e
Encoding: 158 158 159
Width: 1182
VWidth: 2708
GlyphClass: 1
Flags: W
LayerCount: 2
Fore
SplineSet
338 1357 m 1,0,-1
 338 1526 l 1,1,-1
 507 1526 l 1,2,-1
 507 1357 l 1,3,-1
 338 1357 l 1,0,-1
675 1357 m 1,4,-1
 675 1526 l 1,5,-1
 845 1526 l 1,6,-1
 845 1357 l 1,7,-1
 675 1357 l 1,4,-1
507 1188 m 1,8,-1
 507 1357 l 1,9,-1
 675 1357 l 1,10,-1
 675 1188 l 1,11,-1
 507 1188 l 1,8,-1
169 850 m 1,12,-1
 169 1020 l 1,13,-1
 338 1020 l 1,14,-1
 338 850 l 1,15,-1
 169 850 l 1,12,-1
338 850 m 1,16,-1
 338 1020 l 1,17,-1
 507 1020 l 1,18,-1
 507 850 l 1,19,-1
 338 850 l 1,16,-1
507 850 m 1,20,-1
 507 1020 l 1,21,-1
 675 1020 l 1,22,-1
 675 850 l 1,23,-1
 507 850 l 1,20,-1
675 850 m 1,24,-1
 675 1020 l 1,25,-1
 845 1020 l 1,26,-1
 845 850 l 1,27,-1
 675 850 l 1,24,-1
845 850 m 1,28,-1
 845 1020 l 1,29,-1
 1014 1020 l 1,30,-1
 1014 850 l 1,31,-1
 845 850 l 1,28,-1
845 681 m 1,32,-1
 845 850 l 1,33,-1
 1014 850 l 1,34,-1
 1014 681 l 1,35,-1
 845 681 l 1,32,-1
675 513 m 1,36,-1
 675 681 l 1,37,-1
 845 681 l 1,38,-1
 845 513 l 1,39,-1
 675 513 l 1,36,-1
507 343 m 1,40,-1
 507 513 l 1,41,-1
 675 513 l 1,42,-1
 675 343 l 1,43,-1
 507 343 l 1,40,-1
338 175 m 1,44,-1
 338 343 l 1,45,-1
 507 343 l 1,46,-1
 507 175 l 1,47,-1
 338 175 l 1,44,-1
169 6 m 1,48,-1
 169 175 l 1,49,-1
 338 175 l 1,50,51
 338 176 338 176 338 6 c 1,52,-1
 169 6 l 1,48,-1
338 6 m 1,53,-1
 338 175 l 1,54,-1
 507 175 l 1,55,56
 507 176 507 176 507 6 c 1,57,-1
 338 6 l 1,53,-1
507 6 m 1,58,-1
 507 175 l 1,59,-1
 675 175 l 1,60,61
 675 176 675 176 675 6 c 1,62,-1
 507 6 l 1,58,-1
675 6 m 1,63,-1
 675 175 l 1,64,-1
 845 175 l 1,65,66
 845 176 845 176 845 6 c 1,67,-1
 675 6 l 1,63,-1
845 6 m 1,68,-1
 845 175 l 1,69,-1
 1014 175 l 1,70,71
 1014 176 1014 176 1014 6 c 1,72,-1
 845 6 l 1,68,-1
EndSplineSet
Validated: 549
EndChar

StartChar: unicode#0x009f
Encoding: 159 159 160
Width: 1182
VWidth: 2708
GlyphClass: 1
Flags: W
LayerCount: 2
Fore
SplineSet
338 1357 m 1,0,-1
 338 1526 l 1,1,-1
 507 1526 l 1,2,-1
 507 1357 l 1,3,-1
 338 1357 l 1,0,-1
675 1357 m 1,4,-1
 675 1526 l 1,5,-1
 845 1526 l 1,6,-1
 845 1357 l 1,7,-1
 675 1357 l 1,4,-1
0 1020 m 1,8,-1
 0 1188 l 1,9,-1
 169 1188 l 1,10,-1
 169 1020 l 1,11,-1
 0 1020 l 1,8,-1
1014 1020 m 1,12,-1
 1014 1188 l 1,13,-1
 1182 1188 l 1,14,-1
 1182 1020 l 1,15,-1
 1014 1020 l 1,12,-1
0 850 m 1,16,-1
 0 1020 l 1,17,-1
 169 1020 l 1,18,-1
 169 850 l 1,19,-1
 0 850 l 1,16,-1
1014 850 m 1,20,-1
 1014 1020 l 1,21,-1
 1182 1020 l 1,22,-1
 1182 850 l 1,23,-1
 1014 850 l 1,20,-1
169 681 m 1,24,-1
 169 850 l 1,25,-1
 338 850 l 1,26,-1
 338 681 l 1,27,-1
 169 681 l 1,24,-1
845 681 m 1,28,-1
 845 850 l 1,29,-1
 1014 850 l 1,30,-1
 1014 681 l 1,31,-1
 845 681 l 1,28,-1
338 513 m 1,32,-1
 338 681 l 1,33,-1
 507 681 l 1,34,-1
 507 513 l 1,35,-1
 338 513 l 1,32,-1
675 513 m 1,36,-1
 675 681 l 1,37,-1
 845 681 l 1,38,-1
 845 513 l 1,39,-1
 675 513 l 1,36,-1
507 343 m 1,40,-1
 507 513 l 1,41,-1
 675 513 l 1,42,-1
 675 343 l 1,43,-1
 507 343 l 1,40,-1
507 175 m 1,44,-1
 507 343 l 1,45,-1
 675 343 l 1,46,-1
 675 175 l 1,47,-1
 507 175 l 1,44,-1
507 6 m 1,48,-1
 507 175 l 1,49,-1
 675 175 l 1,50,51
 675 176 675 176 675 6 c 1,52,-1
 507 6 l 1,48,-1
EndSplineSet
Validated: 549
EndChar

StartChar: exclamdown
Encoding: 161 161 162
Width: 1182
VWidth: 2708
GlyphClass: 1
Flags: W
LayerCount: 2
Fore
SplineSet
507 1188 m 1,0,-1
 507 1357 l 1,1,-1
 675 1357 l 1,2,-1
 675 1188 l 1,3,-1
 507 1188 l 1,0,-1
507 850 m 1,4,-1
 507 1020 l 1,5,-1
 675 1020 l 1,6,-1
 675 850 l 1,7,-1
 507 850 l 1,4,-1
507 681 m 1,8,-1
 507 850 l 1,9,-1
 675 850 l 1,10,-1
 675 681 l 1,11,-1
 507 681 l 1,8,-1
507 513 m 1,12,-1
 507 681 l 1,13,-1
 675 681 l 1,14,-1
 675 513 l 1,15,-1
 507 513 l 1,12,-1
507 343 m 1,16,-1
 507 513 l 1,17,-1
 675 513 l 1,18,-1
 675 343 l 1,19,-1
 507 343 l 1,16,-1
507 175 m 1,20,-1
 507 343 l 1,21,-1
 675 343 l 1,22,-1
 675 175 l 1,23,-1
 507 175 l 1,20,-1
507 6 m 1,24,-1
 507 175 l 1,25,-1
 675 175 l 1,26,27
 675 176 675 176 675 6 c 1,28,-1
 507 6 l 1,24,-1
EndSplineSet
Validated: 37
EndChar

StartChar: cent
Encoding: 162 162 163
Width: 1182
VWidth: 2708
GlyphClass: 1
Flags: W
LayerCount: 2
Fore
SplineSet
507 1020 m 1,0,-1
 507 1188 l 1,1,-1
 675 1188 l 1,2,-1
 675 1020 l 1,3,-1
 507 1020 l 1,0,-1
338 850 m 1,4,-1
 338 1020 l 1,5,-1
 507 1020 l 1,6,-1
 507 850 l 1,7,-1
 338 850 l 1,4,-1
507 850 m 1,8,-1
 507 1020 l 1,9,-1
 675 1020 l 1,10,-1
 675 850 l 1,11,-1
 507 850 l 1,8,-1
675 850 m 1,12,-1
 675 1020 l 1,13,-1
 845 1020 l 1,14,-1
 845 850 l 1,15,-1
 675 850 l 1,12,-1
169 681 m 1,16,-1
 169 850 l 1,17,-1
 338 850 l 1,18,-1
 338 681 l 1,19,-1
 169 681 l 1,16,-1
507 681 m 1,20,-1
 507 850 l 1,21,-1
 675 850 l 1,22,-1
 675 681 l 1,23,-1
 507 681 l 1,20,-1
845 681 m 1,24,-1
 845 850 l 1,25,-1
 1014 850 l 1,26,-1
 1014 681 l 1,27,-1
 845 681 l 1,24,-1
169 513 m 1,28,-1
 169 681 l 1,29,-1
 338 681 l 1,30,-1
 338 513 l 1,31,-1
 169 513 l 1,28,-1
507 513 m 1,32,-1
 507 681 l 1,33,-1
 675 681 l 1,34,-1
 675 513 l 1,35,-1
 507 513 l 1,32,-1
169 343 m 1,36,-1
 169 513 l 1,37,-1
 338 513 l 1,38,-1
 338 343 l 1,39,-1
 169 343 l 1,36,-1
507 343 m 1,40,-1
 507 513 l 1,41,-1
 675 513 l 1,42,-1
 675 343 l 1,43,-1
 507 343 l 1,40,-1
169 175 m 1,44,-1
 169 343 l 1,45,-1
 338 343 l 1,46,-1
 338 175 l 1,47,-1
 169 175 l 1,44,-1
507 175 m 1,48,-1
 507 343 l 1,49,-1
 675 343 l 1,50,-1
 675 175 l 1,51,-1
 507 175 l 1,48,-1
845 175 m 1,52,-1
 845 343 l 1,53,-1
 1014 343 l 1,54,-1
 1014 175 l 1,55,-1
 845 175 l 1,52,-1
338 6 m 1,56,-1
 338 175 l 1,57,-1
 507 175 l 1,58,59
 507 176 507 176 507 6 c 1,60,-1
 338 6 l 1,56,-1
507 6 m 1,61,-1
 507 175 l 1,62,-1
 675 175 l 1,63,64
 675 176 675 176 675 6 c 1,65,-1
 507 6 l 1,61,-1
675 6 m 1,66,-1
 675 175 l 1,67,-1
 845 175 l 1,68,69
 845 176 845 176 845 6 c 1,70,-1
 675 6 l 1,66,-1
507 -164 m 1,71,-1
 507 6 l 1,72,-1
 675 6 l 1,73,-1
 675 -164 l 1,74,-1
 507 -164 l 1,71,-1
EndSplineSet
Validated: 37
EndChar

StartChar: sterling
Encoding: 163 163 164
Width: 1182
VWidth: 2708
GlyphClass: 1
Flags: W
LayerCount: 2
Fore
SplineSet
507 1188 m 1,0,-1
 507 1357 l 1,1,-1
 675 1357 l 1,2,-1
 675 1188 l 1,3,-1
 507 1188 l 1,0,-1
675 1188 m 1,4,-1
 675 1357 l 1,5,-1
 845 1357 l 1,6,-1
 845 1188 l 1,7,-1
 675 1188 l 1,4,-1
338 1020 m 1,8,-1
 338 1188 l 1,9,-1
 507 1188 l 1,10,-1
 507 1020 l 1,11,-1
 338 1020 l 1,8,-1
338 850 m 1,12,-1
 338 1020 l 1,13,-1
 507 1020 l 1,14,-1
 507 850 l 1,15,-1
 338 850 l 1,12,-1
169 681 m 1,16,-1
 169 850 l 1,17,-1
 338 850 l 1,18,-1
 338 681 l 1,19,-1
 169 681 l 1,16,-1
338 681 m 1,20,-1
 338 850 l 1,21,-1
 507 850 l 1,22,-1
 507 681 l 1,23,-1
 338 681 l 1,20,-1
507 681 m 1,24,-1
 507 850 l 1,25,-1
 675 850 l 1,26,-1
 675 681 l 1,27,-1
 507 681 l 1,24,-1
675 681 m 1,28,-1
 675 850 l 1,29,-1
 845 850 l 1,30,-1
 845 681 l 1,31,-1
 675 681 l 1,28,-1
338 513 m 1,32,-1
 338 681 l 1,33,-1
 507 681 l 1,34,-1
 507 513 l 1,35,-1
 338 513 l 1,32,-1
338 343 m 1,36,-1
 338 513 l 1,37,-1
 507 513 l 1,38,-1
 507 343 l 1,39,-1
 338 343 l 1,36,-1
169 175 m 1,40,-1
 169 343 l 1,41,-1
 338 343 l 1,42,-1
 338 175 l 1,43,-1
 169 175 l 1,40,-1
169 6 m 1,44,-1
 169 175 l 1,45,-1
 338 175 l 1,46,47
 338 176 338 176 338 6 c 1,48,-1
 169 6 l 1,44,-1
338 6 m 1,49,-1
 338 175 l 1,50,-1
 507 175 l 1,51,52
 507 176 507 176 507 6 c 1,53,-1
 338 6 l 1,49,-1
507 6 m 1,54,-1
 507 175 l 1,55,-1
 675 175 l 1,56,57
 675 176 675 176 675 6 c 1,58,-1
 507 6 l 1,54,-1
675 6 m 1,59,-1
 675 175 l 1,60,-1
 845 175 l 1,61,62
 845 176 845 176 845 6 c 1,63,-1
 675 6 l 1,59,-1
845 6 m 1,64,-1
 845 175 l 1,65,-1
 1014 175 l 1,66,67
 1014 176 1014 176 1014 6 c 1,68,-1
 845 6 l 1,64,-1
EndSplineSet
Validated: 37
EndChar

StartChar: currency
Encoding: 164 164 165
Width: 1182
VWidth: 2708
GlyphClass: 1
Flags: W
LayerCount: 2
Fore
SplineSet
0 1020 m 1,0,-1
 0 1188 l 1,1,-1
 169 1188 l 1,2,-1
 169 1020 l 1,3,-1
 0 1020 l 1,0,-1
1014 1020 m 1,4,-1
 1014 1188 l 1,5,-1
 1182 1188 l 1,6,-1
 1182 1020 l 1,7,-1
 1014 1020 l 1,4,-1
169 850 m 1,8,-1
 169 1020 l 1,9,-1
 338 1020 l 1,10,-1
 338 850 l 1,11,-1
 169 850 l 1,8,-1
338 850 m 1,12,-1
 338 1020 l 1,13,-1
 507 1020 l 1,14,-1
 507 850 l 1,15,-1
 338 850 l 1,12,-1
507 850 m 1,16,-1
 507 1020 l 1,17,-1
 675 1020 l 1,18,-1
 675 850 l 1,19,-1
 507 850 l 1,16,-1
675 850 m 1,20,-1
 675 1020 l 1,21,-1
 845 1020 l 1,22,-1
 845 850 l 1,23,-1
 675 850 l 1,20,-1
845 850 m 1,24,-1
 845 1020 l 1,25,-1
 1014 1020 l 1,26,-1
 1014 850 l 1,27,-1
 845 850 l 1,24,-1
169 681 m 1,28,-1
 169 850 l 1,29,-1
 338 850 l 1,30,-1
 338 681 l 1,31,-1
 169 681 l 1,28,-1
845 681 m 1,32,-1
 845 850 l 1,33,-1
 1014 850 l 1,34,-1
 1014 681 l 1,35,-1
 845 681 l 1,32,-1
169 513 m 1,36,-1
 169 681 l 1,37,-1
 338 681 l 1,38,-1
 338 513 l 1,39,-1
 169 513 l 1,36,-1
845 513 m 1,40,-1
 845 681 l 1,41,-1
 1014 681 l 1,42,-1
 1014 513 l 1,43,-1
 845 513 l 1,40,-1
169 343 m 1,44,-1
 169 513 l 1,45,-1
 338 513 l 1,46,-1
 338 343 l 1,47,-1
 169 343 l 1,44,-1
845 343 m 1,48,-1
 845 513 l 1,49,-1
 1014 513 l 1,50,-1
 1014 343 l 1,51,-1
 845 343 l 1,48,-1
169 175 m 1,52,-1
 169 343 l 1,53,-1
 338 343 l 1,54,-1
 338 175 l 1,55,-1
 169 175 l 1,52,-1
338 175 m 1,56,-1
 338 343 l 1,57,-1
 507 343 l 1,58,-1
 507 175 l 1,59,-1
 338 175 l 1,56,-1
507 175 m 1,60,-1
 507 343 l 1,61,-1
 675 343 l 1,62,-1
 675 175 l 1,63,-1
 507 175 l 1,60,-1
675 175 m 1,64,-1
 675 343 l 1,65,-1
 845 343 l 1,66,-1
 845 175 l 1,67,-1
 675 175 l 1,64,-1
845 175 m 1,68,-1
 845 343 l 1,69,-1
 1014 343 l 1,70,-1
 1014 175 l 1,71,-1
 845 175 l 1,68,-1
0 6 m 1,72,-1
 0 175 l 1,73,-1
 169 175 l 1,74,75
 169 176 169 176 169 6 c 1,76,-1
 0 6 l 1,72,-1
1014 6 m 1,77,-1
 1014 175 l 1,78,-1
 1182 175 l 1,79,80
 1182 176 1182 176 1182 6 c 1,81,-1
 1014 6 l 1,77,-1
EndSplineSet
Validated: 37
EndChar

StartChar: yen
Encoding: 165 165 166
Width: 1182
VWidth: 2708
GlyphClass: 1
Flags: W
LayerCount: 2
Fore
SplineSet
0 1188 m 1,0,-1
 0 1357 l 1,1,-1
 169 1357 l 1,2,-1
 169 1188 l 1,3,-1
 0 1188 l 1,0,-1
1014 1188 m 1,4,-1
 1014 1357 l 1,5,-1
 1182 1357 l 1,6,-1
 1182 1188 l 1,7,-1
 1014 1188 l 1,4,-1
0 1020 m 1,8,-1
 0 1188 l 1,9,-1
 169 1188 l 1,10,-1
 169 1020 l 1,11,-1
 0 1020 l 1,8,-1
1014 1020 m 1,12,-1
 1014 1188 l 1,13,-1
 1182 1188 l 1,14,-1
 1182 1020 l 1,15,-1
 1014 1020 l 1,12,-1
169 850 m 1,16,-1
 169 1020 l 1,17,-1
 338 1020 l 1,18,-1
 338 850 l 1,19,-1
 169 850 l 1,16,-1
845 850 m 1,20,-1
 845 1020 l 1,21,-1
 1014 1020 l 1,22,-1
 1014 850 l 1,23,-1
 845 850 l 1,20,-1
338 681 m 1,24,-1
 338 850 l 1,25,-1
 507 850 l 1,26,-1
 507 681 l 1,27,-1
 338 681 l 1,24,-1
675 681 m 1,28,-1
 675 850 l 1,29,-1
 845 850 l 1,30,-1
 845 681 l 1,31,-1
 675 681 l 1,28,-1
507 513 m 1,32,-1
 507 681 l 1,33,-1
 675 681 l 1,34,-1
 675 513 l 1,35,-1
 507 513 l 1,32,-1
169 343 m 1,36,-1
 169 513 l 1,37,-1
 338 513 l 1,38,-1
 338 343 l 1,39,-1
 169 343 l 1,36,-1
338 343 m 1,40,-1
 338 513 l 1,41,-1
 507 513 l 1,42,-1
 507 343 l 1,43,-1
 338 343 l 1,40,-1
507 343 m 1,44,-1
 507 513 l 1,45,-1
 675 513 l 1,46,-1
 675 343 l 1,47,-1
 507 343 l 1,44,-1
675 343 m 1,48,-1
 675 513 l 1,49,-1
 845 513 l 1,50,-1
 845 343 l 1,51,-1
 675 343 l 1,48,-1
845 343 m 1,52,-1
 845 513 l 1,53,-1
 1014 513 l 1,54,-1
 1014 343 l 1,55,-1
 845 343 l 1,52,-1
507 175 m 1,56,-1
 507 343 l 1,57,-1
 675 343 l 1,58,-1
 675 175 l 1,59,-1
 507 175 l 1,56,-1
507 6 m 1,60,-1
 507 175 l 1,61,-1
 675 175 l 1,62,63
 675 176 675 176 675 6 c 1,64,-1
 507 6 l 1,60,-1
EndSplineSet
Validated: 37
EndChar

StartChar: brokenbar
Encoding: 166 166 167
Width: 1182
VWidth: 2708
GlyphClass: 1
Flags: W
LayerCount: 2
Fore
SplineSet
507 1357 m 1,0,-1
 507 1526 l 1,1,-1
 675 1526 l 1,2,-1
 675 1357 l 1,3,-1
 507 1357 l 1,0,-1
507 1188 m 1,4,-1
 507 1357 l 1,5,-1
 675 1357 l 1,6,-1
 675 1188 l 1,7,-1
 507 1188 l 1,4,-1
507 1020 m 1,8,-1
 507 1188 l 1,9,-1
 675 1188 l 1,10,-1
 675 1020 l 1,11,-1
 507 1020 l 1,8,-1
507 850 m 1,12,-1
 507 1020 l 1,13,-1
 675 1020 l 1,14,-1
 675 850 l 1,15,-1
 507 850 l 1,12,-1
507 681 m 1,16,-1
 507 850 l 1,17,-1
 675 850 l 1,18,-1
 675 681 l 1,19,-1
 507 681 l 1,16,-1
507 343 m 1,20,-1
 507 513 l 1,21,-1
 675 513 l 1,22,-1
 675 343 l 1,23,-1
 507 343 l 1,20,-1
507 175 m 1,24,-1
 507 343 l 1,25,-1
 675 343 l 1,26,-1
 675 175 l 1,27,-1
 507 175 l 1,24,-1
507 6 m 1,28,-1
 507 175 l 1,29,-1
 675 175 l 1,30,31
 675 176 675 176 675 6 c 1,32,-1
 507 6 l 1,28,-1
507 -164 m 1,33,-1
 507 6 l 1,34,-1
 675 6 l 1,35,-1
 675 -164 l 1,36,-1
 507 -164 l 1,33,-1
507 -332 m 1,37,-1
 507 -164 l 1,38,-1
 675 -164 l 1,39,-1
 675 -332 l 1,40,-1
 507 -332 l 1,37,-1
EndSplineSet
Validated: 37
EndChar

StartChar: section
Encoding: 167 167 168
Width: 1182
VWidth: 2708
GlyphClass: 1
Flags: W
LayerCount: 2
Fore
SplineSet
338 1357 m 1,0,-1
 338 1526 l 1,1,-1
 507 1526 l 1,2,-1
 507 1357 l 1,3,-1
 338 1357 l 1,0,-1
507 1357 m 1,4,-1
 507 1526 l 1,5,-1
 675 1526 l 1,6,-1
 675 1357 l 1,7,-1
 507 1357 l 1,4,-1
675 1357 m 1,8,-1
 675 1526 l 1,9,-1
 845 1526 l 1,10,-1
 845 1357 l 1,11,-1
 675 1357 l 1,8,-1
169 1188 m 1,12,-1
 169 1357 l 1,13,-1
 338 1357 l 1,14,-1
 338 1188 l 1,15,-1
 169 1188 l 1,12,-1
845 1188 m 1,16,-1
 845 1357 l 1,17,-1
 1014 1357 l 1,18,-1
 1014 1188 l 1,19,-1
 845 1188 l 1,16,-1
169 1020 m 1,20,-1
 169 1188 l 1,21,-1
 338 1188 l 1,22,-1
 338 1020 l 1,23,-1
 169 1020 l 1,20,-1
338 850 m 1,24,-1
 338 1020 l 1,25,-1
 507 1020 l 1,26,-1
 507 850 l 1,27,-1
 338 850 l 1,24,-1
507 850 m 1,28,-1
 507 1020 l 1,29,-1
 675 1020 l 1,30,-1
 675 850 l 1,31,-1
 507 850 l 1,28,-1
338 681 m 1,32,-1
 338 850 l 1,33,-1
 507 850 l 1,34,-1
 507 681 l 1,35,-1
 338 681 l 1,32,-1
675 681 m 1,36,-1
 675 850 l 1,37,-1
 845 850 l 1,38,-1
 845 681 l 1,39,-1
 675 681 l 1,36,-1
507 513 m 1,40,-1
 507 681 l 1,41,-1
 675 681 l 1,42,-1
 675 513 l 1,43,-1
 507 513 l 1,40,-1
675 513 m 1,44,-1
 675 681 l 1,45,-1
 845 681 l 1,46,-1
 845 513 l 1,47,-1
 675 513 l 1,44,-1
845 343 m 1,48,-1
 845 513 l 1,49,-1
 1014 513 l 1,50,-1
 1014 343 l 1,51,-1
 845 343 l 1,48,-1
169 175 m 1,52,-1
 169 343 l 1,53,-1
 338 343 l 1,54,-1
 338 175 l 1,55,-1
 169 175 l 1,52,-1
845 175 m 1,56,-1
 845 343 l 1,57,-1
 1014 343 l 1,58,-1
 1014 175 l 1,59,-1
 845 175 l 1,56,-1
338 6 m 1,60,-1
 338 175 l 1,61,-1
 507 175 l 1,62,63
 507 176 507 176 507 6 c 1,64,-1
 338 6 l 1,60,-1
507 6 m 1,65,-1
 507 175 l 1,66,-1
 675 175 l 1,67,68
 675 176 675 176 675 6 c 1,69,-1
 507 6 l 1,65,-1
675 6 m 1,70,-1
 675 175 l 1,71,-1
 845 175 l 1,72,73
 845 176 845 176 845 6 c 1,74,-1
 675 6 l 1,70,-1
EndSplineSet
Validated: 37
EndChar

StartChar: dieresis
Encoding: 168 168 169
Width: 1182
VWidth: 2708
GlyphClass: 1
Flags: W
LayerCount: 2
Fore
SplineSet
338 1357 m 1,0,-1
 338 1526 l 1,1,-1
 507 1526 l 1,2,-1
 507 1357 l 1,3,-1
 338 1357 l 1,0,-1
675 1357 m 1,4,-1
 675 1526 l 1,5,-1
 845 1526 l 1,6,-1
 845 1357 l 1,7,-1
 675 1357 l 1,4,-1
EndSplineSet
Validated: 1
EndChar

StartChar: copyright
Encoding: 169 169 170
Width: 1182
VWidth: 2708
GlyphClass: 1
Flags: W
LayerCount: 2
Fore
SplineSet
169 1188 m 1,0,-1
 169 1357 l 1,1,-1
 338 1357 l 1,2,-1
 338 1188 l 1,3,-1
 169 1188 l 1,0,-1
338 1188 m 1,4,-1
 338 1357 l 1,5,-1
 507 1357 l 1,6,-1
 507 1188 l 1,7,-1
 338 1188 l 1,4,-1
507 1188 m 1,8,-1
 507 1357 l 1,9,-1
 675 1357 l 1,10,-1
 675 1188 l 1,11,-1
 507 1188 l 1,8,-1
675 1188 m 1,12,-1
 675 1357 l 1,13,-1
 845 1357 l 1,14,-1
 845 1188 l 1,15,-1
 675 1188 l 1,12,-1
845 1188 m 1,16,-1
 845 1357 l 1,17,-1
 1014 1357 l 1,18,-1
 1014 1188 l 1,19,-1
 845 1188 l 1,16,-1
0 1020 m 1,20,-1
 0 1188 l 1,21,-1
 169 1188 l 1,22,-1
 169 1020 l 1,23,-1
 0 1020 l 1,20,-1
1014 1020 m 1,24,-1
 1014 1188 l 1,25,-1
 1182 1188 l 1,26,-1
 1182 1020 l 1,27,-1
 1014 1020 l 1,24,-1
0 850 m 1,28,-1
 0 1020 l 1,29,-1
 169 1020 l 1,30,-1
 169 850 l 1,31,-1
 0 850 l 1,28,-1
507 850 m 1,32,-1
 507 1020 l 1,33,-1
 675 1020 l 1,34,-1
 675 850 l 1,35,-1
 507 850 l 1,32,-1
675 850 m 1,36,-1
 675 1020 l 1,37,-1
 845 1020 l 1,38,-1
 845 850 l 1,39,-1
 675 850 l 1,36,-1
1014 850 m 1,40,-1
 1014 1020 l 1,41,-1
 1182 1020 l 1,42,-1
 1182 850 l 1,43,-1
 1014 850 l 1,40,-1
0 681 m 1,44,-1
 0 850 l 1,45,-1
 169 850 l 1,46,-1
 169 681 l 1,47,-1
 0 681 l 1,44,-1
338 681 m 1,48,-1
 338 850 l 1,49,-1
 507 850 l 1,50,-1
 507 681 l 1,51,-1
 338 681 l 1,48,-1
1014 681 m 1,52,-1
 1014 850 l 1,53,-1
 1182 850 l 1,54,-1
 1182 681 l 1,55,-1
 1014 681 l 1,52,-1
0 513 m 1,56,-1
 0 681 l 1,57,-1
 169 681 l 1,58,-1
 169 513 l 1,59,-1
 0 513 l 1,56,-1
338 513 m 1,60,-1
 338 681 l 1,61,-1
 507 681 l 1,62,-1
 507 513 l 1,63,-1
 338 513 l 1,60,-1
1014 513 m 1,64,-1
 1014 681 l 1,65,-1
 1182 681 l 1,66,-1
 1182 513 l 1,67,-1
 1014 513 l 1,64,-1
0 343 m 1,68,-1
 0 513 l 1,69,-1
 169 513 l 1,70,-1
 169 343 l 1,71,-1
 0 343 l 1,68,-1
507 343 m 1,72,-1
 507 513 l 1,73,-1
 675 513 l 1,74,-1
 675 343 l 1,75,-1
 507 343 l 1,72,-1
675 343 m 1,76,-1
 675 513 l 1,77,-1
 845 513 l 1,78,-1
 845 343 l 1,79,-1
 675 343 l 1,76,-1
1014 343 m 1,80,-1
 1014 513 l 1,81,-1
 1182 513 l 1,82,-1
 1182 343 l 1,83,-1
 1014 343 l 1,80,-1
0 175 m 1,84,-1
 0 343 l 1,85,-1
 169 343 l 1,86,-1
 169 175 l 1,87,-1
 0 175 l 1,84,-1
1014 175 m 1,88,-1
 1014 343 l 1,89,-1
 1182 343 l 1,90,-1
 1182 175 l 1,91,-1
 1014 175 l 1,88,-1
169 6 m 1,92,-1
 169 175 l 1,93,-1
 338 175 l 1,94,95
 338 176 338 176 338 6 c 1,96,-1
 169 6 l 1,92,-1
338 6 m 1,97,-1
 338 175 l 1,98,-1
 507 175 l 1,99,100
 507 176 507 176 507 6 c 1,101,-1
 338 6 l 1,97,-1
507 6 m 1,102,-1
 507 175 l 1,103,-1
 675 175 l 1,104,105
 675 176 675 176 675 6 c 1,106,-1
 507 6 l 1,102,-1
675 6 m 1,107,-1
 675 175 l 1,108,-1
 845 175 l 1,109,110
 845 176 845 176 845 6 c 1,111,-1
 675 6 l 1,107,-1
845 6 m 1,112,-1
 845 175 l 1,113,-1
 1014 175 l 1,114,115
 1014 176 1014 176 1014 6 c 1,116,-1
 845 6 l 1,112,-1
EndSplineSet
Validated: 37
EndChar

StartChar: ordfeminine
Encoding: 170 170 171
Width: 1182
VWidth: 2708
GlyphClass: 1
Flags: W
LayerCount: 2
Fore
SplineSet
338 1188 m 1,0,-1
 338 1357 l 1,1,-1
 507 1357 l 1,2,-1
 507 1188 l 1,3,-1
 338 1188 l 1,0,-1
507 1188 m 1,4,-1
 507 1357 l 1,5,-1
 675 1357 l 1,6,-1
 675 1188 l 1,7,-1
 507 1188 l 1,4,-1
675 1020 m 1,8,-1
 675 1188 l 1,9,-1
 845 1188 l 1,10,-1
 845 1020 l 1,11,-1
 675 1020 l 1,8,-1
338 850 m 1,12,-1
 338 1020 l 1,13,-1
 507 1020 l 1,14,-1
 507 850 l 1,15,-1
 338 850 l 1,12,-1
507 850 m 1,16,-1
 507 1020 l 1,17,-1
 675 1020 l 1,18,-1
 675 850 l 1,19,-1
 507 850 l 1,16,-1
675 850 m 1,20,-1
 675 1020 l 1,21,-1
 845 1020 l 1,22,-1
 845 850 l 1,23,-1
 675 850 l 1,20,-1
169 681 m 1,24,-1
 169 850 l 1,25,-1
 338 850 l 1,26,-1
 338 681 l 1,27,-1
 169 681 l 1,24,-1
675 681 m 1,28,-1
 675 850 l 1,29,-1
 845 850 l 1,30,-1
 845 681 l 1,31,-1
 675 681 l 1,28,-1
338 513 m 1,32,-1
 338 681 l 1,33,-1
 507 681 l 1,34,-1
 507 513 l 1,35,-1
 338 513 l 1,32,-1
507 513 m 1,36,-1
 507 681 l 1,37,-1
 675 681 l 1,38,-1
 675 513 l 1,39,-1
 507 513 l 1,36,-1
675 513 m 1,40,-1
 675 681 l 1,41,-1
 845 681 l 1,42,-1
 845 513 l 1,43,-1
 675 513 l 1,40,-1
EndSplineSet
Validated: 5
EndChar

